<?xml version="1.0" encoding="utf-8"?>
<!-- Generator: Adobe Illustrator 16.0.0, SVG Export Plug-In . SVG Version: 6.00 Build 0)  -->
<!DOCTYPE svg PUBLIC "-//W3C//DTD SVG 1.1//EN" "http://www.w3.org/Graphics/SVG/1.1/DTD/svg11.dtd">
<svg version="1.1" id="Capa_1" xmlns="http://www.w3.org/2000/svg" xmlns:xlink="http://www.w3.org/1999/xlink" x="0px" y="0px"
	 width="324px" height="64px" viewBox="0 0 324 64" enable-background="new 0 0 324 64" xml:space="preserve">
<title>Artboard</title>
<desc>Created with Sketch.</desc>
<g id="Group-32" transform="translate(1.000000, 0.000000)">
	<path id="Fill-1" d="M98.042,17.609v-3.85c0.004-0.587,0.444-0.976,0.977-0.975l17.255-0.001c0.552,0,0.995,0.401,0.995,0.971
		v3.302c-0.005,0.554-0.472,1.276-1.299,2.424l-8.939,12.761c3.318-0.077,6.828,0.419,9.842,2.115
		c0.68,0.381,0.862,0.947,0.916,1.502v4.108c0,0.565-0.62,1.221-1.271,0.879c-5.311-2.781-12.359-3.085-18.232,0.035
		c-0.6,0.319-1.228-0.326-1.228-0.894v-3.904c0-0.625,0.012-1.693,0.643-2.646l10.355-14.856l-9.016-0.001
		C98.488,18.579,98.046,18.186,98.042,17.609"/>
	<path id="Fill-3" d="M35.099,41.654h-5.25c-0.499-0.031-0.898-0.406-0.939-0.887l0.004-26.943c0-0.54,0.453-0.97,1.014-0.97
		l4.888-0.001c0.512,0.026,0.922,0.413,0.954,0.905v3.517h0.099c1.274-3.401,3.675-4.989,6.909-4.989
		c3.282,0,5.341,1.588,6.811,4.989c1.275-3.401,4.166-4.989,7.253-4.989c2.205,0,4.606,0.907,6.076,2.948
		c1.666,2.269,1.324,5.556,1.324,8.448l-0.005,17.003c0,0.537-0.452,0.969-1.013,0.969h-5.243c-0.527-0.033-0.941-0.449-0.941-0.967
		l-0.002-14.284c0-1.132,0.098-3.968-0.147-5.045c-0.392-1.815-1.568-2.326-3.087-2.326c-1.274,0-2.598,0.851-3.137,2.211
		c-0.539,1.362-0.49,3.629-0.49,5.16v14.282c0,0.537-0.453,0.969-1.012,0.969h-5.244c-0.527-0.033-0.942-0.449-0.942-0.967
		l-0.005-14.284c0-3.005,0.489-7.426-3.234-7.426c-3.774,0-3.626,4.307-3.626,7.426l-0.002,14.282
		C36.112,41.223,35.658,41.654,35.099,41.654"/>
	<path id="Fill-5" d="M132.171,17.787c-3.871,0-4.115,5.271-4.115,8.56c0,3.288-0.049,10.318,4.068,10.318
		c4.068,0,4.262-5.669,4.262-9.126c0-2.268-0.098-4.99-0.784-7.145C135.014,18.523,133.837,17.787,132.171,17.787 M132.124,12.287
		c7.791,0,12.005,6.69,12.005,15.194c0,8.22-4.655,14.742-12.005,14.742c-7.645,0-11.811-6.691-11.811-15.024
		C120.313,18.807,124.527,12.287,132.124,12.287"/>
	<path id="Fill-7" d="M154.233,41.654h-5.23c-0.526-0.033-0.942-0.449-0.942-0.967l-0.009-26.953c0.044-0.494,0.48-0.88,1.009-0.88
		l4.869-0.001c0.458,0.024,0.837,0.336,0.933,0.754v4.122h0.099c1.47-3.686,3.527-5.443,7.153-5.443
		c2.352,0,4.656,0.849,6.126,3.175c1.372,2.154,1.372,5.782,1.372,8.391v16.954c-0.059,0.477-0.487,0.848-1.005,0.848h-5.263
		c-0.486-0.031-0.879-0.388-0.936-0.848V26.178c0-2.948,0.344-7.258-3.282-7.258c-1.275,0-2.451,0.851-3.039,2.154
		c-0.735,1.645-0.834,3.289-0.834,5.104v14.508C155.246,41.223,154.793,41.654,154.233,41.654"/>
	<path d="M93.634,36.717c-0.959-1.324-1.982-2.403-1.982-4.864v-8.177c0-3.467,0.247-6.65-2.308-9.036
		c-2.014-1.933-5.352-2.614-7.907-2.614c-4.994,0-10.568,1.865-11.739,8.037c-0.123,0.657,0.354,1.001,0.784,1.098l5.088,0.552
		c0.475-0.025,0.82-0.493,0.912-0.966c0.437-2.127,2.217-3.153,4.219-3.153c1.081,0,2.308,0.398,2.947,1.365
		c0.737,1.08,0.639,2.556,0.639,3.806v0.682c-3.046,0.342-7.024,0.569-9.872,1.819c-3.29,1.421-5.598,4.319-5.598,8.58
		c0,5.454,3.438,8.182,7.857,8.182c3.733,0,5.774-0.881,8.655-3.815c0.954,1.379,1.266,2.049,3.009,3.498
		c0.392,0.211,0.893,0.19,1.24-0.122l0.013,0.012c1.049-0.934,2.954-2.588,4.026-3.486C94.044,37.763,93.969,37.195,93.634,36.717z
		 M83.304,34.357c-0.835,1.477-2.162,2.387-3.634,2.387c-2.013,0-3.192-1.535-3.192-3.809c0-4.471,4.011-5.284,7.809-5.284v1.137
		C84.288,30.835,84.335,32.537,83.304,34.357z"/>
	<g id="Clip-12">
	</g>
	<path d="M24.816,36.717c-0.959-1.324-1.981-2.403-1.981-4.864v-8.177c0-3.467,0.245-6.65-2.308-9.036
		c-2.014-1.933-5.353-2.614-7.907-2.614c-4.997,0-10.57,1.865-11.739,8.037c-0.124,0.657,0.353,1.001,0.783,1.098l5.088,0.552
		c0.476-0.025,0.821-0.493,0.912-0.966c0.436-2.127,2.218-3.153,4.22-3.153c1.079,0,2.307,0.398,2.946,1.365
		c0.737,1.08,0.638,2.556,0.638,3.806v0.682c-3.044,0.342-7.022,0.569-9.87,1.819C2.308,26.687,0,29.585,0,33.846
		c0,5.454,3.438,8.182,7.858,8.182c3.732,0,5.773-0.881,8.655-3.815c0.952,1.379,1.264,2.049,3.009,3.498
		c0.391,0.211,0.893,0.19,1.24-0.122l0.012,0.012c1.048-0.933,2.954-2.588,4.026-3.486C25.228,37.763,25.15,37.195,24.816,36.717z
		 M14.486,34.357c-0.834,1.477-2.161,2.387-3.634,2.387c-2.013,0-3.192-1.535-3.192-3.809c0-4.471,4.012-5.284,7.808-5.284v1.137
		C15.468,30.835,15.518,32.537,14.486,34.357z"/>
	<path id="Fill-14" d="M105.174,52c-9.855,7.272-24.143,11.14-36.445,11.14c-17.243,0-32.77-6.373-44.52-16.983
		c-0.923-0.833-0.1-1.971,1.009-1.326c12.677,7.377,28.354,11.819,44.546,11.819c10.923,0,22.929-2.267,33.977-6.952
		C105.407,48.99,106.804,50.795,105.174,52"/>
	<path id="Fill-16" d="M109.274,47.317c-1.261-1.613-8.332-0.765-11.509-0.384c-0.962,0.115-1.112-0.726-0.244-1.334
		c5.642-3.963,14.884-2.819,15.959-1.492c1.082,1.338-0.285,10.605-5.571,15.027c-0.813,0.681-1.587,0.317-1.226-0.58
		C107.873,55.583,110.536,48.932,109.274,47.317"/>
	<path id="Fill-18" d="M276.459,37.045c-0.964,0.719-2.371,1.077-4.223,1.077c-2.684,0-5.27-0.396-7.764-1.19
		c-0.681-0.226-1.153-0.34-1.416-0.34c-0.455,0-0.683,0.34-0.683,1.02v1.588c0,0.492,0.087,0.851,0.255,1.078
		c0.172,0.225,0.481,0.435,0.937,0.623c2.532,1.058,5.384,1.586,8.558,1.586c3.323,0,5.987-0.795,7.991-2.379
		c2.003-1.589,3.004-3.722,3.004-6.406c0-1.888-0.491-3.428-1.472-4.617c-0.985-1.192-2.59-2.221-4.819-3.09l-4.42-1.701
		c-1.776-0.68-2.968-1.303-3.571-1.87c-0.604-0.567-0.908-1.341-0.908-2.324c0-2.455,1.814-3.683,5.442-3.683
		c2.076,0,4.118,0.302,6.122,0.907c0.602,0.189,1.039,0.283,1.303,0.283c0.491,0,0.735-0.34,0.735-1.02v-1.531
		c0-0.491-0.093-0.859-0.282-1.105c-0.188-0.245-0.51-0.445-0.964-0.595c-2.344-0.869-4.741-1.304-7.198-1.304
		c-3.099,0-5.601,0.757-7.51,2.266c-1.908,1.513-2.861,3.497-2.861,5.952c0,3.74,2.098,6.385,6.293,7.935l4.814,1.814
		c1.551,0.567,2.617,1.133,3.203,1.7c0.585,0.566,0.879,1.304,0.879,2.21C277.904,35.289,277.424,36.328,276.459,37.045"/>
	<path id="Fill-20" d="M251.368,14.035v21.197c-2.759,1.813-5.497,2.722-8.218,2.722c-1.738,0-3.004-0.481-3.798-1.447
		c-0.793-0.963-1.188-2.465-1.188-4.503V14.035c0-0.755-0.38-1.133-1.136-1.133h-3.344c-0.755,0-1.132,0.378-1.132,1.133v19.78
		c0,2.759,0.717,4.895,2.152,6.405c1.437,1.51,3.496,2.267,6.18,2.267c3.701,0,7.311-1.304,10.824-3.91l0.396,1.983
		c0.074,0.416,0.218,0.7,0.425,0.851s0.501,0.228,0.88,0.228h2.438c0.754,0,1.132-0.378,1.132-1.136V14.035
		c0-0.755-0.378-1.133-1.132-1.133h-3.346C251.746,12.901,251.368,13.279,251.368,14.035"/>
	<path id="Fill-22" d="M220.979,41.638h3.343c0.756,0,1.135-0.378,1.135-1.136V20.553c0-2.72-0.7-4.817-2.098-6.291
		c-1.398-1.473-3.4-2.211-6.008-2.211c-3.74,0-7.482,1.343-11.223,4.025c-1.247-2.682-3.627-4.025-7.141-4.025
		c-3.438,0-6.972,1.247-10.6,3.741l-0.339-1.814c-0.075-0.415-0.218-0.698-0.425-0.85c-0.209-0.151-0.502-0.226-0.879-0.226h-2.493
		c-0.755,0-1.134,0.378-1.134,1.133v26.467c0,0.758,0.379,1.136,1.134,1.136h3.344c0.755,0,1.133-0.378,1.133-1.136V19.079
		c2.646-1.662,5.402-2.493,8.274-2.493c1.55,0,2.682,0.453,3.4,1.359c0.719,0.908,1.078,2.306,1.078,4.195v18.362
		c0,0.758,0.377,1.136,1.133,1.136h3.344c0.755,0,1.135-0.378,1.135-1.136V20.894v-0.907c0-0.303-0.02-0.585-0.057-0.85
		c2.797-1.701,5.574-2.551,8.33-2.551c1.551,0,2.683,0.453,3.4,1.359c0.719,0.908,1.077,2.306,1.077,4.195v18.362
		C219.845,41.26,220.223,41.638,220.979,41.638"/>
	<g id="Group-26" transform="translate(299.000000, 12.139500)">
		<g id="Clip-25">
		</g>
		<defs>
			<filter id="Adobe_OpacityMaskFilter" filterUnits="userSpaceOnUse" x="0.604" y="0.138" width="21.368" height="29.982">
				<feColorMatrix  type="matrix" values="1 0 0 0 0  0 1 0 0 0  0 0 1 0 0  0 0 0 1 0"/>
			</filter>
		</defs>
		<mask maskUnits="userSpaceOnUse" x="0.604" y="0.138" width="21.368" height="29.982" id="mask-4">
			<g filter="url(#Adobe_OpacityMaskFilter)">
				<polygon id="path-3" fill="#FFFFFF" points="0.604,0.138 21.971,0.138 21.971,30.12 0.604,30.12 				"/>
			</g>
		</mask>
		<path id="Fill-24" mask="url(#mask-4)" d="M8.539,7.138c1.397-1.606,3.685-2.41,6.858-2.41c1.586,0,3.155,0.227,4.705,0.681
			c0.415,0.114,0.717,0.169,0.905,0.169c0.49,0,0.736-0.376,0.736-1.132V2.915c0-0.528-0.084-0.906-0.255-1.132
			c-0.17-0.228-0.463-0.417-0.878-0.568c-1.965-0.717-3.967-1.077-6.008-1.077c-4.458,0-7.905,1.313-10.343,3.939
			c-2.438,2.627-3.657,6.339-3.657,11.137c0,4.837,1.181,8.53,3.543,11.081c2.361,2.55,5.771,3.825,10.23,3.825
			c2.455,0,4.609-0.396,6.461-1.189c0.453-0.188,0.757-0.397,0.906-0.625c0.151-0.226,0.228-0.584,0.228-1.076V25.7
			c0-0.756-0.245-1.135-0.736-1.135c-0.152,0-0.434,0.058-0.85,0.171c-1.815,0.53-3.515,0.794-5.103,0.794
			c-3.06,0-5.3-0.805-6.716-2.411c-1.418-1.604-2.126-4.126-2.126-7.565v-0.736C6.441,11.303,7.141,8.744,8.539,7.138"/>
	</g>
	<path id="Fill-27" d="M292.543,12.901h-3.344c-0.757,0-1.134,0.378-1.134,1.133v26.468c0,0.758,0.377,1.135,1.134,1.135h3.344
		c0.756,0,1.133-0.377,1.133-1.135V14.034C293.676,13.279,293.299,12.901,292.543,12.901"/>
	<g id="Group-31" transform="translate(287.000000, 0.139500)">
		<g id="Clip-30">
		</g>
		<defs>
			<filter id="Adobe_OpacityMaskFilter_1_" filterUnits="userSpaceOnUse" x="0.385" y="0.861" width="7.029" height="6.8">
				<feColorMatrix  type="matrix" values="1 0 0 0 0  0 1 0 0 0  0 0 1 0 0  0 0 0 1 0"/>
			</filter>
		</defs>
		<mask maskUnits="userSpaceOnUse" x="0.385" y="0.861" width="7.029" height="6.8" id="mask-6">
			<g filter="url(#Adobe_OpacityMaskFilter_1_)">
				<polygon id="path-5" fill="#FFFFFF" points="0.385,0.861 7.414,0.861 7.414,7.66 0.385,7.66 				"/>
			</g>
		</mask>
		<path id="Fill-29" mask="url(#mask-6)" d="M6.479,1.795C5.854,1.172,4.994,0.861,3.9,0.861c-1.098,0-1.955,0.311-2.58,0.934
			C0.697,2.418,0.385,3.241,0.385,4.261c0,1.018,0.313,1.842,0.936,2.464C1.945,7.349,2.803,7.66,3.9,7.66
			c1.094,0,1.953-0.311,2.578-0.935c0.622-0.622,0.936-1.446,0.936-2.464C7.414,3.241,7.101,2.418,6.479,1.795"/>
	</g>
</g>
<g id="Clip-12_1_">
</g>
</svg>
