<?xml version="1.0" encoding="utf-8"?>
<!-- Generator: Adobe Illustrator 16.0.0, SVG Export Plug-In . SVG Version: 6.00 Build 0)  -->
<!DOCTYPE svg PUBLIC "-//W3C//DTD SVG 1.1//EN" "http://www.w3.org/Graphics/SVG/1.1/DTD/svg11.dtd">
<svg version="1.1" id="Capa_1" xmlns:serif="http://www.serif.com/"
	 xmlns="http://www.w3.org/2000/svg" xmlns:xlink="http://www.w3.org/1999/xlink" x="0px" y="0px" width="595.281px"
	 height="188.347px" viewBox="0 322.445 595.281 188.347" enable-background="new 0 322.445 595.281 188.347" xml:space="preserve">
<g>
	<path fill="#5000B9" d="M228.176,438.067H207.82l-7.387-18.191h-35.847l-7.276,18.191h-20.296l36.19-92.379h18.703L228.176,438.067
		L228.176,438.067z M171.103,402.475h22.989l-11.502-30.181L171.103,402.475z"/>
	<path fill="#5000B9" d="M253.303,438.067h-18.706v-64.58h18.435v4.481c4.107-3.959,9.614-6.137,15.323-6.064
		c15.873,0,26.295,10.274,26.295,28.59v37.573h-18.703v-36.12c0-6.843-3.123-12.644-10.696-12.644
		c-8.848,0-11.903,6.6-11.903,16.498l-0.068,32.299"/>
	<path fill="#5000B9" d="M369.101,412.896c-3.045,15.683-14.934,26.617-32.408,26.617c-19.555,0-34.08-14.371-34.08-33.745
		s14.551-33.863,34.08-33.863c17.037,0,28.928,10.558,31.318,25.827h-20.59c-0.709-2.43-2.207-4.554-4.268-6.034
		c-2.055-1.477-4.547-2.227-7.082-2.129c-7.938,0-14.271,6.719-14.271,16.2c0,9.481,6.342,16.218,14.549,16.218
		c2.764,0.098,5.475-0.752,7.688-2.405c2.211-1.656,3.789-4.016,4.471-6.687h20.621"/>
	<path fill="#5000B9" d="M395.496,438.067h-18.697v-92.379h18.697v31.46c4.234-3.485,9.576-5.357,15.066-5.279
		c15.873,0,26.275,10.274,26.275,28.592v37.573h-18.691v-36.088c0-6.843-3.119-12.644-10.707-12.644
		c-8.855,0-11.904,6.6-11.904,16.498L395.496,438.067L395.496,438.067z"/>
	<path fill="#5000B9" d="M479.189,371.905c19.545,0,34.479,14.517,34.479,33.863c0,19.347-14.934,33.745-34.479,33.745
		c-19.541,0-34.488-14.371-34.488-33.745S459.648,371.905,479.189,371.905z M479.189,422.111c8.838,0,15.326-6.854,15.326-16.343
		s-6.488-16.338-15.326-16.338c-8.834,0-15.328,6.857-15.328,16.338C463.861,415.25,470.341,422.111,479.189,422.111z"/>
	<path fill="#5000B9" d="M564.632,395.627c-3.338-3.123-7.709-4.903-12.283-5.003c-5.688,0-12.029,3.109-12.029,12.539v34.923
		h-18.703v-64.598h18.441v5.398c-0.129,0,3.709-6.329,12.947-6.329c2.16-0.097,4.314,0.268,6.322,1.074
		c2.006,0.804,3.816,2.03,5.305,3.591V395.627"/>
	<path fill="#5000B9" d="M575.123,431.443v-15.837h6.744c1.248-0.057,2.496,0.086,3.697,0.428c0.768,0.287,1.418,0.82,1.846,1.518
		c0.453,0.752,0.684,1.618,0.662,2.495c0.02,0.812-0.182,1.612-0.582,2.316c-0.135,0.222-0.291,0.433-0.463,0.627
		c-0.709,0.739-1.637,1.231-2.646,1.404c0.439,0.441,0.859,0.904,1.25,1.386c0.678,0.807,1.289,1.664,1.824,2.568
		c0.412,0.66,1.072,1.721,1.941,3.087h-3.832l-2.314-3.444c-0.514-0.81-1.078-1.586-1.693-2.321c-0.262-0.296-0.59-0.52-0.957-0.661
		c-0.525-0.141-1.072-0.202-1.615-0.178h-0.66v6.599L575.123,431.443z M578.328,422.312h2.35c0.963,0.046,1.93-0.019,2.875-0.192
		c0.367-0.116,0.684-0.349,0.902-0.66c0.227-0.354,0.34-0.768,0.324-1.188c0.029-0.477-0.121-0.947-0.424-1.321
		c-0.318-0.341-0.748-0.56-1.211-0.62c-0.26-0.032-1.039-0.054-2.334-0.054l-2.5,0.002L578.328,422.312L578.328,422.312z"/>
	<path fill="#5000B9" d="M581.08,437.678c-1.861,0.003-3.707-0.359-5.428-1.071s-3.281-1.756-4.598-3.071
		c-0.641-0.642-1.223-1.342-1.734-2.092c-1.842-2.722-2.678-5.998-2.361-9.27c0.316-3.269,1.764-6.327,4.096-8.646
		c0.639-0.644,1.344-1.223,2.098-1.729c2.34-1.585,5.105-2.433,7.936-2.433c2.828,0,5.594,0.847,7.938,2.433
		c0.752,0.506,1.455,1.085,2.094,1.729c1.297,1.288,2.33,2.814,3.045,4.495c0.92,2.167,1.279,4.532,1.049,6.878
		c-0.23,2.343-1.047,4.592-2.373,6.542c-0.512,0.75-1.09,1.45-1.732,2.092c-1.314,1.317-2.875,2.362-4.596,3.074
		C584.791,437.32,582.945,437.684,581.08,437.678L581.08,437.678z M581.08,410.579c-2.566,0-5.076,0.758-7.211,2.181
		c-2.137,1.423-3.799,3.447-4.783,5.815c-0.982,2.365-1.24,4.97-0.738,7.484c0.5,2.512,1.736,4.819,3.553,6.633
		c1.814,1.81,4.129,3.044,6.648,3.544c2.518,0.498,5.129,0.244,7.5-0.738c2.373-0.979,4.398-2.639,5.828-4.771
		c1.426-2.13,2.186-4.633,2.186-7.194c0-3.437-1.369-6.73-3.805-9.16C587.824,411.945,584.521,410.579,581.08,410.579
		L581.08,410.579z"/>
	<path fill="#5000B9" d="M375.476,502.119h-4.016v-31.23h4.016v13.416c0.621-1.077,1.539-1.951,2.646-2.521
		c1.303-0.704,2.773-1.056,4.258-1.016c3.029,0,5.379,1.021,7.049,3.061c1.646,2.298,2.521,5.055,2.508,7.877
		c-0.016,2.822-0.922,5.568-2.592,7.847c-0.863,1.034-1.951,1.854-3.182,2.395c-1.23,0.544-2.57,0.796-3.916,0.733
		c-3.086,0-5.336-1.193-6.744-3.582L375.476,502.119L375.476,502.119z M386.058,497.033c1.186-1.543,1.783-3.456,1.686-5.398
		c0.105-1.919-0.486-3.808-1.666-5.325c-0.545-0.649-1.232-1.163-2.006-1.507s-1.617-0.504-2.465-0.474
		c-0.844-0.021-1.684,0.144-2.453,0.487c-0.771,0.341-1.457,0.852-2.006,1.493c-1.201,1.491-1.816,3.369-1.727,5.279
		c-0.09,1.939,0.523,3.848,1.727,5.371c0.539,0.66,1.217,1.188,1.992,1.542c0.77,0.357,1.615,0.53,2.467,0.509
		c0.848,0.035,1.689-0.125,2.463-0.468c0.775-0.344,1.461-0.861,2.002-1.51H386.058L386.058,497.033z"/>
	<path fill="#5000B9" d="M401.449,510.792l-4.459-0.003l5.193-10.959l-8.949-18.475h4.668l6.482,14.324l6.229-14.324h4.365
		L401.449,510.792L401.449,510.792z"/>
	<path fill="#5000B9" d="M449.628,478.477l-3.805,1.32c-0.234-1.38-0.92-2.646-1.941-3.602c-1.229-1.021-2.766-1.589-4.363-1.615
		c-1.596-0.03-3.154,0.486-4.416,1.464c-0.535,0.438-0.963,0.993-1.254,1.618c-0.293,0.627-0.439,1.312-0.432,2.002
		c-0.029,1.045,0.33,2.06,1.012,2.852c0.775,0.831,1.797,1.392,2.918,1.597l4.584,0.99c2.236,0.387,4.297,1.467,5.885,3.088
		c1.377,1.496,2.119,3.466,2.07,5.498c0.006,1.212-0.258,2.413-0.764,3.515c-0.506,1.104-1.248,2.084-2.172,2.871
		c-1.963,1.783-4.514,2.673-7.652,2.673c-3.438,0-6.127-0.9-8.068-2.7c-1.871-1.653-3.074-3.926-3.395-6.399l4.068-1.32
		c0.135,1.765,0.902,3.42,2.16,4.665c0.693,0.649,1.508,1.152,2.4,1.478c0.891,0.327,1.838,0.468,2.787,0.416
		c2.02,0,3.574-0.46,4.668-1.38c0.525-0.416,0.943-0.949,1.23-1.556c0.285-0.605,0.426-1.271,0.41-1.939
		c0.018-1.112-0.4-2.187-1.164-2.996c-0.926-0.925-2.119-1.536-3.412-1.748l-4.373-0.952c-2.066-0.376-3.969-1.383-5.441-2.882
		c-1.377-1.488-2.107-3.461-2.037-5.484c0.008-1.21,0.279-2.403,0.789-3.501c0.51-1.097,1.25-2.073,2.174-2.86
		c1.934-1.811,4.502-2.793,7.156-2.738c3.143,0,5.551,0.763,7.223,2.283C448.07,474.531,449.177,476.403,449.628,478.477
		L449.628,478.477z"/>
	<path fill="#5000B9" d="M458.013,510.315h-4.02v-28.946h3.934v3.238c0.641-1.128,1.586-2.057,2.725-2.679
		c1.299-0.709,2.76-1.063,4.24-1.031c2.998,0,5.338,1.023,7.025,3.063c1.65,2.272,2.531,5.011,2.518,7.819
		c-0.016,2.809-0.928,5.539-2.605,7.793c-0.859,1.023-1.947,1.835-3.174,2.373c-1.225,0.539-2.557,0.79-3.896,0.733
		c-1.412,0.03-2.809-0.298-4.061-0.949c-1.094-0.553-2.02-1.386-2.686-2.414V510.315L458.013,510.315z M470.296,491.721
		c0.072-1.872-0.518-3.712-1.668-5.192c-0.533-0.668-1.215-1.201-1.99-1.559c-0.777-0.354-1.627-0.524-2.479-0.495
		c-0.855-0.024-1.705,0.146-2.482,0.504c-0.775,0.354-1.461,0.885-1.996,1.548c-1.174,1.472-1.781,3.314-1.707,5.194
		c-0.08,1.905,0.523,3.777,1.707,5.279c0.535,0.663,1.221,1.193,1.996,1.548c0.777,0.357,1.627,0.53,2.482,0.503
		c0.85,0.027,1.693-0.146,2.467-0.5c0.771-0.357,1.451-0.888,1.984-1.551C469.779,495.493,470.376,493.623,470.296,491.721
		L470.296,491.721z"/>
	<path fill="#5000B9" d="M480.912,483.85c2.031-2.005,4.771-3.128,7.627-3.128c2.857,0,5.598,1.123,7.631,3.126
		c0.998,1.05,1.777,2.283,2.293,3.637c0.518,1.35,0.762,2.789,0.715,4.236c0.049,1.451-0.189,2.896-0.701,4.254
		c-0.514,1.358-1.287,2.604-2.283,3.664c-2.039,2.005-4.789,3.128-7.654,3.128c-2.863,0-5.615-1.123-7.654-3.128
		c-0.994-1.061-1.77-2.306-2.281-3.664s-0.75-2.803-0.701-4.254c-0.047-1.447,0.197-2.887,0.711-4.236
		c0.518-1.354,1.299-2.587,2.299-3.637V483.85z M483.933,497.179c0.596,0.622,1.309,1.117,2.1,1.456
		c0.793,0.338,1.645,0.511,2.506,0.511c0.863,0,1.713-0.173,2.506-0.511c0.793-0.339,1.506-0.834,2.102-1.456
		c1.248-1.317,1.873-3.139,1.879-5.455c0-2.297-0.664-4.104-1.879-5.411c-0.596-0.623-1.309-1.115-2.102-1.453
		s-1.643-0.515-2.506-0.515c-0.861,0-1.713,0.177-2.506,0.515c-0.791,0.338-1.504,0.83-2.1,1.453
		c-1.25,1.32-1.877,3.114-1.877,5.411C482.056,494.019,482.683,495.875,483.933,497.179z"/>
	<path fill="#5000B9" d="M509.595,474.81v6.551h4.496v3.669h-4.496v10.788c-0.07,0.393-0.041,0.796,0.08,1.175
		c0.123,0.382,0.336,0.725,0.621,1.004c0.283,0.278,0.633,0.487,1.014,0.604c0.385,0.113,0.787,0.135,1.18,0.062
		c0.539,0.009,1.078-0.051,1.602-0.17v3.45c-0.893,0.289-1.828,0.422-2.764,0.39c-0.777,0.04-1.551-0.076-2.281-0.344
		c-0.729-0.269-1.395-0.683-1.959-1.213c-0.541-0.584-0.955-1.271-1.225-2.021c-0.268-0.747-0.377-1.543-0.33-2.336v-11.383h-3.969
		v-3.666l1.125-0.003c0.441,0.035,0.883-0.027,1.297-0.179s0.791-0.393,1.104-0.703c0.553-0.639,0.84-1.462,0.801-2.303v-3.375
		h3.705V474.81z"/>
	<path fill="#5000B9" d="M519.427,475.567c-0.273-0.265-0.486-0.584-0.633-0.937c-0.143-0.352-0.213-0.73-0.205-1.109
		c-0.008-0.384,0.063-0.766,0.209-1.12c0.143-0.356,0.355-0.682,0.629-0.952c0.266-0.278,0.586-0.498,0.939-0.646
		c0.352-0.149,0.734-0.225,1.117-0.217c0.387-0.005,0.77,0.065,1.127,0.211c0.355,0.146,0.678,0.36,0.951,0.634
		c0.281,0.271,0.504,0.595,0.65,0.955c0.148,0.359,0.219,0.746,0.211,1.136c0.006,0.382-0.068,0.761-0.215,1.112
		c-0.148,0.354-0.367,0.671-0.646,0.934c-0.273,0.273-0.596,0.487-0.951,0.633c-0.357,0.144-0.74,0.217-1.127,0.212
		c-0.381,0.005-0.76-0.065-1.115-0.212C520.015,476.058,519.697,475.841,519.427,475.567z M523.517,502.119h-4.021v-20.753h4.021
		V502.119z"/>
	<path fill="#5000B9" d="M540.896,485.035h-5.014v17.084h-4.191v-17.084h-3.85v-3.666l3.85-0.003v-3.491
		c-0.055-0.955,0.092-1.912,0.424-2.811c0.336-0.898,0.854-1.719,1.52-2.408c0.646-0.628,1.408-1.12,2.25-1.445
		c0.84-0.327,1.738-0.481,2.639-0.454c1.236,0,2.045,0.146,2.42,0.436v3.614c-0.572-0.191-1.172-0.278-1.773-0.257
		c-0.842-0.016-1.66,0.263-2.313,0.793c-0.664,0.536-0.975,1.45-0.975,2.744v3.301h5.014V485.035L540.896,485.035z"/>
	<path fill="#5000B9" d="M551.099,510.792l-4.455-0.003l5.191-10.959l-8.947-18.475h4.666l6.484,14.324l6.229-14.324h4.365
		L551.099,510.792z"/>
	<path fill="#5000B9" d="M114.416,365.359c0,0-4.96-2.352-10.106-0.825c-3.848,1.134-8.069,4.051-10.469,10.109
		c-4.629,11.619-0.622,31.883-2.189,31.883c-1.566,0-6.502-18.673-13.102-38.12c-6.599-19.444-12.309-39.643-22.612-38.014
		c-9.14,1.439-6.302,24.469-2.725,46.04c3.241,19.549,6.992,37.854,4.849,37.854c-3.829,0.008-16.395-54.035-29.271-51.984
		c-12.877,2.054,3.709,61.598,0.225,61.712c-2.866,0.092-9.887-36.248-20.31-34.578c-7.898,1.267-0.86,29.537-0.536,37.422
		c0.079,1.978,0.692,5.688-2.276,5.688H0v5.495h9.649c1.983-0.092,3.553-0.85,4.346-2.798c2.679-6.597-4.359-34.629-2.711-34.832
		c1.131-0.138,3.572,8.394,6.979,18.04c3.404,9.646,6.818,19.649,13.286,19.649c13.948,0-0.279-54.687,2.486-54.687
		c1.461,0,5.45,11.11,9.836,23.3c5.363,14.893,11.903,31.409,19.801,31.409c9.425,0,6.354-21.335,3.439-41.774
		c-2.527-17.691-5.49-34.315-3.91-34.315c3.558,0.003,16.99,76.063,33.122,76.063c8.082,0,8.174-15.902,8.174-33.046
		c0-12.043-1.007-23.016,6.559-25.654c3.599-1.255,7.235,0.969,7.235,0.969L114.416,365.359z"/>
</g>
</svg>
