<?xml version="1.0" encoding="utf-8"?>
<!-- Generator: Adobe Illustrator 16.0.0, SVG Export Plug-In . SVG Version: 6.00 Build 0)  -->
<!DOCTYPE svg PUBLIC "-//W3C//DTD SVG 1.1//EN" "http://www.w3.org/Graphics/SVG/1.1/DTD/svg11.dtd">
<svg version="1.1" id="Layer_1" xmlns="http://www.w3.org/2000/svg" xmlns:xlink="http://www.w3.org/1999/xlink" x="0px" y="0px"
	 width="503.5px" height="97.5px" viewBox="0 0 503.5 97.5" enable-background="new 0 0 503.5 97.5" xml:space="preserve">
<g>
	<path fill="#3C4043" d="M138.674,54.324h-15.098l-3.623,10.705h-6.397l14.3-39.607h6.642l14.3,39.607h-6.505L138.674,54.324z
		 M125.139,49.386h11.968l-5.901-17.376h-0.165L125.139,49.386L125.139,49.386z M180.399,50.594c0,8.975-4.806,14.738-12.051,14.738
		c-4.119,0-7.381-1.84-9.085-5.055h-0.137v14.301h-5.93v-38.43h5.736v4.806h0.107c1.646-3.102,5.161-5.103,9.197-5.103
		C175.569,35.852,180.399,41.645,180.399,50.594L180.399,50.594z M174.308,50.594c0-5.848-3.019-9.689-7.63-9.689
		c-4.528,0-7.576,3.925-7.576,9.689c0,5.818,3.048,9.719,7.576,9.719C171.289,60.309,174.308,56.49,174.308,50.594z M212.407,50.594
		c0,8.975-4.805,14.738-12.05,14.738c-4.119,0-7.382-1.84-9.085-5.055h-0.136v14.301h-5.93v-38.43h5.736v4.806h0.107
		c1.646-3.102,5.161-5.103,9.197-5.103C207.573,35.852,212.407,41.645,212.407,50.594L212.407,50.594z M206.312,50.594
		c0-5.848-3.019-9.689-7.63-9.689c-4.528,0-7.576,3.925-7.576,9.689c0,5.818,3.048,9.719,7.576,9.719
		C203.292,60.309,206.312,56.49,206.312,50.594z M217.427,25.422h5.93v39.607h-5.93V25.422z M255.432,56.549
		c-0.795,5.243-5.902,8.838-12.436,8.838c-8.399,0-13.614-5.629-13.614-14.656c0-9.057,5.244-14.934,13.365-14.934
		c7.99,0,13.01,5.488,13.01,14.246v2.031h-20.396v0.355c0,4.94,3.102,8.18,7.767,8.18c3.292,0,5.872-1.563,6.67-4.062
		L255.432,56.549L255.432,56.549z M235.395,47.93h14.437c-0.136-4.42-2.965-7.327-7.08-7.327
		C238.658,40.603,235.693,43.563,235.395,47.93L235.395,47.93z M289.556,25.422c7.685,0,13.039,5.297,13.039,13.01
		c0,7.741-5.463,13.063-13.229,13.063h-8.511v13.53h-6.149V25.421L289.556,25.422L289.556,25.422z M280.854,46.338h7.057
		c5.351,0,8.397-2.882,8.397-7.877c0-4.996-3.048-7.85-8.369-7.85h-7.079v15.727H280.854L280.854,46.338z M305.373,50.594
		c0-9.086,5.352-14.797,13.696-14.797c8.37,0,13.695,5.707,13.695,14.797c0,9.114-5.297,14.797-13.695,14.797
		S305.373,59.703,305.373,50.594z M326.729,50.594c0-6.232-2.854-9.908-7.658-9.908c-4.806,0-7.658,3.705-7.658,9.908
		c0,6.256,2.854,9.908,7.658,9.908S326.729,56.85,326.729,50.594z M336.872,50.594c0-8.92,4.913-14.738,12.075-14.738
		c4.144,0,7.41,1.918,9.057,5.103h0.107V25.423h5.955v39.606h-5.766v-4.911h-0.106c-1.704,3.292-4.996,5.215-9.197,5.215
		C341.785,65.332,336.872,59.514,336.872,50.594L336.872,50.594z M342.935,50.594c0,5.93,3.02,9.719,7.631,9.719
		c4.557,0,7.601-3.843,7.601-9.719c0-5.818-3.048-9.689-7.601-9.689C345.953,40.9,342.935,44.717,342.935,50.594z M389.796,46.09
		c-0.521-3.047-2.911-5.326-6.807-5.326c-4.558,0-7.576,3.816-7.576,9.826c0,6.148,3.048,9.854,7.63,9.854
		c3.681,0,6.096-1.84,6.753-5.186h5.711c-0.661,6.066-5.517,10.128-12.518,10.128c-8.233,0-13.613-5.628-13.613-14.796
		c0-8.975,5.38-14.797,13.56-14.797c7.411,0,12.021,4.665,12.519,10.293h-5.657L389.796,46.09L389.796,46.09z M399.258,56.768
		c0-5.049,3.871-8.014,11.063-8.453l7.683-0.438v-2.196c0-3.267-2.166-5.021-5.93-5.021c-3.103,0-5.38,1.592-5.849,4.061h-5.545
		c0.165-5.16,4.995-8.92,11.559-8.92c7.08,0,11.662,3.706,11.662,9.441v19.792h-5.679v-4.747h-0.137
		c-1.621,3.102-5.219,5.16-9.114,5.16C403.236,65.443,399.258,61.898,399.258,56.768L399.258,56.768z M418.003,54.216v-2.225
		l-6.918,0.438c-3.842,0.219-5.872,1.702-5.872,4.2c0,2.415,2.113,4.119,5.409,4.119C414.819,60.746,418.003,57.95,418.003,54.216
		L418.003,54.216z M441.24,35.822c6.393,0,10.975,3.539,11.115,8.646h-5.57c-0.252-2.551-2.415-4.119-5.711-4.119
		c-3.209,0-5.352,1.48-5.352,3.734c0,1.729,1.428,2.883,4.416,3.623l4.859,1.125c5.818,1.397,8.015,3.539,8.015,7.767
		c0,5.215-4.941,8.782-11.997,8.782c-6.807,0-11.389-3.485-11.826-8.758h5.871c0.414,2.771,2.64,4.255,6.232,4.255
		c3.54,0,5.769-1.456,5.769-3.759c0-1.787-1.1-2.746-4.118-3.517l-5.16-1.261c-5.215-1.266-7.851-3.925-7.851-7.932
		C429.93,39.313,434.512,35.822,441.24,35.822L441.24,35.822z M466.126,29.321v6.831h5.488v4.694h-5.488v15.921
		c0,2.473,1.101,3.623,3.516,3.623c0.604,0,1.563-0.084,1.947-0.138v4.664c-0.657,0.166-1.977,0.272-3.292,0.272
		c-5.847,0-8.125-2.194-8.125-7.795V40.845h-4.202v-4.694h4.202V29.32L466.126,29.321L466.126,29.321z M487.519,35.822
		c6.395,0,10.976,3.539,11.115,8.646h-5.569c-0.252-2.551-2.415-4.119-5.71-4.119c-3.21,0-5.353,1.48-5.353,3.734
		c0,1.729,1.427,2.883,4.416,3.623l4.859,1.125c5.817,1.397,8.015,3.539,8.015,7.767c0,5.215-4.942,8.782-11.997,8.782
		c-6.807,0-11.389-3.485-11.827-8.758h5.872c0.414,2.771,2.64,4.255,6.232,4.255c3.54,0,5.769-1.456,5.769-3.759
		c0-1.787-1.1-2.746-4.118-3.517l-5.16-1.261c-5.216-1.266-7.85-3.925-7.85-7.932C476.208,39.313,480.79,35.822,487.519,35.822z"/>
</g>
<linearGradient id="SVGID_1_" gradientUnits="userSpaceOnUse" x1="1.7129" y1="-0.25" x2="2.7129" y2="-0.25" gradientTransform="matrix(0 92.6031 -92.6031 0 28.1289 -154.9266)">
	<stop  offset="0" style="stop-color:#F452FF"/>
	<stop  offset="1" style="stop-color:#832BC1"/>
</linearGradient>
<path fill="url(#SVGID_1_)" d="M95.819,83.968c-2.275,5.39-6.838,9.483-12.443,11.161c-2.973,0.881-6.633,1.18-11.19,1.18H30.514
	c-4.557,0-8.217-0.299-11.19-1.18c-5.61-1.67-10.176-5.766-12.443-11.161c-1.815-4.606-1.836-9.834-1.836-13.126V29.17
	c0-3.292,0.017-8.519,1.832-13.125c2.275-5.391,6.838-9.483,12.443-11.162c2.974-0.881,6.633-1.178,11.19-1.178h41.672
	c4.557,0,8.217,0.297,11.19,1.178c5.61,1.669,10.176,5.766,12.443,11.162c1.812,4.606,1.832,9.833,1.832,13.125v41.671
	C97.651,74.134,97.63,79.361,95.819,83.968z"/>
<path fill="none" d="M95.819,83.968c-2.275,5.39-6.838,9.483-12.443,11.161c-2.973,0.881-6.633,1.18-11.19,1.18H30.514
	c-4.557,0-8.217-0.299-11.19-1.18c-5.61-1.67-10.176-5.766-12.443-11.161c-1.815-4.606-1.836-9.834-1.836-13.126V29.17
	c0-3.292,0.017-8.519,1.832-13.125c2.275-5.391,6.838-9.483,12.443-11.162c2.974-0.881,6.633-1.178,11.19-1.178h41.672
	c4.557,0,8.217,0.297,11.19,1.178c5.61,1.669,10.176,5.766,12.443,11.162c1.812,4.606,1.832,9.833,1.832,13.125v41.671
	C97.651,74.134,97.63,79.361,95.819,83.968z"/>
<path fill="#FFFFFF" d="M58.063,56.932c-1.39-1.465-3.829-2.408-6.711-2.408s-5.322,0.939-6.712,2.408
	c-0.712,0.715-1.148,1.66-1.228,2.666c-0.236,2.163-0.104,4.028,0.149,7.006c0.24,2.838,0.699,6.625,1.298,10.479
	c0.426,2.742,0.773,4.224,1.087,5.285c0.509,1.717,2.419,3.222,5.405,3.222c2.985,0,4.892-1.501,5.405-3.222
	c0.314-1.06,0.662-2.539,1.087-5.285c0.6-3.854,1.059-7.638,1.299-10.479c0.252-2.978,0.384-4.842,0.148-7.006
	C59.212,58.592,58.777,57.646,58.063,56.932z M43.78,43.875c0,4.187,3.394,7.58,7.58,7.58s7.58-3.393,7.58-7.58
	c0-4.186-3.394-7.58-7.58-7.58S43.78,39.689,43.78,43.875z M51.265,13.965c-17.724,0.049-32.248,14.428-32.467,32.152
	c-0.178,14.357,8.986,26.64,21.785,31.139c0.229,0.08,0.479-0.04,0.559-0.27c0.023-0.065,0.03-0.137,0.021-0.207
	c-0.17-1.115-0.327-2.232-0.472-3.336c-0.049-0.389-0.299-0.723-0.657-0.881c-10.448-4.56-17.165-14.914-17.067-26.313
	c0.149-15.42,12.741-27.992,28.162-28.116c15.764-0.128,28.633,12.662,28.633,28.397c-0.013,11.3-6.713,21.52-17.071,26.037
	c-0.358,0.158-0.608,0.492-0.658,0.881c-0.146,1.113-0.303,2.224-0.471,3.333c-0.037,0.237,0.125,0.459,0.362,0.495
	c0.072,0.012,0.145,0.005,0.212-0.021c12.675-4.457,21.789-16.549,21.789-30.729C83.926,28.542,69.266,13.915,51.265,13.965z
	 M50.678,28.906c9.75-0.375,17.957,7.225,18.332,16.975c0.008,0.219,0.013,0.439,0.013,0.658c0.002,4.875-2.018,9.531-5.579,12.861
	c-0.29,0.273-0.445,0.66-0.426,1.06c0.066,1.211,0.042,2.39-0.037,3.717c-0.013,0.237,0.168,0.44,0.405,0.453
	c0.094,0.007,0.187-0.021,0.265-0.071c5.964-4.062,9.534-10.808,9.536-18.022c-0.012-12.059-9.797-21.825-21.855-21.814
	c-0.274,0-0.549,0.006-0.823,0.017c-11.542,0.446-20.805,9.962-20.95,21.516c-0.092,7.315,3.489,14.19,9.536,18.308
	c0.194,0.133,0.459,0.084,0.592-0.11c0.054-0.079,0.08-0.175,0.074-0.271c-0.088-1.238-0.101-2.481-0.038-3.722
	c0.022-0.399-0.134-0.787-0.426-1.06c-3.683-3.441-5.711-8.299-5.57-13.336C34.007,36.785,41.404,29.298,50.678,28.906z"/>
</svg>
