<?xml version="1.0" encoding="utf-8"?>
<!-- Generator: Adobe Illustrator 16.0.0, SVG Export Plug-In . SVG Version: 6.00 Build 0)  -->
<!DOCTYPE svg PUBLIC "-//W3C//DTD SVG 1.1//EN" "http://www.w3.org/Graphics/SVG/1.1/DTD/svg11.dtd">
<svg version="1.1"
	 id="Calque_1" xmlns:svg="http://www.w3.org/2000/svg" xmlns:sodipodi="http://sodipodi.sourceforge.net/DTD/sodipodi-0.dtd" xmlns:rdf="http://www.w3.org/1999/02/22-rdf-syntax-ns#" xmlns:inkscape="http://www.inkscape.org/namespaces/inkscape" xmlns:dc="http://purl.org/dc/elements/1.1/" xmlns:cc="http://creativecommons.org/ns#" sodipodi:docname="index.svg" inkscape:version="0.92.4 (5da689c313, 2019-01-14)"
	 xmlns="http://www.w3.org/2000/svg" xmlns:xlink="http://www.w3.org/1999/xlink" x="0px" y="0px" width="595.281px"
	 height="94.445px" viewBox="0 0 595.281 94.445" enable-background="new 0 0 595.281 94.445" xml:space="preserve">
<g id="g8252" transform="translate(0,86.843818)">
	<path id="path8175" inkscape:connector-curvature="0" d="M186.639-25.807c0,16.74,10.311,26.759,25.632,26.759
		c7.639,0,14.068-2.129,17.658-7.723v7.723h13.985v-79.733h-14.527v33.897c-3.298-5.594-9.393-8.098-17.032-8.098
		C197.409-53.024,186.639-42.797,186.639-25.807L186.639-25.807z M229.846-25.807c0,9.561-6.513,15.53-14.319,15.53
		c-8.098,0-14.318-5.97-14.318-15.53c0-9.727,6.262-15.821,14.318-15.821C223.333-41.628,229.846-35.449,229.846-25.807z"/>
	<path id="path8177" inkscape:connector-curvature="0" d="M289.124-19.628c-1.67,6.179-5.886,9.268-12.523,9.268
		c-7.723,0-14.068-4.676-14.235-12.941h36.611c0.46-2.046,0.668-4.216,0.668-6.596c0-14.819-10.103-23.169-25.005-23.169
		c-15.905,0-26.843,11.313-26.843,26.676c0,17.116,12.064,27.385,28.763,27.385c12.607,0,21.165-5.26,24.922-15.738L289.124-19.628z
		 M262.365-32.986c1.377-5.97,6.345-9.477,12.315-9.477c6.512,0,10.938,3.507,10.938,9.018l-0.084,0.459H262.365z"/>
	<path id="path8179" inkscape:connector-curvature="0" d="M343.018-19.628c-1.67,6.179-5.886,9.268-12.524,9.268
		c-7.723,0-14.068-4.676-14.235-12.941h36.611c0.459-2.046,0.669-4.216,0.669-6.596c0-14.819-10.104-23.169-25.007-23.169
		c-15.904,0-26.843,11.313-26.843,26.676c0,17.116,12.065,27.385,28.764,27.385c12.606,0,21.165-5.26,24.922-15.738L343.018-19.628z
		 M316.258-32.986c1.378-5.97,6.346-9.477,12.314-9.477c6.513,0,10.938,3.507,10.938,9.018l-0.083,0.459H316.258z"/>
	<path id="path8181" inkscape:connector-curvature="0" d="M404.801,1.036v-13.149h-30.517l29.681-28.889v-12.022h-46.963v12.523
		h28.68l-29.598,29.014V1.036H404.801z"/>
	<path id="path8183" inkscape:connector-curvature="0" d="M447.255-19.628c-1.669,6.179-5.885,9.268-12.522,9.268
		c-7.724,0-14.068-4.676-14.235-12.941h36.61c0.46-2.046,0.668-4.216,0.668-6.596c0-14.819-10.103-23.169-25.006-23.169
		c-15.904,0-26.842,11.313-26.842,26.676c0,17.116,12.064,27.385,28.762,27.385c12.608,0,21.166-5.26,24.923-15.738L447.255-19.628z
		 M420.498-32.986c1.378-5.97,6.345-9.477,12.314-9.477c6.514,0,10.938,3.507,10.938,9.018l-0.084,0.459H420.498z"/>
	<rect id="rect8185" x="153.827" y="-53.024" fill="#40AB5D" width="17.909" height="10.479"/>
	
		<linearGradient id="rect8192_1_" gradientUnits="userSpaceOnUse" x1="-59.2129" y1="166.935" x2="-59.3673" y2="157.1014" gradientTransform="matrix(1.0904 0 0 1.0904 227.4336 -209.9578)">
		<stop  offset="0" style="stop-color:#358C7B"/>
		<stop  offset="0.5256" style="stop-color:#33A65E"/>
	</linearGradient>
	<rect id="rect8192" x="153.827" y="-38.497" fill="url(#rect8192_1_)" width="17.909" height="10.479"/>
	
		<linearGradient id="rect8199_1_" gradientUnits="userSpaceOnUse" x1="-67.7524" y1="179.6806" x2="-50.827" y2="171.0566" gradientTransform="matrix(1.0904 0 0 1.0904 227.4336 -209.9578)">
		<stop  offset="0" style="stop-color:#222B90"/>
		<stop  offset="1" style="stop-color:#367B99"/>
	</linearGradient>
	<rect id="rect8199" x="153.827" y="-23.97" fill="url(#rect8199_1_)" width="17.909" height="10.479"/>
	
		<linearGradient id="rect8206_1_" gradientUnits="userSpaceOnUse" x1="-127.0322" y1="188.6909" x2="-110.6089" y2="188.6909" gradientTransform="matrix(1.0904 0 0 1.0904 227.4336 -209.9578)">
		<stop  offset="0" style="stop-color:#FF9900"/>
		<stop  offset="1" style="stop-color:#FF8000"/>
	</linearGradient>
	<rect id="rect8206" x="88.913" y="-9.442" fill="url(#rect8206_1_)" width="17.909" height="10.479"/>
	
		<linearGradient id="rect8213_1_" gradientUnits="userSpaceOnUse" x1="-107.1841" y1="188.6909" x2="-90.7603" y2="188.6909" gradientTransform="matrix(1.0904 0 0 1.0904 227.4336 -209.9578)">
		<stop  offset="0" style="stop-color:#FF8000"/>
		<stop  offset="1" style="stop-color:#CC1953"/>
	</linearGradient>
	<rect id="rect8213" x="110.537" y="-9.442" fill="url(#rect8213_1_)" width="17.909" height="10.479"/>
	
		<linearGradient id="rect8220_1_" gradientUnits="userSpaceOnUse" x1="-87.3325" y1="188.6909" x2="-70.9087" y2="188.6909" gradientTransform="matrix(1.0904 0 0 1.0904 227.4336 -209.9578)">
		<stop  offset="0" style="stop-color:#CC1953"/>
		<stop  offset="1" style="stop-color:#241284"/>
	</linearGradient>
	<rect id="rect8220" x="132.203" y="-9.442" fill="url(#rect8220_1_)" width="17.909" height="10.479"/>
	
		<linearGradient id="rect8227_1_" gradientUnits="userSpaceOnUse" x1="-67.5015" y1="188.6909" x2="-51.0781" y2="188.6909" gradientTransform="matrix(1.0904 0 0 1.0904 227.4336 -209.9578)">
		<stop  offset="0" style="stop-color:#222B90"/>
		<stop  offset="1" style="stop-color:#3559A6"/>
	</linearGradient>
	<rect id="rect8227" x="153.827" y="-9.442" fill="url(#rect8227_1_)" width="17.909" height="10.479"/>
	
		<linearGradient id="rect8234_1_" gradientUnits="userSpaceOnUse" x1="-87.9805" y1="177.9579" x2="-70.2616" y2="172.7766" gradientTransform="matrix(1.0904 0 0 1.0904 227.4336 -209.9578)">
		<stop  offset="0" style="stop-color:#CC1953"/>
		<stop  offset="1" style="stop-color:#241284"/>
	</linearGradient>
	<rect id="rect8234" x="132.203" y="-23.97" fill="url(#rect8234_1_)" width="17.909" height="10.479"/>
	
		<linearGradient id="rect8241_1_" gradientUnits="userSpaceOnUse" x1="-107.7852" y1="172.1669" x2="-90.1944" y2="178.5695" gradientTransform="matrix(1.0904 0 0 1.0904 227.4336 -209.9578)">
		<stop  offset="0.0027" style="stop-color:#FFCC00"/>
		<stop  offset="0.9999" style="stop-color:#CE1938"/>
	</linearGradient>
	<rect id="rect8241" x="110.537" y="-23.97" fill="url(#rect8241_1_)" width="17.909" height="10.479"/>
	
		<linearGradient id="rect8248_1_" gradientUnits="userSpaceOnUse" x1="-105.8203" y1="155.7436" x2="-92.1605" y2="168.3484" gradientTransform="matrix(1.0904 0 0 1.0904 227.4336 -209.9578)">
		<stop  offset="0.0027" style="stop-color:#FFD100"/>
		<stop  offset="1" style="stop-color:#FD5A22"/>
	</linearGradient>
	<rect id="rect8248" x="110.537" y="-38.497" fill="url(#rect8248_1_)" width="17.909" height="10.479"/>
	<path id="path8250" inkscape:connector-curvature="0" d="M492.217-34.364c0,0.543,0,1.545,0,1.545h14.151c0,0,0-2.672,0-4.134
		c0-9.267-5.804-15.988-15.529-15.988c-6.263,0-10.688,3.047-12.983,8.099v-8.099h-14.61V1.036h14.61v-34.774
		c0-5.51,2.964-8.558,7.514-8.558C489.544-42.254,492.217-38.33,492.217-34.364z"/>
</g>
</svg>
