<?xml version="1.0" encoding="utf-8"?>
<!-- Generator: Adobe Illustrator 16.0.0, SVG Export Plug-In . SVG Version: 6.00 Build 0)  -->
<!DOCTYPE svg PUBLIC "-//W3C//DTD SVG 1.1//EN" "http://www.w3.org/Graphics/SVG/1.1/DTD/svg11.dtd">
<svg version="1.1" id="Layer_1" xmlns="http://www.w3.org/2000/svg" xmlns:xlink="http://www.w3.org/1999/xlink" x="0px" y="0px"
	 width="511.5px" height="106.5px" viewBox="0 0 511.5 106.5" enable-background="new 0 0 511.5 106.5" xml:space="preserve">
<g>
	<g>
		<path fill="#FAB908" d="M452.214,37.026v33.083h11.371V37.026H452.214z"/>
		<circle fill="#0066D9" cx="418.097" cy="50.466" r="5.707"/>
		<circle fill="#0066D9" cx="418.097" cy="56.669" r="5.707"/>
		<path fill="#0066D9" d="M412.432,50.466h11.372v6.203h-11.372V50.466z"/>
		<circle fill="#4285F4" cx="497.702" cy="56.669" r="5.707"/>
		<circle fill="#4285F4" cx="497.702" cy="50.466" r="5.707"/>
		<path fill="#4285F4" d="M492.036,50.466h11.373v6.203h-11.373V50.466L492.036,50.466z"/>
		<circle fill="#EA4335" cx="437.739" cy="69.074" r="5.707"/>
		<circle fill="#EA4335" cx="437.739" cy="75.277" r="5.707"/>
		<path fill="#EA4335" d="M432.033,69.074h11.372v6.203h-11.372V69.074z"/>
		<circle fill="#EA4335" cx="437.739" cy="31.857" r="5.707"/>
		<circle fill="#EA4335" cx="437.739" cy="52.037" r="5.707"/>
		<path fill="#EA4335" d="M432.033,31.857h11.372v20.305h-11.372V31.857z"/>
		<circle fill="#34A853" cx="478.06" cy="38.06" r="5.707"/>
		<circle fill="#34A853" cx="478.06" cy="31.857" r="5.707"/>
		<path fill="#34A853" d="M472.394,31.857h11.373v6.203h-11.373V31.857z"/>
		<circle fill="#FAB908" cx="457.921" cy="19.988" r="5.707"/>
		<circle fill="#FAB908" cx="457.921" cy="13.785" r="5.707"/>
		<path fill="#FAB908" d="M452.214,13.785h11.371v6.203h-11.371V13.785z"/>
		<circle fill="#FAB908" cx="457.921" cy="93.391" r="5.707"/>
		<circle fill="#FAB908" cx="457.921" cy="87.188" r="5.707"/>
		<path fill="#FAB908" d="M452.214,87.188h11.371v6.203h-11.371V87.188z"/>
		<circle fill="#34A853" cx="478.06" cy="75.277" r="5.707"/>
		<circle fill="#34A853" cx="478.06" cy="55.139" r="5.707"/>
		<path fill="#34A853" d="M472.394,55.139h11.373V75.32h-11.373V55.139z"/>
		<circle fill="#FAB908" cx="457.921" cy="37.026" r="5.707"/>
		<circle fill="#FAB908" cx="457.921" cy="70.109" r="5.707"/>
	</g>
	<g>
		<path fill="none" d="M8.074,23.834H394.77v59.508H8.074V23.834z"/>
		<path fill="#3C4043" d="M198.92,68.454h-4.838V30.575h12.902c3.184,0,5.955,1.075,8.312,3.226
			c2.357,2.108,3.516,4.797,3.516,8.063c0,3.226-1.158,5.914-3.516,8.064c-2.26,2.088-5.235,3.229-8.312,3.184h-8.064V68.454
			L198.92,68.454z M198.92,48.482h8.146c2.068,0,3.723-0.703,4.963-2.068c1.199-1.406,1.819-2.895,1.819-4.549
			c0-1.654-0.62-3.184-1.86-4.549c-1.241-1.406-2.896-2.067-4.922-2.067h-8.146V48.482z M222.864,45.669
			c2.48-2.646,5.665-3.97,9.552-3.97c3.888,0,7.072,1.323,9.595,3.929c2.48,2.646,3.722,5.913,3.722,9.883
			c0,3.929-1.241,7.237-3.722,9.843c-2.481,2.646-5.707,3.93-9.595,3.93c-3.887,0-7.029-1.282-9.552-3.93
			c-2.481-2.604-3.764-5.914-3.764-9.843c0-3.97,1.24-7.236,3.722-9.842H222.864L222.864,45.669z M226.462,62.335
			c3.104,3.288,8.285,3.438,11.574,0.334c0.115-0.106,0.227-0.22,0.335-0.334c1.654-1.737,2.481-4.013,2.481-6.824
			c0-2.812-0.827-5.086-2.481-6.822c-1.654-1.654-3.639-2.564-5.955-2.564c-2.274,0-4.259,0.868-5.954,2.564
			c-1.654,1.736-2.481,4.011-2.481,6.822C223.98,58.322,224.807,60.598,226.462,62.335L226.462,62.335z M260.413,69.281
			c-3.309,0-6.203-1.323-8.685-3.93c-2.445-2.684-3.75-6.213-3.639-9.842c0-3.928,1.24-7.195,3.639-9.842
			c3.467-4.068,9.292-5.186,14.019-2.688c1.571,0.826,2.729,1.902,3.516,3.143h0.207l-0.207-3.598V30.574h4.838v37.879h-4.631
			v-3.598h-0.207c-0.826,1.24-1.943,2.315-3.516,3.185C264.177,68.867,262.397,69.281,260.413,69.281L260.413,69.281z
			 M261.239,64.857c2.275,0,4.219-0.826,5.79-2.521c1.653-1.696,2.438-3.971,2.438-6.824c0-2.895-0.826-5.127-2.397-6.822
			c-1.654-1.696-3.558-2.564-5.872-2.564c-2.232,0-4.178,0.827-5.789,2.564c-1.654,1.695-2.481,3.969-2.481,6.781
			c0,2.854,0.827,5.129,2.481,6.823c1.611,1.694,3.557,2.563,5.789,2.563H261.239z M291.015,69.281c-3.889,0-7.072-1.281-9.596-3.93
			c-2.48-2.604-3.722-5.912-3.722-9.842c0-3.97,1.24-7.236,3.722-9.883c2.481-2.605,5.707-3.929,9.596-3.929
			c4.985-0.188,9.548,2.798,11.371,7.443l-4.467,1.86c-1.05-3.062-4.005-5.054-7.235-4.879c-2.15,0-4.054,0.91-5.707,2.646
			c-1.654,1.778-2.439,4.012-2.439,6.74c0,2.688,0.827,4.963,2.48,6.699c1.653,1.777,3.516,2.646,5.666,2.646
			c3.639,0,6.12-1.654,7.525-4.88l4.342,1.86C300.647,66.492,296.04,69.466,291.015,69.281L291.015,69.281z M314.089,69.281
			c-2.771,0-5.086-0.785-6.904-2.356c-1.84-1.56-2.86-3.877-2.771-6.286c0-2.813,1.075-5.045,3.268-6.616
			c2.363-1.674,5.21-2.529,8.104-2.439c2.854,0,5.169,0.537,7.029,1.57V52.41c0-1.902-0.661-3.391-1.984-4.549
			c-1.325-1.158-3.037-1.779-4.797-1.736c-1.406,0-2.688,0.33-3.846,1.033c-1.158,0.662-1.944,1.572-2.357,2.73l-4.425-1.902
			c0.579-1.531,1.778-2.979,3.557-4.301c1.736-1.324,4.054-1.985,6.947-1.985c3.308,0,6.079,0.951,8.271,2.895
			c2.19,1.944,3.309,4.673,3.309,8.188v15.672h-4.674v-3.598h-0.206c-1.847,2.912-5.117,4.604-8.562,4.426h0.041V69.281z
			 M314.875,64.857c1.985,0,3.806-0.744,5.459-2.232c1.654-1.53,2.48-3.309,2.48-5.335c-1.405-1.116-3.475-1.653-6.202-1.653
			c-2.357,0-4.136,0.496-5.376,1.488c-1.158,1.033-1.778,2.232-1.778,3.598c0,1.281,0.579,2.274,1.654,3.02
			c1.075,0.744,2.355,1.115,3.722,1.115H314.875L314.875,64.857z M341.672,69.281c-4.954,0.184-9.481-2.786-11.289-7.401
			l4.343-1.778c1.364,3.227,3.722,4.881,7.029,4.881c1.488,0,2.729-0.373,3.723-1.035c0.907-0.571,1.455-1.572,1.446-2.646
			c0-1.653-1.198-2.813-3.557-3.433l-5.21-1.24c-1.729-0.464-3.338-1.297-4.715-2.439c-1.462-1.138-2.292-2.905-2.232-4.755
			c0-2.316,1.033-4.136,3.061-5.583c2.113-1.453,4.631-2.206,7.194-2.15c2.316,0,4.344,0.538,6.162,1.571
			c1.778,1.033,3.062,2.48,3.847,4.467l-4.219,1.736c-0.95-2.274-2.937-3.433-5.914-3.433c-1.446,0-2.688,0.29-3.68,0.91
			c-0.951,0.579-1.447,1.405-1.447,2.398c0,1.489,1.116,2.481,3.433,3.019l5.128,1.24c2.397,0.538,4.218,1.53,5.376,2.895
			s1.737,2.896,1.737,4.674c0,2.314-0.951,4.26-2.854,5.789C347.131,68.538,344.69,69.281,341.672,69.281L341.672,69.281z
			 M366.484,68.867c-2.729,0-4.797-0.702-6.245-2.149c-1.522-1.678-2.298-3.899-2.149-6.162V46.993h-4.55v-4.466h4.55v-7.898h4.88
			v7.898h6.326v4.466h-6.326v13.233c0,2.813,1.157,4.217,3.474,4.217c0.91,0,1.654-0.164,2.232-0.412l1.654,4.135
			c-1.034,0.496-2.314,0.703-3.888,0.703h0.042V68.867z M383.48,69.281c-4.954,0.184-9.482-2.786-11.29-7.401l4.343-1.778
			c1.364,3.227,3.722,4.881,7.03,4.881c1.487,0,2.729-0.373,3.722-1.035c0.907-0.571,1.455-1.572,1.447-2.646
			c0-1.653-1.199-2.813-3.558-3.433l-5.211-1.24c-1.729-0.464-3.337-1.297-4.714-2.439c-1.462-1.138-2.292-2.905-2.232-4.755
			c0-2.316,1.033-4.136,3.061-5.583c2.114-1.453,4.631-2.206,7.195-2.15c2.314,0,4.342,0.538,6.162,1.571
			c1.777,1.033,3.06,2.48,3.846,4.467l-4.218,1.736c-0.951-2.274-2.938-3.433-5.914-3.433c-1.447,0-2.688,0.29-3.682,0.91
			c-0.991,0.579-1.446,1.405-1.446,2.398c0,1.489,1.116,2.481,3.433,3.019l5.128,1.24c2.398,0.538,4.218,1.53,5.376,2.895
			c1.157,1.365,1.736,2.896,1.736,4.674c0,2.314-0.951,4.26-2.854,5.789C388.938,68.538,386.499,69.281,383.48,69.281L383.48,69.281
			z M9.314,47.612c0-11.992,10.008-21.711,22-21.711c5.567-0.087,10.935,2.075,14.888,5.997l-4.219,4.136
			c-6.246-5.894-16.087-5.607-21.979,0.639c-2.767,2.934-4.286,6.826-4.238,10.857c0,8.725,6.823,15.756,15.549,15.756
			c4.104,0.172,8.088-1.406,10.959-4.343c1.654-1.654,2.812-4.137,3.226-7.443H31.314v-5.913h19.974
			c0.207,1.074,0.331,2.314,0.331,3.721c0.181,5.113-1.662,10.09-5.128,13.854c-3.96,4.1-9.482,6.311-15.177,6.078
			C19.299,69.265,9.496,59.627,9.314,47.612L9.314,47.612z M67.499,41.616c7.604-0.138,13.88,5.916,14.018,13.52
			c0.002,0.14,0.003,0.277,0.001,0.416c0.115,7.604-5.955,13.863-13.56,13.979c-0.153,0.002-0.307,0.002-0.459,0
			c-7.604,0.115-13.862-5.957-13.978-13.562c-0.002-0.14-0.002-0.278,0-0.418c-0.115-7.581,5.938-13.82,13.519-13.936
			C67.193,41.613,67.345,41.614,67.499,41.616z M67.499,63.988c4.218,0,7.898-3.475,7.898-8.479c0-5.045-3.681-8.477-7.857-8.477
			c-4.301,0-7.898,3.432-7.898,8.477C59.641,60.515,63.281,63.988,67.499,63.988z M98.1,41.616
			c7.604-0.115,13.862,5.957,13.977,13.562c0.002,0.125,0.002,0.25,0.001,0.374c0.115,7.604-5.957,13.863-13.561,13.979
			c-0.14,0.002-0.278,0.002-0.417,0c-7.604,0.138-13.881-5.916-14.019-13.521c-0.003-0.151-0.003-0.306,0-0.459
			c-0.116-7.581,5.936-13.82,13.518-13.938C97.766,41.612,97.933,41.612,98.1,41.616z M98.1,63.988c4.218,0,7.857-3.475,7.857-8.479
			c0-5.045-3.599-8.477-7.857-8.477c-4.26,0-7.898,3.432-7.898,8.477c0,5.004,3.681,8.479,7.856,8.479H98.1z M135.608,42.071h5.872
			v25.061c0,10.338-6.079,14.558-13.274,14.558c-5.437,0.032-10.347-3.24-12.406-8.271l5.376-2.232
			c0.909,2.273,3.226,4.963,6.988,4.963c4.549,0,7.443-2.896,7.443-8.188v-2.024h-0.206c-1.864,2.094-4.558,3.26-7.361,3.184
			c-7.505-0.246-13.447-6.428-13.398-13.936c0-7.857,6.41-14.021,13.398-14.021c3.309,0,5.996,1.489,7.361,3.143h0.206
			L135.608,42.071L135.608,42.071z M128.578,63.615c4.135,0,7.443-3.516,7.443-8.436c0-4.922-3.309-8.479-7.443-8.479
			c-4.219,0-7.774,3.557-7.774,8.479C120.804,60.061,124.359,63.615,128.578,63.615z M145.657,68.579V27.556h6.078v41.023H145.657z
			 M168.567,64.029c3.143,0,5.293-1.571,6.905-3.887l4.756,3.184c-2.604,3.891-6.981,6.22-11.661,6.203
			c-7.537,0.095-13.723-5.939-13.815-13.477c-0.003-0.167-0.001-0.334,0.003-0.502c0-8.27,5.996-13.936,13.232-13.936
			c7.196,0,10.752,5.707,11.91,8.85l0.62,1.572l-18.691,7.732c1.447,2.771,3.64,4.217,6.782,4.217L168.567,64.029z M168.153,46.951
			c-3.184,0-7.526,2.771-7.361,8.146l12.489-5.169c-0.662-1.737-2.729-2.937-5.169-2.937L168.153,46.951z"/>
	</g>
</g>
</svg>
