<?xml version="1.0" encoding="utf-8"?>
<!-- Generator: Adobe Illustrator 16.0.0, SVG Export Plug-In . SVG Version: 6.00 Build 0)  -->
<!DOCTYPE svg PUBLIC "-//W3C//DTD SVG 1.1//EN" "http://www.w3.org/Graphics/SVG/1.1/DTD/svg11.dtd">
<svg version="1.1" id="Capa_1" xmlns="http://www.w3.org/2000/svg" xmlns:xlink="http://www.w3.org/1999/xlink" x="0px" y="0px"
	 width="22.705px" height="22.701px" viewBox="0 0 22.705 22.701" enable-background="new 0 0 22.705 22.701" xml:space="preserve">
<g>
	<g>
		<g>
			<path fill="#7EB326" d="M7.138,14.77c0.105,0.688,0.166,1.349,0.195,1.968c0.066,1.452-0.042,2.674-0.162,3.511
				c-0.098,0.584-0.426,1.203,0.284,1.337c0.526,0.104,0.985-0.332,1.096-0.999c0.052-0.344,0.104-0.752,0.144-1.216
				c0.404-0.338,1.188-0.943,2.238-1.509c0.053-0.028,0.111-0.055,0.166-0.086c1.264,2.154,4.137,2.182,5.883,1.567
				c2.816-0.995,5.25-3.939,5.25-3.939c-0.504-0.503-4.801-3.086-8.851-2.288c-1.792,0.353-2.737,1.523-2.776,2.853
				c0.9-0.48,4.388-2.113,8.065-0.884c0,0-3.673-0.614-7.069,1.333c-0.015,0.009-0.027,0.015-0.041,0.022
				c-0.453,0.193-0.875,0.403-1.26,0.615c-0.609,0.337-1.126,0.681-1.539,0.98c0.01-0.429,0.006-0.884-0.017-1.365
				c-0.029-0.654-0.095-1.353-0.203-2.085c0.008-0.002,0.019-0.004,0.028-0.005c-0.051-0.327-0.103-0.702-0.155-1.14
				C7.767,8.227,4.531,4.518,4.531,4.518c4.779,3.802,4.945,8.699,4.925,9.748c2.254-1.007,3.315-3.361,1.946-5.962
				C8.826,3.41,2.094,1.187,1.074,1.101c0,0-1.323,5.076-0.043,8.858C1.763,12.124,3.972,14.805,7.138,14.77z"/>
		</g>
	</g>
</g>
</svg>
