<?xml version="1.0" encoding="utf-8"?>
<!-- Generator: Adobe Illustrator 16.0.0, SVG Export Plug-In . SVG Version: 6.00 Build 0)  -->
<!DOCTYPE svg PUBLIC "-//W3C//DTD SVG 1.1//EN" "http://www.w3.org/Graphics/SVG/1.1/DTD/svg11.dtd">
<svg version="1.1" id="Capa_3" xmlns="http://www.w3.org/2000/svg" xmlns:xlink="http://www.w3.org/1999/xlink" x="0px" y="0px"
	 width="511.5px" height="106.5px" viewBox="0 0 511.5 106.5" enable-background="new 0 0 511.5 106.5" xml:space="preserve">
<path fill="#1ED760" d="M138.705,3.568c-27.863,0-50.452,22.588-50.452,50.452c0,27.863,22.588,50.449,50.452,50.449
	c27.866,0,50.452-22.586,50.452-50.449c0-27.862-22.586-50.449-50.453-50.449L138.705,3.568z M161.841,76.332
	c-0.903,1.482-2.843,1.952-4.325,1.043c-11.846-7.235-26.758-8.875-44.319-4.862c-1.692,0.386-3.379-0.674-3.765-2.367
	c-0.387-1.693,0.669-3.38,2.365-3.766c19.218-4.391,35.704-2.5,49.002,5.627C162.281,72.916,162.751,74.851,161.841,76.332z
	 M168.016,62.596c-1.139,1.851-3.561,2.435-5.41,1.296c-13.561-8.336-34.233-10.75-50.273-5.88c-2.08,0.628-4.277-0.545-4.909-2.621
	c-0.626-2.081,0.546-4.273,2.623-4.906c18.322-5.559,41.101-2.866,56.674,6.704C168.57,58.327,169.155,60.748,168.016,62.596
	L168.016,62.596z M168.546,48.291c-16.26-9.658-43.088-10.546-58.612-5.834c-2.493,0.756-5.129-0.651-5.885-3.145
	c-0.755-2.494,0.651-5.128,3.146-5.886c17.821-5.41,47.447-4.365,66.167,6.749c2.247,1.331,2.982,4.227,1.651,6.466
	c-1.326,2.242-4.229,2.981-6.464,1.65H168.546z M225.514,50.141c-8.711-2.077-10.259-3.535-10.259-6.599
	c0-2.894,2.723-4.842,6.777-4.842c3.928,0,7.82,1.479,11.904,4.524c0.121,0.092,0.277,0.129,0.428,0.104
	c0.157-0.023,0.289-0.106,0.38-0.232l4.253-5.996c0.174-0.247,0.126-0.587-0.109-0.776c-4.861-3.9-10.332-5.795-16.73-5.795
	c-9.404,0-15.977,5.644-15.977,13.72c0,8.66,5.669,11.727,15.465,14.094c8.332,1.92,9.742,3.528,9.742,6.403
	c0,3.188-2.843,5.169-7.422,5.169c-5.085,0-9.236-1.717-13.875-5.729c-0.115-0.103-0.271-0.144-0.416-0.138
	c-0.157,0.012-0.295,0.084-0.392,0.198l-4.771,5.675c-0.199,0.241-0.175,0.591,0.054,0.795c5.398,4.82,12.037,7.363,19.207,7.363
	c10.133,0,16.682-5.537,16.682-14.11c0.018-7.233-4.314-11.24-14.923-13.82L225.514,50.141z M263.385,41.55
	c-4.392,0-7.995,1.73-10.971,5.276v-3.991c0-0.315-0.253-0.572-0.566-0.572h-7.802c-0.313,0-0.566,0.257-0.566,0.572v44.341
	c0,0.313,0.253,0.572,0.566,0.572h7.802c0.313,0,0.566-0.259,0.566-0.572V73.182c2.976,3.332,6.579,4.964,10.971,4.964
	c8.163,0,16.429-6.283,16.429-18.296c0.013-12.015-8.254-18.3-16.423-18.3L263.385,41.55L263.385,41.55z M270.741,59.85
	c0,6.115-3.766,10.387-9.164,10.387c-5.332,0-9.356-4.465-9.356-10.387s4.024-10.385,9.356-10.385
	C266.885,49.464,270.741,53.831,270.741,59.85L270.741,59.85z M300.99,41.55c-10.514,0-18.749,8.094-18.749,18.43
	c0,10.225,8.182,18.231,18.622,18.231c10.549,0,18.809-8.066,18.809-18.362c0-10.26-8.205-18.298-18.682-18.298V41.55z
	 M300.99,70.296c-5.591,0-9.809-4.494-9.809-10.449c0-5.981,4.072-10.322,9.682-10.322c5.627,0,9.868,4.492,9.868,10.453
	C310.731,65.958,306.635,70.296,300.99,70.296z M342.119,42.264h-8.585v-8.775c0-0.314-0.253-0.571-0.565-0.571h-7.803
	c-0.313,0-0.572,0.256-0.572,0.571v8.775h-3.747c-0.313,0-0.566,0.257-0.566,0.572v6.704c0,0.314,0.253,0.572,0.566,0.572h3.747
	v17.347c0,7.007,3.488,10.562,10.374,10.562c2.796,0,5.115-0.579,7.302-1.819c0.181-0.097,0.29-0.289,0.29-0.494V69.32
	c0-0.192-0.103-0.38-0.271-0.482c-0.169-0.108-0.38-0.114-0.554-0.024c-1.501,0.754-2.953,1.103-4.579,1.103
	c-2.5,0-3.621-1.138-3.621-3.681V50.114h8.585c0.313,0,0.566-0.257,0.566-0.572v-6.703c0.012-0.315-0.241-0.571-0.56-0.571
	L342.119,42.264L342.119,42.264z M372.025,42.298V41.22c0-3.17,1.217-4.584,3.94-4.584c1.626,0,2.934,0.323,4.397,0.811
	c0.181,0.057,0.367,0.028,0.512-0.08c0.15-0.107,0.235-0.281,0.235-0.464v-6.572c0-0.251-0.157-0.474-0.403-0.548
	c-1.543-0.46-3.519-0.932-6.482-0.932c-7.2,0-11.013,4.057-11.013,11.728v1.651h-3.748c-0.313,0-0.572,0.256-0.572,0.571v6.738
	c0,0.314,0.26,0.572,0.572,0.572h3.748v26.752c0,0.318,0.259,0.571,0.571,0.571h7.796c0.32,0,0.573-0.253,0.573-0.571V50.112h7.283
	l11.157,26.751c-1.265,2.808-2.513,3.367-4.211,3.367c-1.374,0-2.825-0.409-4.302-1.223c-0.139-0.073-0.307-0.085-0.452-0.043
	c-0.15,0.055-0.276,0.163-0.337,0.308l-2.645,5.801c-0.127,0.278-0.018,0.597,0.247,0.742c2.759,1.494,5.247,2.132,8.325,2.132
	c5.76,0,8.946-2.687,11.748-9.904l13.531-34.964c0.072-0.176,0.049-0.375-0.06-0.531c-0.103-0.155-0.277-0.248-0.465-0.248h-8.12
	c-0.247,0-0.465,0.155-0.543,0.383l-8.319,23.757l-9.109-23.773c-0.085-0.221-0.295-0.367-0.53-0.367h-13.326V42.298L372.025,42.298
	z M354.687,42.264h-7.802c-0.313,0-0.572,0.257-0.572,0.572v34.028c0,0.318,0.26,0.571,0.572,0.571h7.802
	c0.313,0,0.572-0.253,0.572-0.571V42.838c0-0.315-0.253-0.572-0.572-0.572V42.264z M350.831,26.769
	c-3.091,0-5.597,2.501-5.597,5.591c0,3.092,2.506,5.596,5.597,5.596s5.591-2.504,5.591-5.596
	C356.422,29.271,353.915,26.769,350.831,26.769z M419.161,53.205c-3.084,0-5.488-2.479-5.488-5.489s2.435-5.518,5.519-5.518
	s5.488,2.479,5.488,5.487C424.68,50.694,422.246,53.205,419.161,53.205L419.161,53.205z M419.191,42.743
	c-2.813,0-4.939,2.235-4.939,4.972c0,2.736,2.114,4.94,4.909,4.94c2.813,0,4.94-2.233,4.94-4.972
	C424.102,44.948,421.987,42.743,419.191,42.743z M420.408,48.249l1.555,2.173h-1.313l-1.397-1.994h-1.199v1.994h-1.096V44.66h2.566
	c1.343,0,2.223,0.685,2.223,1.838c0.006,0.944-0.542,1.521-1.332,1.75H420.408z M419.48,45.649h-1.428v1.822h1.428
	c0.711,0,1.139-0.349,1.139-0.912C420.619,45.966,420.191,45.649,419.48,45.649z"/>
</svg>
