<?xml version="1.0" encoding="utf-8"?>
<!-- Generator: Adobe Illustrator 16.0.0, SVG Export Plug-In . SVG Version: 6.00 Build 0)  -->
<!DOCTYPE svg PUBLIC "-//W3C//DTD SVG 1.1//EN" "http://www.w3.org/Graphics/SVG/1.1/DTD/svg11.dtd">
<svg version="1.1" id="Capa_1" xmlns="http://www.w3.org/2000/svg" xmlns:xlink="http://www.w3.org/1999/xlink" x="0px" y="0px"
	 width="186px" height="48.395px" viewBox="0 0 186 48.395" enable-background="new 0 0 186 48.395" xml:space="preserve">
<g>
	<path fill="#222220" d="M20.305,30.508H9.557v6.933h12.006v5.419H2.924V13.648h18.031v5.418H9.556v6.068h10.748L20.305,30.508
		L20.305,30.508z"/>
	<path fill="#222220" d="M23.423,12.09h6.588v30.77h-6.588V12.09z"/>
	<path fill="#222220" d="M64.122,27.953c0,9.577-5.808,15.385-14.348,15.385c-8.668,0-13.739-6.545-13.739-14.865
		c0-8.755,5.592-15.299,14.217-15.299C59.223,13.172,64.122,19.89,64.122,27.953z M43.013,28.345c0,5.72,2.687,9.749,7.107,9.749
		c4.464,0,7.022-4.248,7.022-9.923c0-5.245-2.514-9.752-7.066-9.752C45.612,18.416,43.013,22.665,43.013,28.345z"/>
	<path fill="#222220" d="M65.808,28.647c0-3.123-0.086-5.158-0.172-6.979h5.678l0.216,3.9h0.173
		c1.083-3.077,3.684-4.378,5.721-4.378c0.608,0,0.911,0,1.387,0.088v6.198c-0.477-0.087-1.039-0.174-1.777-0.174
		c-2.427,0-4.074,1.304-4.507,3.337c-0.087,0.435-0.13,0.955-0.13,1.475V42.86h-6.588V28.647L65.808,28.647z"/>
	<path fill="#222220" d="M87.349,15.774c0,1.821-1.387,3.294-3.554,3.294c-2.08,0-3.469-1.474-3.425-3.294
		c-0.044-1.906,1.345-3.336,3.468-3.336C85.961,12.438,87.304,13.868,87.349,15.774z M80.543,42.86v-21.19h6.589v21.193
		L80.543,42.86L80.543,42.86z"/>
	<path fill="#222220" d="M94.891,34.365c0.216,2.73,2.903,4.028,5.979,4.028c2.255,0,4.074-0.303,5.851-0.863l0.868,4.46
		c-2.167,0.868-4.812,1.304-7.671,1.304c-7.199,0-11.313-4.164-11.313-10.793c0-5.372,3.336-11.312,10.707-11.312
		c6.849,0,9.447,5.332,9.447,10.577c0,1.125-0.128,2.121-0.217,2.599H94.891L94.891,34.365z M102.647,29.861
		c0-1.601-0.693-4.292-3.728-4.292c-2.773,0-3.901,2.515-4.074,4.292H102.647z"/>
	<path fill="#222220" d="M110.1,28.43c0-2.643-0.085-4.896-0.173-6.761h5.722l0.305,2.903h0.129
		c0.867-1.345,3.034-3.381,6.544-3.381c4.337,0,7.587,2.861,7.587,9.103V42.86h-6.59V31.117c0-2.731-0.954-4.596-3.338-4.596
		c-1.82,0-2.904,1.257-3.338,2.472c-0.173,0.391-0.259,1.04-0.259,1.646V42.86H110.1V28.43L110.1,28.43z"/>
	<path fill="#222220" d="M140.005,15.599v6.068h4.722v4.855h-4.722v7.67c0,2.555,0.604,3.726,2.598,3.726
		c0.823,0,1.474-0.087,1.951-0.173l0.041,4.985c-0.866,0.347-2.428,0.564-4.292,0.564c-2.123,0-3.902-0.736-4.941-1.82
		c-1.213-1.259-1.82-3.296-1.82-6.285v-8.667h-2.818v-4.855h2.818v-4.593L140.005,15.599z"/>
	<path fill="#222220" d="M150.795,34.365c0.22,2.73,2.904,4.028,5.983,4.028c2.253,0,4.073-0.303,5.85-0.863l0.866,4.46
		c-2.167,0.868-4.813,1.304-7.672,1.304c-7.196,0-11.311-4.164-11.311-10.793c0-5.372,3.338-11.312,10.706-11.312
		c6.848,0,9.45,5.332,9.45,10.577c0,1.125-0.132,2.121-0.22,2.599H150.795L150.795,34.365z M158.554,29.861
		c0-1.601-0.695-4.292-3.728-4.292c-2.774,0-3.901,2.515-4.072,4.292H158.554z"/>
</g>
<g>
	<g>
		<g>
			<path fill="#7EB326" d="M167.246,19.836c0.124,0.813,0.196,1.595,0.23,2.327c0.079,1.718-0.05,3.163-0.191,4.152
				c-0.115,0.691-0.504,1.423,0.336,1.582c0.623,0.123,1.166-0.394,1.296-1.182c0.062-0.407,0.124-0.89,0.17-1.438
				c0.479-0.399,1.406-1.115,2.647-1.785c0.063-0.034,0.132-0.064,0.196-0.102c1.495,2.548,4.893,2.581,6.958,1.854
				c3.331-1.177,6.21-4.66,6.21-4.66c-0.596-0.595-5.679-3.65-10.469-2.707c-2.119,0.418-3.237,1.802-3.283,3.375
				c1.064-0.568,5.19-2.5,9.539-1.047c0,0-4.344-0.725-8.361,1.577c-0.018,0.012-0.031,0.019-0.049,0.027
				c-0.535,0.229-1.034,0.477-1.489,0.728c-0.722,0.398-1.332,0.805-1.821,1.159c0.012-0.507,0.008-1.045-0.02-1.615
				c-0.034-0.773-0.111-1.6-0.24-2.466c0.01-0.002,0.022-0.004,0.034-0.006c-0.061-0.387-0.123-0.831-0.184-1.348
				c-0.767-6.167-4.594-10.554-4.594-10.554c5.652,4.497,5.849,10.29,5.825,11.53c2.665-1.191,3.921-3.976,2.302-7.052
				c-3.047-5.79-11.011-8.418-12.216-8.52c0,0-1.565,6.004-0.051,10.477C160.889,16.707,163.501,19.878,167.246,19.836z"/>
		</g>
	</g>
</g>
</svg>
