<?xml version="1.0" encoding="utf-8"?>
<!-- Generator: Adobe Illustrator 16.0.0, SVG Export Plug-In . SVG Version: 6.00 Build 0)  -->
<!DOCTYPE svg PUBLIC "-//W3C//DTD SVG 1.1//EN" "http://www.w3.org/Graphics/SVG/1.1/DTD/svg11.dtd">
<svg version="1.1" id="Capa_1" xmlns="http://www.w3.org/2000/svg" xmlns:xlink="http://www.w3.org/1999/xlink" x="0px" y="0px"
	 width="186px" height="42.25px" viewBox="0 0 186 42.25" enable-background="new 0 0 186 42.25" xml:space="preserve">
<g>
	<path fill="#FFFFFF" d="M19.933,27.691H9.137v6.966h12.059V40.1H2.476V10.758h18.11v5.441H9.137v6.096h10.796V27.691z"/>
	<path fill="#FFFFFF" d="M23.065,9.191h6.617V40.1h-6.617V9.191z"/>
	<path fill="#FFFFFF" d="M63.941,25.125c0,9.62-5.833,15.454-14.41,15.454c-8.707,0-13.8-6.574-13.8-14.933
		c0-8.792,5.616-15.366,14.279-15.366C59.022,10.279,63.941,17.026,63.941,25.125z M42.741,25.518c0,5.746,2.699,9.795,7.139,9.795
		c4.484,0,7.053-4.267,7.053-9.97c0-5.269-2.525-9.795-7.096-9.795C45.352,15.546,42.741,19.813,42.741,25.518z"/>
	<path fill="#FFFFFF" d="M65.636,25.82c0-3.135-0.087-5.181-0.174-7.009h5.703l0.218,3.917h0.174c1.088-3.09,3.7-4.396,5.746-4.396
		c0.61,0,0.915,0,1.393,0.087v6.226c-0.479-0.086-1.044-0.174-1.785-0.174c-2.438,0-4.092,1.307-4.527,3.353
		c-0.087,0.436-0.131,0.958-0.131,1.479V40.1h-6.617V25.82z"/>
	<path fill="#FFFFFF" d="M87.271,12.892c0,1.829-1.394,3.309-3.57,3.309c-2.089,0-3.482-1.48-3.439-3.309
		c-0.043-1.916,1.35-3.352,3.482-3.352C85.877,9.54,87.226,10.976,87.271,12.892z M80.435,40.1V18.813h6.617v21.289L80.435,40.1
		L80.435,40.1z"/>
	<path fill="#FFFFFF" d="M94.846,31.566c0.217,2.742,2.916,4.049,6.006,4.049c2.265,0,4.092-0.305,5.877-0.87l0.871,4.483
		c-2.178,0.871-4.832,1.306-7.705,1.306c-7.229,0-11.362-4.179-11.362-10.841c0-5.396,3.353-11.361,10.753-11.361
		c6.878,0,9.49,5.354,9.49,10.622c0,1.133-0.131,2.133-0.219,2.612H94.846z M102.637,27.04c0-1.61-0.697-4.312-3.744-4.312
		c-2.785,0-3.918,2.525-4.093,4.312H102.637z"/>
	<path fill="#FFFFFF" d="M110.122,25.604c0-2.655-0.087-4.918-0.174-6.791h5.747L116,21.729h0.13
		c0.871-1.351,3.047-3.396,6.574-3.396c4.354,0,7.618,2.874,7.618,9.142V40.1h-6.618V28.302c0-2.741-0.958-4.614-3.353-4.614
		c-1.828,0-2.918,1.264-3.353,2.481c-0.174,0.392-0.261,1.045-0.261,1.653v12.275h-6.617L110.122,25.604L110.122,25.604z"/>
	<path fill="#FFFFFF" d="M140.158,12.717v6.095h4.744v4.875h-4.744v7.705c0,2.568,0.607,3.744,2.611,3.744
		c0.826,0,1.479-0.088,1.959-0.174l0.043,5.006c-0.871,0.348-2.438,0.566-4.311,0.566c-2.133,0-3.918-0.74-4.963-1.83
		c-1.219-1.264-1.828-3.309-1.828-6.313v-8.707h-2.83V18.81h2.83v-4.614L140.158,12.717z"/>
	<path fill="#FFFFFF" d="M150.996,31.566c0.218,2.742,2.917,4.049,6.007,4.049c2.265,0,4.093-0.305,5.877-0.87l0.871,4.483
		c-2.177,0.871-4.833,1.306-7.706,1.306c-7.229,0-11.361-4.179-11.361-10.841c0-5.396,3.353-11.361,10.754-11.361
		c6.877,0,9.49,5.354,9.49,10.622c0,1.133-0.133,2.133-0.22,2.612H150.996z M158.788,27.04c0-1.61-0.697-4.312-3.744-4.312
		c-2.785,0-3.918,2.525-4.092,4.312H158.788z"/>
</g>
<g>
	<g>
		<g>
			<path fill="#7EB326" d="M167.52,16.972c0.125,0.818,0.196,1.602,0.23,2.338c0.081,1.725-0.049,3.176-0.191,4.17
				c-0.115,0.694-0.506,1.43,0.338,1.588c0.625,0.123,1.172-0.394,1.302-1.187c0.061-0.409,0.122-0.894,0.17-1.444
				c0.479-0.401,1.409-1.122,2.657-1.792c0.063-0.033,0.135-0.066,0.199-0.102c1.5,2.559,4.914,2.592,6.987,1.861
				c3.347-1.182,6.237-4.679,6.237-4.679c-0.598-0.598-5.703-3.667-10.514-2.718c-2.129,0.418-3.254,1.809-3.299,3.387
				c1.07-0.57,5.213-2.51,9.582-1.049c0,0-4.363-0.729-8.398,1.584c-0.019,0.01-0.032,0.017-0.049,0.027
				c-0.537,0.229-1.039,0.479-1.496,0.731c-0.724,0.4-1.338,0.809-1.827,1.166c0.011-0.51,0.006-1.051-0.021-1.621
				c-0.034-0.778-0.112-1.608-0.241-2.477c0.01-0.003,0.021-0.005,0.035-0.007c-0.061-0.388-0.121-0.833-0.186-1.354
				c-0.77-6.194-4.614-10.6-4.614-10.6c5.679,4.517,5.876,10.334,5.851,11.58c2.679-1.197,3.94-3.993,2.313-7.083
				c-3.062-5.813-11.058-8.455-12.271-8.557c0,0-1.572,6.03-0.051,10.524C161.133,13.829,163.756,17.013,167.52,16.972z"/>
		</g>
	</g>
</g>
</svg>
