<?xml version="1.0" encoding="utf-8"?>
<!-- Generator: Adobe Illustrator 16.0.0, SVG Export Plug-In . SVG Version: 6.00 Build 0)  -->
<!DOCTYPE svg PUBLIC "-//W3C//DTD SVG 1.1//EN" "http://www.w3.org/Graphics/SVG/1.1/DTD/svg11.dtd">
<svg version="1.1" id="Capa_1" xmlns="http://www.w3.org/2000/svg" xmlns:xlink="http://www.w3.org/1999/xlink" x="0px" y="0px"
	 width="841.89px" height="595.281px" viewBox="0 0 841.89 595.281" enable-background="new 0 0 841.89 595.281"
	 xml:space="preserve">
<g>
	<g>
		<path fill="#FFFFFF" d="M420.945,238.112c-49.319,0-89.292,39.991-89.292,89.292c0,49.318,39.973,89.293,89.292,89.293
			c49.307,0,89.293-39.975,89.293-89.293C510.238,278.103,470.251,238.112,420.945,238.112z M659.056,148.82h-71.434
			c-9.822,0-20.406-7.62-23.506-16.942L545.65,76.464c-3.113-9.316-13.686-16.936-23.508-16.936H319.747
			c-9.822,0-20.406,7.62-23.507,16.942l-18.466,55.415c-3.113,9.316-13.686,16.936-23.508,16.936h-71.434
			c-32.74,0-59.528,26.787-59.528,59.528v267.876c0,32.74,26.788,59.527,59.528,59.527h476.224
			c32.742,0,59.529-26.787,59.529-59.527V208.348C718.585,175.607,691.798,148.82,659.056,148.82z M420.945,476.224
			c-82.19,0-148.82-66.629-148.82-148.82c0-82.184,66.629-148.82,148.82-148.82c82.178,0,148.82,66.636,148.82,148.82
			C569.765,409.595,503.123,476.224,420.945,476.224z M638.222,249.976c-11.5,0-20.834-9.322-20.834-20.835
			c0-11.5,9.334-20.834,20.834-20.834c11.512,0,20.834,9.334,20.834,20.834C659.056,240.654,649.728,249.976,638.222,249.976z"/>
	</g>
</g>
</svg>
