<?xml version="1.0" encoding="utf-8"?>
<!-- Generator: Adobe Illustrator 16.0.0, SVG Export Plug-In . SVG Version: 6.00 Build 0)  -->
<!DOCTYPE svg PUBLIC "-//W3C//DTD SVG 1.1//EN" "http://www.w3.org/Graphics/SVG/1.1/DTD/svg11.dtd">
<svg version="1.1" xmlns="http://www.w3.org/2000/svg" xmlns:xlink="http://www.w3.org/1999/xlink" x="0px" y="0px" width="624px"
	 height="624.001px" viewBox="0 0 624 624.001" enable-background="new 0 0 624 624.001" xml:space="preserve">
<g id="comp_x5F_Ecuador">
	<g>
		<g>
			<circle cx="222.302" cy="11.25" r="2.612"/>
			<circle cx="232.855" cy="11.25" r="2.612"/>
			<circle cx="243.408" cy="11.25" r="2.612"/>
			<circle cx="253.96" cy="11.25" r="2.612"/>
			<circle cx="222.302" cy="21.802" r="2.612"/>
			<circle cx="232.855" cy="21.802" r="2.612"/>
			<circle cx="243.408" cy="21.802" r="2.612"/>
			<circle cx="253.96" cy="21.802" r="2.612"/>
			<circle cx="222.302" cy="32.355" r="2.612"/>
			<circle cx="232.855" cy="32.355" r="2.612"/>
			<circle cx="243.408" cy="32.355" r="2.612"/>
			<circle cx="253.96" cy="32.355" r="2.612"/>
			<circle cx="264.513" cy="32.355" r="2.612"/>
			<circle cx="275.065" cy="32.355" r="2.612"/>
			<circle cx="180.092" cy="42.907" r="2.611"/>
			<circle cx="190.644" cy="42.907" r="2.611"/>
			<circle cx="201.197" cy="42.907" r="2.611"/>
			<circle cx="211.75" cy="42.907" r="2.611"/>
			<circle cx="222.302" cy="42.907" r="2.611"/>
			<circle cx="232.855" cy="42.907" r="2.611"/>
			<circle cx="243.408" cy="42.907" r="2.611"/>
			<circle cx="253.96" cy="42.907" r="2.611"/>
			<circle cx="264.513" cy="42.907" r="2.611"/>
			<circle cx="275.065" cy="42.907" r="2.611"/>
			<circle cx="285.618" cy="42.907" r="2.611"/>
			<circle cx="296.171" cy="42.907" r="2.611"/>
			<circle cx="158.986" cy="53.46" r="2.611"/>
			<circle cx="169.539" cy="53.46" r="2.611"/>
			<circle cx="180.092" cy="53.46" r="2.611"/>
			<circle cx="190.644" cy="53.46" r="2.611"/>
			<circle cx="201.197" cy="53.46" r="2.611"/>
			<circle cx="211.75" cy="53.46" r="2.611"/>
			<circle cx="222.302" cy="53.46" r="2.611"/>
			<circle cx="232.855" cy="53.46" r="2.611"/>
			<circle cx="243.408" cy="53.46" r="2.611"/>
			<circle cx="253.96" cy="53.46" r="2.611"/>
			<circle cx="264.513" cy="53.46" r="2.611"/>
			<circle cx="275.065" cy="53.46" r="2.611"/>
			<circle cx="285.618" cy="53.46" r="2.611"/>
			<circle cx="296.171" cy="53.46" r="2.611"/>
			<circle cx="306.724" cy="53.46" r="2.611"/>
			<circle cx="148.434" cy="64.013" r="2.611"/>
			<circle cx="158.986" cy="64.013" r="2.611"/>
			<circle cx="169.539" cy="64.013" r="2.611"/>
			<circle cx="180.092" cy="64.013" r="2.611"/>
			<circle cx="190.644" cy="64.013" r="2.611"/>
			<circle cx="201.197" cy="64.013" r="2.611"/>
			<circle cx="211.75" cy="64.013" r="2.611"/>
			<circle cx="222.302" cy="64.013" r="2.611"/>
			<circle cx="232.855" cy="64.013" r="2.611"/>
			<circle cx="243.408" cy="64.013" r="2.611"/>
			<circle cx="253.96" cy="64.013" r="2.611"/>
			<circle cx="264.513" cy="64.013" r="2.611"/>
			<circle cx="275.065" cy="64.013" r="2.611"/>
			<circle cx="285.618" cy="64.013" r="2.611"/>
			<circle cx="296.171" cy="64.013" r="2.611"/>
			<circle cx="306.724" cy="64.013" r="2.611"/>
			<circle cx="317.276" cy="64.013" r="2.611"/>
			<circle cx="327.829" cy="64.013" r="2.611"/>
			<circle cx="95.67" cy="74.565" r="2.611"/>
			<circle cx="106.223" cy="74.565" r="2.611"/>
			<circle cx="116.776" cy="74.565" r="2.611"/>
			<circle cx="127.328" cy="74.565" r="2.611"/>
			<circle cx="137.881" cy="74.565" r="2.611"/>
			<circle cx="148.434" cy="74.565" r="2.611"/>
			<circle cx="158.986" cy="74.565" r="2.611"/>
			<circle cx="169.539" cy="74.565" r="2.611"/>
			<circle cx="180.092" cy="74.565" r="2.611"/>
			<circle cx="190.644" cy="74.565" r="2.611"/>
			<circle cx="201.197" cy="74.565" r="2.611"/>
			<circle cx="211.75" cy="74.565" r="2.611"/>
			<circle cx="222.302" cy="74.565" r="2.611"/>
			<circle cx="232.855" cy="74.565" r="2.611"/>
			<circle cx="243.408" cy="74.565" r="2.611"/>
			<circle cx="253.96" cy="74.565" r="2.611"/>
			<circle cx="264.513" cy="74.565" r="2.611"/>
			<circle cx="275.065" cy="74.565" r="2.611"/>
			<circle cx="285.618" cy="74.565" r="2.611"/>
			<circle cx="296.171" cy="74.565" r="2.611"/>
			<circle cx="306.724" cy="74.565" r="2.611"/>
			<circle cx="317.276" cy="74.565" r="2.611"/>
			<circle cx="327.829" cy="74.565" r="2.611"/>
			<circle cx="338.382" cy="74.565" r="2.611"/>
			<circle cx="348.935" cy="74.565" r="2.611"/>
			<circle cx="359.488" cy="74.565" r="2.611"/>
			<circle cx="95.67" cy="85.118" r="2.611"/>
			<circle cx="106.223" cy="85.118" r="2.611"/>
			<circle cx="116.776" cy="85.118" r="2.611"/>
			<circle cx="127.328" cy="85.118" r="2.611"/>
			<circle cx="137.881" cy="85.118" r="2.611"/>
			<circle cx="148.434" cy="85.118" r="2.611"/>
			<circle cx="158.986" cy="85.118" r="2.611"/>
			<circle cx="169.539" cy="85.118" r="2.611"/>
			<circle cx="180.092" cy="85.118" r="2.611"/>
			<circle cx="190.644" cy="85.118" r="2.611"/>
			<circle cx="201.197" cy="85.118" r="2.611"/>
			<circle cx="211.75" cy="85.118" r="2.611"/>
			<circle cx="222.302" cy="85.118" r="2.611"/>
			<circle cx="232.855" cy="85.118" r="2.611"/>
			<circle cx="243.408" cy="85.118" r="2.611"/>
			<circle cx="253.96" cy="85.118" r="2.611"/>
			<circle cx="264.513" cy="85.118" r="2.611"/>
			<circle cx="275.065" cy="85.118" r="2.611"/>
			<circle cx="285.618" cy="85.118" r="2.611"/>
			<circle cx="296.171" cy="85.118" r="2.611"/>
			<circle cx="306.724" cy="85.118" r="2.611"/>
			<circle cx="317.276" cy="85.118" r="2.611"/>
			<circle cx="327.829" cy="85.118" r="2.611"/>
			<circle cx="338.382" cy="85.118" r="2.611"/>
			<circle cx="348.935" cy="85.118" r="2.611"/>
			<circle cx="359.488" cy="85.118" r="2.611"/>
			<circle cx="370.04" cy="85.118" r="2.611"/>
			<circle cx="95.67" cy="95.671" r="2.611"/>
			<circle cx="106.223" cy="95.671" r="2.611"/>
			<circle cx="116.776" cy="95.671" r="2.611"/>
			<circle cx="127.328" cy="95.671" r="2.611"/>
			<circle cx="137.881" cy="95.671" r="2.611"/>
			<circle cx="148.434" cy="95.671" r="2.611"/>
			<circle cx="158.986" cy="95.671" r="2.611"/>
			<circle cx="169.539" cy="95.671" r="2.611"/>
			<circle cx="180.092" cy="95.671" r="2.611"/>
			<circle cx="190.644" cy="95.671" r="2.611"/>
			<circle cx="201.197" cy="95.671" r="2.611"/>
			<circle cx="211.75" cy="95.671" r="2.611"/>
			<circle cx="222.302" cy="95.671" r="2.611"/>
			<circle cx="232.855" cy="95.671" r="2.611"/>
			<circle cx="243.408" cy="95.671" r="2.611"/>
			<circle cx="253.96" cy="95.671" r="2.611"/>
			<circle cx="264.513" cy="95.671" r="2.611"/>
			<circle cx="275.065" cy="95.671" r="2.611"/>
			<circle cx="285.618" cy="95.671" r="2.611"/>
			<circle cx="296.171" cy="95.671" r="2.611"/>
			<circle cx="306.724" cy="95.671" r="2.611"/>
			<circle cx="317.276" cy="95.671" r="2.611"/>
			<circle cx="327.829" cy="95.671" r="2.611"/>
			<circle cx="338.382" cy="95.671" r="2.611"/>
			<circle cx="348.935" cy="95.671" r="2.611"/>
			<circle cx="359.488" cy="95.671" r="2.611"/>
			<circle cx="370.04" cy="95.671" r="2.611"/>
			<circle cx="380.593" cy="95.671" r="2.611"/>
			<circle cx="106.223" cy="106.223" r="2.612"/>
			<circle cx="116.776" cy="106.223" r="2.612"/>
			<circle cx="127.328" cy="106.223" r="2.612"/>
			<circle cx="137.881" cy="106.223" r="2.612"/>
			<circle cx="148.434" cy="106.223" r="2.612"/>
			<circle cx="158.986" cy="106.223" r="2.612"/>
			<circle cx="169.539" cy="106.223" r="2.612"/>
			<circle cx="180.092" cy="106.223" r="2.612"/>
			<circle cx="190.644" cy="106.223" r="2.612"/>
			<circle cx="201.197" cy="106.223" r="2.612"/>
			<circle cx="211.75" cy="106.223" r="2.612"/>
			<circle cx="222.302" cy="106.223" r="2.612"/>
			<circle cx="232.855" cy="106.223" r="2.612"/>
			<circle cx="243.408" cy="106.223" r="2.612"/>
			<circle cx="253.96" cy="106.223" r="2.612"/>
			<circle cx="264.513" cy="106.223" r="2.612"/>
			<circle cx="275.065" cy="106.223" r="2.612"/>
			<circle cx="285.618" cy="106.223" r="2.612"/>
			<circle cx="296.171" cy="106.223" r="2.612"/>
			<circle cx="306.724" cy="106.223" r="2.612"/>
			<circle cx="317.276" cy="106.223" r="2.612"/>
			<circle cx="327.829" cy="106.223" r="2.612"/>
			<circle cx="338.382" cy="106.223" r="2.612"/>
			<circle cx="348.935" cy="106.223" r="2.612"/>
			<circle cx="359.488" cy="106.223" r="2.612"/>
			<circle cx="370.04" cy="106.223" r="2.612"/>
			<circle cx="380.593" cy="106.223" r="2.612"/>
			<circle cx="106.223" cy="116.776" r="2.612"/>
			<circle cx="116.776" cy="116.776" r="2.612"/>
			<circle cx="127.328" cy="116.776" r="2.612"/>
			<circle cx="137.881" cy="116.776" r="2.612"/>
			<circle cx="148.434" cy="116.776" r="2.612"/>
			<circle cx="158.986" cy="116.776" r="2.612"/>
			<circle cx="169.539" cy="116.776" r="2.612"/>
			<circle cx="180.092" cy="116.776" r="2.612"/>
			<circle cx="190.644" cy="116.776" r="2.612"/>
			<circle cx="201.197" cy="116.776" r="2.612"/>
			<circle cx="211.75" cy="116.776" r="2.612"/>
			<circle cx="222.302" cy="116.776" r="2.612"/>
			<circle cx="232.855" cy="116.776" r="2.612"/>
			<circle cx="243.408" cy="116.776" r="2.612"/>
			<circle cx="253.96" cy="116.776" r="2.612"/>
			<circle cx="264.513" cy="116.776" r="2.612"/>
			<circle cx="275.065" cy="116.776" r="2.612"/>
			<circle cx="285.618" cy="116.776" r="2.612"/>
			<circle cx="296.171" cy="116.776" r="2.612"/>
			<circle cx="306.724" cy="116.776" r="2.612"/>
			<circle cx="317.276" cy="116.776" r="2.612"/>
			<circle cx="327.829" cy="116.776" r="2.612"/>
			<circle cx="338.382" cy="116.776" r="2.612"/>
			<circle cx="348.935" cy="116.776" r="2.612"/>
			<circle cx="359.488" cy="116.776" r="2.612"/>
			<circle cx="370.04" cy="116.776" r="2.612"/>
			<circle cx="380.593" cy="116.776" r="2.612"/>
			<circle cx="507.225" cy="116.776" r="2.612"/>
			<circle cx="517.777" cy="116.776" r="2.612"/>
			<circle cx="528.33" cy="116.776" r="2.612"/>
			<circle cx="538.883" cy="116.776" r="2.612"/>
			<circle cx="549.436" cy="116.776" r="2.612"/>
			<circle cx="116.776" cy="127.329" r="2.612"/>
			<circle cx="127.328" cy="127.329" r="2.612"/>
			<circle cx="137.881" cy="127.329" r="2.612"/>
			<circle cx="148.434" cy="127.329" r="2.612"/>
			<circle cx="158.986" cy="127.329" r="2.612"/>
			<circle cx="169.539" cy="127.329" r="2.612"/>
			<circle cx="180.092" cy="127.329" r="2.612"/>
			<circle cx="190.644" cy="127.329" r="2.612"/>
			<circle cx="201.197" cy="127.329" r="2.612"/>
			<circle cx="211.75" cy="127.329" r="2.612"/>
			<circle cx="222.302" cy="127.329" r="2.612"/>
			<circle cx="232.855" cy="127.329" r="2.612"/>
			<circle cx="243.408" cy="127.329" r="2.612"/>
			<circle cx="253.96" cy="127.329" r="2.612"/>
			<circle cx="264.513" cy="127.329" r="2.612"/>
			<circle cx="275.065" cy="127.329" r="2.612"/>
			<circle cx="285.618" cy="127.329" r="2.612"/>
			<circle cx="296.171" cy="127.329" r="2.612"/>
			<circle cx="306.724" cy="127.329" r="2.612"/>
			<circle cx="317.276" cy="127.329" r="2.612"/>
			<circle cx="327.829" cy="127.329" r="2.612"/>
			<circle cx="338.382" cy="127.329" r="2.612"/>
			<circle cx="348.935" cy="127.329" r="2.612"/>
			<circle cx="359.488" cy="127.329" r="2.612"/>
			<circle cx="370.04" cy="127.329" r="2.612"/>
			<circle cx="380.593" cy="127.329" r="2.612"/>
			<path d="M391.144,129.94c1.444,0,2.613-1.169,2.613-2.611s-1.169-2.612-2.613-2.612c-1.44,0-2.61,1.17-2.61,2.612
				S389.703,129.94,391.144,129.94z"/>
			<circle cx="401.697" cy="127.329" r="2.612"/>
			<circle cx="412.25" cy="127.329" r="2.612"/>
			<circle cx="422.803" cy="127.329" r="2.612"/>
			<circle cx="433.355" cy="127.329" r="2.612"/>
			<circle cx="496.672" cy="127.329" r="2.612"/>
			<circle cx="507.225" cy="127.329" r="2.612"/>
			<circle cx="517.777" cy="127.329" r="2.612"/>
			<circle cx="528.33" cy="127.329" r="2.612"/>
			<circle cx="538.883" cy="127.329" r="2.612"/>
			<circle cx="549.436" cy="127.329" r="2.612"/>
			<circle cx="559.988" cy="127.329" r="2.612"/>
			<circle cx="570.541" cy="127.329" r="2.612"/>
			<circle cx="116.776" cy="137.881" r="2.612"/>
			<circle cx="127.328" cy="137.881" r="2.612"/>
			<circle cx="137.881" cy="137.881" r="2.612"/>
			<circle cx="148.434" cy="137.881" r="2.612"/>
			<circle cx="158.986" cy="137.881" r="2.612"/>
			<circle cx="169.539" cy="137.881" r="2.612"/>
			<circle cx="180.092" cy="137.881" r="2.612"/>
			<circle cx="190.644" cy="137.881" r="2.612"/>
			<circle cx="201.197" cy="137.881" r="2.612"/>
			<circle cx="211.75" cy="137.881" r="2.612"/>
			<circle cx="222.302" cy="137.881" r="2.612"/>
			<circle cx="232.855" cy="137.881" r="2.612"/>
			<circle cx="243.408" cy="137.881" r="2.612"/>
			<circle cx="253.96" cy="137.881" r="2.612"/>
			<circle cx="264.513" cy="137.881" r="2.612"/>
			<circle cx="275.065" cy="137.881" r="2.612"/>
			<circle cx="285.618" cy="137.881" r="2.612"/>
			<circle cx="296.171" cy="137.881" r="2.612"/>
			<circle cx="306.724" cy="137.881" r="2.612"/>
			<circle cx="317.276" cy="137.881" r="2.612"/>
			<circle cx="327.829" cy="137.881" r="2.612"/>
			<circle cx="338.382" cy="137.881" r="2.612"/>
			<circle cx="348.935" cy="137.881" r="2.612"/>
			<circle cx="359.488" cy="137.881" r="2.612"/>
			<circle cx="370.04" cy="137.881" r="2.612"/>
			<circle cx="380.593" cy="137.881" r="2.612"/>
			<path d="M391.144,140.493c1.444,0,2.613-1.169,2.613-2.611s-1.169-2.612-2.613-2.612c-1.44,0-2.61,1.17-2.61,2.612
				S389.703,140.493,391.144,140.493z"/>
			<circle cx="401.697" cy="137.881" r="2.612"/>
			<circle cx="412.25" cy="137.881" r="2.612"/>
			<circle cx="422.803" cy="137.881" r="2.612"/>
			<circle cx="433.355" cy="137.881" r="2.612"/>
			<circle cx="443.908" cy="137.881" r="2.612"/>
			<circle cx="454.461" cy="137.881" r="2.612"/>
			<circle cx="496.672" cy="137.881" r="2.612"/>
			<circle cx="507.225" cy="137.881" r="2.612"/>
			<circle cx="517.777" cy="137.881" r="2.612"/>
			<circle cx="528.33" cy="137.881" r="2.612"/>
			<circle cx="538.883" cy="137.881" r="2.612"/>
			<circle cx="549.436" cy="137.881" r="2.612"/>
			<circle cx="559.988" cy="137.881" r="2.612"/>
			<circle cx="570.541" cy="137.881" r="2.612"/>
			<circle cx="116.776" cy="148.434" r="2.612"/>
			<circle cx="127.328" cy="148.434" r="2.612"/>
			<circle cx="137.881" cy="148.434" r="2.612"/>
			<circle cx="148.434" cy="148.434" r="2.612"/>
			<circle cx="158.986" cy="148.434" r="2.612"/>
			<circle cx="169.539" cy="148.434" r="2.612"/>
			<circle cx="180.092" cy="148.434" r="2.612"/>
			<circle cx="190.644" cy="148.434" r="2.612"/>
			<circle cx="201.197" cy="148.434" r="2.612"/>
			<circle cx="211.75" cy="148.434" r="2.612"/>
			<circle cx="222.302" cy="148.434" r="2.612"/>
			<circle cx="232.855" cy="148.434" r="2.612"/>
			<circle cx="243.408" cy="148.434" r="2.612"/>
			<circle cx="253.96" cy="148.434" r="2.612"/>
			<circle cx="264.513" cy="148.434" r="2.612"/>
			<circle cx="275.065" cy="148.434" r="2.612"/>
			<circle cx="285.618" cy="148.434" r="2.612"/>
			<circle cx="296.171" cy="148.434" r="2.612"/>
			<circle cx="306.724" cy="148.434" r="2.612"/>
			<circle cx="317.276" cy="148.434" r="2.612"/>
			<circle cx="327.829" cy="148.434" r="2.612"/>
			<circle cx="338.382" cy="148.434" r="2.612"/>
			<circle cx="348.935" cy="148.434" r="2.612"/>
			<circle cx="359.488" cy="148.434" r="2.612"/>
			<circle cx="370.04" cy="148.434" r="2.612"/>
			<circle cx="380.593" cy="148.434" r="2.612"/>
			<path d="M391.144,151.046c1.444,0,2.613-1.17,2.613-2.611c0-1.442-1.169-2.612-2.613-2.612c-1.44,0-2.61,1.17-2.61,2.612
				C388.533,149.876,389.703,151.046,391.144,151.046z"/>
			<circle cx="401.697" cy="148.434" r="2.612"/>
			<circle cx="412.25" cy="148.434" r="2.612"/>
			<circle cx="422.803" cy="148.434" r="2.612"/>
			<circle cx="433.355" cy="148.434" r="2.612"/>
			<circle cx="443.908" cy="148.434" r="2.612"/>
			<circle cx="454.461" cy="148.434" r="2.612"/>
			<circle cx="465.014" cy="148.434" r="2.612"/>
			<circle cx="475.566" cy="148.434" r="2.612"/>
			<circle cx="486.119" cy="148.434" r="2.612"/>
			<circle cx="496.672" cy="148.434" r="2.612"/>
			<circle cx="507.225" cy="148.434" r="2.612"/>
			<circle cx="517.777" cy="148.434" r="2.612"/>
			<circle cx="528.33" cy="148.434" r="2.612"/>
			<circle cx="538.883" cy="148.434" r="2.612"/>
			<circle cx="549.436" cy="148.434" r="2.612"/>
			<circle cx="559.988" cy="148.434" r="2.612"/>
			<circle cx="570.541" cy="148.434" r="2.612"/>
			<circle cx="581.094" cy="148.434" r="2.612"/>
			<circle cx="591.646" cy="148.434" r="2.612"/>
			<circle cx="106.223" cy="158.987" r="2.612"/>
			<circle cx="116.776" cy="158.987" r="2.612"/>
			<circle cx="127.328" cy="158.987" r="2.612"/>
			<circle cx="137.881" cy="158.987" r="2.612"/>
			<circle cx="148.434" cy="158.987" r="2.612"/>
			<circle cx="158.986" cy="158.987" r="2.612"/>
			<circle cx="169.539" cy="158.987" r="2.612"/>
			<circle cx="180.092" cy="158.987" r="2.612"/>
			<circle cx="190.644" cy="158.987" r="2.612"/>
			<circle cx="201.197" cy="158.987" r="2.612"/>
			<circle cx="211.75" cy="158.987" r="2.612"/>
			<circle cx="222.302" cy="158.987" r="2.612"/>
			<circle cx="232.855" cy="158.987" r="2.612"/>
			<circle cx="243.408" cy="158.987" r="2.612"/>
			<circle cx="253.96" cy="158.987" r="2.612"/>
			<circle cx="264.513" cy="158.987" r="2.612"/>
			<circle cx="275.065" cy="158.987" r="2.612"/>
			<circle cx="285.618" cy="158.987" r="2.612"/>
			<circle cx="296.171" cy="158.987" r="2.612"/>
			<circle cx="306.724" cy="158.987" r="2.612"/>
			<circle cx="317.276" cy="158.987" r="2.612"/>
			<circle cx="327.829" cy="158.987" r="2.612"/>
			<circle cx="338.382" cy="158.987" r="2.612"/>
			<circle cx="348.935" cy="158.987" r="2.612"/>
			<circle cx="359.488" cy="158.987" r="2.612"/>
			<circle cx="370.04" cy="158.987" r="2.612"/>
			<circle cx="380.593" cy="158.987" r="2.612"/>
			<path d="M391.144,161.599c1.444,0,2.613-1.17,2.613-2.612c0-1.441-1.169-2.611-2.613-2.611c-1.44,0-2.61,1.17-2.61,2.611
				C388.533,160.429,389.703,161.599,391.144,161.599z"/>
			<circle cx="401.697" cy="158.987" r="2.612"/>
			<circle cx="412.25" cy="158.987" r="2.612"/>
			<circle cx="422.803" cy="158.987" r="2.612"/>
			<circle cx="433.355" cy="158.987" r="2.612"/>
			<circle cx="443.908" cy="158.987" r="2.612"/>
			<circle cx="454.461" cy="158.987" r="2.612"/>
			<circle cx="465.014" cy="158.987" r="2.612"/>
			<circle cx="475.566" cy="158.987" r="2.612"/>
			<circle cx="486.119" cy="158.987" r="2.612"/>
			<circle cx="496.672" cy="158.987" r="2.612"/>
			<circle cx="507.225" cy="158.987" r="2.612"/>
			<circle cx="517.777" cy="158.987" r="2.612"/>
			<circle cx="528.33" cy="158.987" r="2.612"/>
			<circle cx="538.883" cy="158.987" r="2.612"/>
			<circle cx="549.436" cy="158.987" r="2.612"/>
			<circle cx="559.988" cy="158.987" r="2.612"/>
			<circle cx="570.541" cy="158.987" r="2.612"/>
			<circle cx="581.094" cy="158.987" r="2.612"/>
			<circle cx="591.646" cy="158.987" r="2.612"/>
			<circle cx="95.67" cy="169.54" r="2.612"/>
			<circle cx="106.223" cy="169.54" r="2.612"/>
			<circle cx="116.776" cy="169.54" r="2.612"/>
			<circle cx="127.328" cy="169.54" r="2.612"/>
			<circle cx="137.881" cy="169.54" r="2.612"/>
			<circle cx="148.434" cy="169.54" r="2.612"/>
			<circle cx="158.986" cy="169.54" r="2.612"/>
			<circle cx="169.539" cy="169.54" r="2.612"/>
			<circle cx="180.092" cy="169.54" r="2.612"/>
			<circle cx="190.644" cy="169.54" r="2.612"/>
			<circle cx="201.197" cy="169.54" r="2.612"/>
			<circle cx="211.75" cy="169.54" r="2.612"/>
			<circle cx="222.302" cy="169.54" r="2.612"/>
			<circle cx="232.855" cy="169.54" r="2.612"/>
			<circle cx="243.408" cy="169.54" r="2.612"/>
			<circle cx="253.96" cy="169.54" r="2.612"/>
			<circle cx="264.513" cy="169.54" r="2.612"/>
			<circle cx="275.065" cy="169.54" r="2.612"/>
			<circle cx="285.618" cy="169.54" r="2.612"/>
			<circle cx="296.171" cy="169.54" r="2.612"/>
			<circle cx="306.724" cy="169.54" r="2.612"/>
			<circle cx="317.276" cy="169.54" r="2.612"/>
			<circle cx="327.829" cy="169.54" r="2.612"/>
			<circle cx="338.382" cy="169.54" r="2.612"/>
			<circle cx="348.935" cy="169.54" r="2.612"/>
			<circle cx="359.488" cy="169.54" r="2.612"/>
			<circle cx="370.04" cy="169.54" r="2.612"/>
			<circle cx="380.593" cy="169.54" r="2.612"/>
			<path d="M391.144,172.151c1.444,0,2.613-1.17,2.613-2.612s-1.169-2.611-2.613-2.611c-1.44,0-2.61,1.169-2.61,2.611
				S389.703,172.151,391.144,172.151z"/>
			<circle cx="401.697" cy="169.54" r="2.612"/>
			<circle cx="412.25" cy="169.54" r="2.612"/>
			<circle cx="422.803" cy="169.54" r="2.612"/>
			<circle cx="433.355" cy="169.54" r="2.612"/>
			<circle cx="443.908" cy="169.54" r="2.612"/>
			<circle cx="454.461" cy="169.54" r="2.612"/>
			<circle cx="465.014" cy="169.54" r="2.612"/>
			<circle cx="475.566" cy="169.54" r="2.612"/>
			<circle cx="486.119" cy="169.54" r="2.612"/>
			<circle cx="496.672" cy="169.54" r="2.612"/>
			<circle cx="507.225" cy="169.54" r="2.612"/>
			<circle cx="517.777" cy="169.54" r="2.612"/>
			<circle cx="528.33" cy="169.54" r="2.612"/>
			<circle cx="538.883" cy="169.54" r="2.612"/>
			<circle cx="549.436" cy="169.54" r="2.612"/>
			<circle cx="559.988" cy="169.54" r="2.612"/>
			<circle cx="570.541" cy="169.54" r="2.612"/>
			<circle cx="581.094" cy="169.54" r="2.612"/>
			<circle cx="591.646" cy="169.54" r="2.612"/>
			<circle cx="85.118" cy="180.092" r="2.612"/>
			<circle cx="95.67" cy="180.092" r="2.612"/>
			<circle cx="106.223" cy="180.092" r="2.612"/>
			<circle cx="116.776" cy="180.092" r="2.612"/>
			<circle cx="127.328" cy="180.092" r="2.612"/>
			<circle cx="137.881" cy="180.092" r="2.612"/>
			<circle cx="148.434" cy="180.092" r="2.612"/>
			<circle cx="158.986" cy="180.092" r="2.612"/>
			<circle cx="169.539" cy="180.092" r="2.612"/>
			<circle cx="180.092" cy="180.092" r="2.612"/>
			<circle cx="190.644" cy="180.092" r="2.612"/>
			<circle cx="201.197" cy="180.092" r="2.612"/>
			<circle cx="211.75" cy="180.092" r="2.612"/>
			<circle cx="222.302" cy="180.092" r="2.612"/>
			<circle cx="232.855" cy="180.092" r="2.612"/>
			<circle cx="243.408" cy="180.092" r="2.612"/>
			<circle cx="253.96" cy="180.092" r="2.612"/>
			<circle cx="264.513" cy="180.092" r="2.612"/>
			<circle cx="275.065" cy="180.092" r="2.612"/>
			<circle cx="285.618" cy="180.092" r="2.612"/>
			<circle cx="296.171" cy="180.092" r="2.612"/>
			<circle cx="306.724" cy="180.092" r="2.612"/>
			<circle cx="317.276" cy="180.092" r="2.612"/>
			<circle cx="327.829" cy="180.092" r="2.612"/>
			<circle cx="338.382" cy="180.092" r="2.612"/>
			<circle cx="348.935" cy="180.092" r="2.612"/>
			<circle cx="359.488" cy="180.092" r="2.612"/>
			<circle cx="370.04" cy="180.092" r="2.612"/>
			<circle cx="380.593" cy="180.092" r="2.612"/>
			<path d="M391.144,182.704c1.444,0,2.613-1.17,2.613-2.612s-1.169-2.611-2.613-2.611c-1.44,0-2.61,1.169-2.61,2.611
				S389.703,182.704,391.144,182.704z"/>
			<circle cx="401.697" cy="180.092" r="2.612"/>
			<circle cx="412.25" cy="180.092" r="2.612"/>
			<circle cx="422.803" cy="180.092" r="2.612"/>
			<circle cx="433.355" cy="180.092" r="2.612"/>
			<circle cx="443.908" cy="180.092" r="2.612"/>
			<circle cx="454.461" cy="180.092" r="2.612"/>
			<circle cx="465.014" cy="180.092" r="2.612"/>
			<circle cx="475.566" cy="180.092" r="2.612"/>
			<circle cx="486.119" cy="180.092" r="2.612"/>
			<circle cx="496.672" cy="180.092" r="2.612"/>
			<circle cx="507.225" cy="180.092" r="2.612"/>
			<circle cx="517.777" cy="180.092" r="2.612"/>
			<circle cx="528.33" cy="180.092" r="2.612"/>
			<circle cx="538.883" cy="180.092" r="2.612"/>
			<circle cx="549.436" cy="180.092" r="2.612"/>
			<circle cx="559.988" cy="180.092" r="2.612"/>
			<circle cx="570.541" cy="180.092" r="2.612"/>
			<circle cx="581.094" cy="180.092" r="2.612"/>
			<circle cx="591.646" cy="180.092" r="2.612"/>
			<circle cx="602.199" cy="180.092" r="2.612"/>
			<circle cx="74.565" cy="190.645" r="2.612"/>
			<circle cx="85.118" cy="190.645" r="2.612"/>
			<circle cx="95.67" cy="190.645" r="2.612"/>
			<circle cx="106.223" cy="190.645" r="2.612"/>
			<circle cx="116.776" cy="190.645" r="2.612"/>
			<circle cx="127.328" cy="190.645" r="2.612"/>
			<circle cx="137.881" cy="190.645" r="2.612"/>
			<circle cx="148.434" cy="190.645" r="2.612"/>
			<circle cx="158.986" cy="190.645" r="2.612"/>
			<circle cx="169.539" cy="190.645" r="2.612"/>
			<circle cx="180.092" cy="190.645" r="2.612"/>
			<circle cx="190.644" cy="190.645" r="2.612"/>
			<circle cx="201.197" cy="190.645" r="2.612"/>
			<circle cx="211.75" cy="190.645" r="2.612"/>
			<circle cx="222.302" cy="190.645" r="2.612"/>
			<circle cx="232.855" cy="190.645" r="2.612"/>
			<circle cx="243.408" cy="190.645" r="2.612"/>
			<circle cx="253.96" cy="190.645" r="2.612"/>
			<circle cx="264.513" cy="190.645" r="2.612"/>
			<circle cx="275.065" cy="190.645" r="2.612"/>
			<circle cx="285.618" cy="190.645" r="2.612"/>
			<circle cx="296.171" cy="190.645" r="2.612"/>
			<circle cx="306.724" cy="190.645" r="2.612"/>
			<circle cx="317.276" cy="190.645" r="2.612"/>
			<circle cx="327.829" cy="190.645" r="2.612"/>
			<circle cx="338.382" cy="190.645" r="2.612"/>
			<circle cx="348.935" cy="190.645" r="2.612"/>
			<circle cx="359.488" cy="190.645" r="2.612"/>
			<circle cx="370.04" cy="190.645" r="2.612"/>
			<circle cx="380.593" cy="190.645" r="2.612"/>
			<path d="M391.144,193.257c1.444,0,2.613-1.17,2.613-2.612s-1.169-2.611-2.613-2.611c-1.44,0-2.61,1.169-2.61,2.611
				S389.703,193.257,391.144,193.257z"/>
			<circle cx="401.697" cy="190.645" r="2.612"/>
			<circle cx="412.25" cy="190.645" r="2.612"/>
			<circle cx="422.803" cy="190.645" r="2.612"/>
			<circle cx="433.355" cy="190.645" r="2.612"/>
			<circle cx="443.908" cy="190.645" r="2.612"/>
			<circle cx="454.461" cy="190.645" r="2.612"/>
			<circle cx="465.014" cy="190.645" r="2.612"/>
			<circle cx="475.566" cy="190.645" r="2.612"/>
			<circle cx="486.119" cy="190.645" r="2.612"/>
			<circle cx="496.672" cy="190.645" r="2.612"/>
			<circle cx="507.225" cy="190.645" r="2.612"/>
			<circle cx="517.777" cy="190.645" r="2.612"/>
			<circle cx="528.33" cy="190.645" r="2.612"/>
			<circle cx="538.883" cy="190.645" r="2.612"/>
			<circle cx="549.436" cy="190.645" r="2.612"/>
			<circle cx="559.988" cy="190.645" r="2.612"/>
			<circle cx="570.541" cy="190.645" r="2.612"/>
			<circle cx="581.094" cy="190.645" r="2.612"/>
			<circle cx="591.646" cy="190.645" r="2.612"/>
			<circle cx="602.199" cy="190.645" r="2.612"/>
			<circle cx="74.565" cy="201.198" r="2.612"/>
			<circle cx="85.118" cy="201.198" r="2.612"/>
			<circle cx="95.67" cy="201.198" r="2.612"/>
			<circle cx="106.223" cy="201.198" r="2.612"/>
			<circle cx="116.776" cy="201.198" r="2.612"/>
			<circle cx="127.328" cy="201.198" r="2.612"/>
			<circle cx="137.881" cy="201.198" r="2.612"/>
			<circle cx="148.434" cy="201.198" r="2.612"/>
			<circle cx="158.986" cy="201.198" r="2.612"/>
			<circle cx="169.539" cy="201.198" r="2.612"/>
			<circle cx="180.092" cy="201.198" r="2.612"/>
			<circle cx="190.644" cy="201.198" r="2.612"/>
			<circle cx="201.197" cy="201.198" r="2.612"/>
			<circle cx="211.75" cy="201.198" r="2.612"/>
			<circle cx="222.302" cy="201.198" r="2.612"/>
			<circle cx="232.855" cy="201.198" r="2.612"/>
			<circle cx="243.408" cy="201.198" r="2.612"/>
			<circle cx="253.96" cy="201.198" r="2.612"/>
			<circle cx="264.513" cy="201.198" r="2.612"/>
			<circle cx="275.065" cy="201.198" r="2.612"/>
			<circle cx="285.618" cy="201.198" r="2.612"/>
			<circle cx="296.171" cy="201.198" r="2.612"/>
			<circle cx="306.724" cy="201.198" r="2.612"/>
			<circle cx="317.276" cy="201.198" r="2.612"/>
			<circle cx="327.829" cy="201.198" r="2.612"/>
			<circle cx="338.382" cy="201.198" r="2.612"/>
			<circle cx="348.935" cy="201.198" r="2.612"/>
			<circle cx="359.488" cy="201.198" r="2.612"/>
			<circle cx="370.04" cy="201.198" r="2.612"/>
			<circle cx="380.593" cy="201.198" r="2.612"/>
			<path d="M391.144,203.81c1.444,0,2.613-1.17,2.613-2.612s-1.169-2.611-2.613-2.611c-1.44,0-2.61,1.169-2.61,2.611
				S389.703,203.81,391.144,203.81z"/>
			<circle cx="401.697" cy="201.198" r="2.612"/>
			<circle cx="412.25" cy="201.198" r="2.612"/>
			<circle cx="422.803" cy="201.198" r="2.612"/>
			<circle cx="433.355" cy="201.198" r="2.612"/>
			<circle cx="443.908" cy="201.198" r="2.612"/>
			<circle cx="454.461" cy="201.198" r="2.612"/>
			<circle cx="465.014" cy="201.198" r="2.612"/>
			<circle cx="475.566" cy="201.198" r="2.612"/>
			<circle cx="486.119" cy="201.198" r="2.612"/>
			<circle cx="496.672" cy="201.198" r="2.612"/>
			<circle cx="507.225" cy="201.198" r="2.612"/>
			<circle cx="517.777" cy="201.198" r="2.612"/>
			<circle cx="528.33" cy="201.198" r="2.612"/>
			<circle cx="538.883" cy="201.198" r="2.612"/>
			<circle cx="549.436" cy="201.198" r="2.612"/>
			<circle cx="559.988" cy="201.198" r="2.612"/>
			<circle cx="570.541" cy="201.198" r="2.612"/>
			<circle cx="581.094" cy="201.198" r="2.612"/>
			<circle cx="591.646" cy="201.198" r="2.612"/>
			<circle cx="602.199" cy="201.198" r="2.612"/>
			<circle cx="612.752" cy="201.198" r="2.612"/>
			<circle cx="74.565" cy="211.75" r="2.611"/>
			<circle cx="85.118" cy="211.75" r="2.611"/>
			<circle cx="95.67" cy="211.75" r="2.611"/>
			<circle cx="106.223" cy="211.75" r="2.611"/>
			<circle cx="116.776" cy="211.75" r="2.611"/>
			<circle cx="127.328" cy="211.75" r="2.611"/>
			<circle cx="137.881" cy="211.75" r="2.611"/>
			<circle cx="148.434" cy="211.75" r="2.611"/>
			<circle cx="158.986" cy="211.75" r="2.611"/>
			<circle cx="169.539" cy="211.75" r="2.611"/>
			<circle cx="180.092" cy="211.75" r="2.611"/>
			<circle cx="190.644" cy="211.75" r="2.611"/>
			<circle cx="201.197" cy="211.75" r="2.611"/>
			<circle cx="211.75" cy="211.75" r="2.611"/>
			<circle cx="222.302" cy="211.75" r="2.611"/>
			<circle cx="232.855" cy="211.75" r="2.611"/>
			<circle cx="243.408" cy="211.75" r="2.611"/>
			<circle cx="253.96" cy="211.75" r="2.611"/>
			<circle cx="264.513" cy="211.75" r="2.611"/>
			<circle cx="275.065" cy="211.75" r="2.611"/>
			<circle cx="285.618" cy="211.75" r="2.611"/>
			<circle cx="296.171" cy="211.75" r="2.611"/>
			<circle cx="306.724" cy="211.75" r="2.611"/>
			<circle cx="317.276" cy="211.75" r="2.611"/>
			<circle cx="327.829" cy="211.75" r="2.611"/>
			<circle cx="338.382" cy="211.75" r="2.611"/>
			<circle cx="348.935" cy="211.75" r="2.611"/>
			<circle cx="359.488" cy="211.75" r="2.611"/>
			<circle cx="370.04" cy="211.75" r="2.611"/>
			<circle cx="380.593" cy="211.75" r="2.611"/>
			<path d="M391.144,214.361c1.444,0,2.613-1.169,2.613-2.611s-1.169-2.611-2.613-2.611c-1.44,0-2.61,1.169-2.61,2.611
				S389.703,214.361,391.144,214.361z"/>
			<circle cx="401.697" cy="211.75" r="2.611"/>
			<circle cx="412.25" cy="211.75" r="2.611"/>
			<circle cx="422.803" cy="211.75" r="2.611"/>
			<circle cx="433.355" cy="211.75" r="2.611"/>
			<circle cx="443.908" cy="211.75" r="2.611"/>
			<circle cx="454.461" cy="211.75" r="2.611"/>
			<circle cx="465.014" cy="211.75" r="2.611"/>
			<circle cx="475.566" cy="211.75" r="2.611"/>
			<circle cx="486.119" cy="211.75" r="2.611"/>
			<circle cx="496.672" cy="211.75" r="2.611"/>
			<circle cx="507.225" cy="211.75" r="2.611"/>
			<circle cx="517.777" cy="211.75" r="2.611"/>
			<circle cx="528.33" cy="211.75" r="2.611"/>
			<circle cx="538.883" cy="211.75" r="2.611"/>
			<circle cx="549.436" cy="211.75" r="2.611"/>
			<circle cx="559.988" cy="211.75" r="2.611"/>
			<circle cx="570.541" cy="211.75" r="2.611"/>
			<circle cx="581.094" cy="211.75" r="2.611"/>
			<circle cx="591.646" cy="211.75" r="2.611"/>
			<circle cx="602.199" cy="211.75" r="2.611"/>
			<circle cx="612.752" cy="211.75" r="2.611"/>
			<circle cx="74.565" cy="222.303" r="2.611"/>
			<circle cx="85.118" cy="222.303" r="2.611"/>
			<circle cx="95.67" cy="222.303" r="2.611"/>
			<circle cx="106.223" cy="222.303" r="2.611"/>
			<circle cx="116.776" cy="222.303" r="2.611"/>
			<circle cx="127.328" cy="222.303" r="2.611"/>
			<circle cx="137.881" cy="222.303" r="2.611"/>
			<circle cx="148.434" cy="222.303" r="2.611"/>
			<circle cx="158.986" cy="222.303" r="2.611"/>
			<circle cx="169.539" cy="222.303" r="2.611"/>
			<circle cx="180.092" cy="222.303" r="2.611"/>
			<circle cx="190.644" cy="222.303" r="2.611"/>
			<circle cx="201.197" cy="222.303" r="2.611"/>
			<circle cx="211.75" cy="222.303" r="2.611"/>
			<circle cx="222.302" cy="222.303" r="2.611"/>
			<circle cx="232.855" cy="222.303" r="2.611"/>
			<circle cx="243.408" cy="222.303" r="2.611"/>
			<circle cx="253.96" cy="222.303" r="2.611"/>
			<circle cx="264.513" cy="222.303" r="2.611"/>
			<circle cx="275.065" cy="222.303" r="2.611"/>
			<circle cx="285.618" cy="222.303" r="2.611"/>
			<circle cx="296.171" cy="222.303" r="2.611"/>
			<circle cx="306.724" cy="222.303" r="2.611"/>
			<circle cx="317.276" cy="222.303" r="2.611"/>
			<circle cx="327.829" cy="222.303" r="2.611"/>
			<circle cx="338.382" cy="222.303" r="2.611"/>
			<circle cx="348.935" cy="222.303" r="2.611"/>
			<circle cx="359.488" cy="222.303" r="2.611"/>
			<circle cx="370.04" cy="222.303" r="2.611"/>
			<circle cx="380.593" cy="222.303" r="2.611"/>
			<path d="M391.144,224.914c1.444,0,2.613-1.169,2.613-2.611s-1.169-2.611-2.613-2.611c-1.44,0-2.61,1.169-2.61,2.611
				S389.703,224.914,391.144,224.914z"/>
			<circle cx="401.697" cy="222.303" r="2.611"/>
			<circle cx="412.25" cy="222.303" r="2.611"/>
			<circle cx="422.803" cy="222.303" r="2.611"/>
			<circle cx="433.355" cy="222.303" r="2.611"/>
			<circle cx="443.908" cy="222.303" r="2.611"/>
			<circle cx="454.461" cy="222.303" r="2.611"/>
			<circle cx="465.014" cy="222.303" r="2.611"/>
			<circle cx="475.566" cy="222.303" r="2.611"/>
			<circle cx="486.119" cy="222.303" r="2.611"/>
			<circle cx="496.672" cy="222.303" r="2.611"/>
			<circle cx="507.225" cy="222.303" r="2.611"/>
			<circle cx="517.777" cy="222.303" r="2.611"/>
			<circle cx="528.33" cy="222.303" r="2.611"/>
			<circle cx="538.883" cy="222.303" r="2.611"/>
			<circle cx="549.436" cy="222.303" r="2.611"/>
			<circle cx="559.988" cy="222.303" r="2.611"/>
			<circle cx="570.541" cy="222.303" r="2.611"/>
			<circle cx="581.094" cy="222.303" r="2.611"/>
			<circle cx="591.646" cy="222.303" r="2.611"/>
			<circle cx="602.199" cy="222.303" r="2.611"/>
			<circle cx="612.752" cy="222.303" r="2.611"/>
			<circle cx="64.012" cy="232.855" r="2.611"/>
			<circle cx="74.565" cy="232.855" r="2.611"/>
			<circle cx="85.118" cy="232.855" r="2.611"/>
			<circle cx="95.67" cy="232.855" r="2.611"/>
			<circle cx="106.223" cy="232.855" r="2.611"/>
			<circle cx="116.776" cy="232.855" r="2.611"/>
			<circle cx="127.328" cy="232.855" r="2.611"/>
			<circle cx="137.881" cy="232.855" r="2.611"/>
			<circle cx="148.434" cy="232.855" r="2.611"/>
			<circle cx="158.986" cy="232.855" r="2.611"/>
			<circle cx="169.539" cy="232.855" r="2.611"/>
			<circle cx="180.092" cy="232.855" r="2.611"/>
			<circle cx="190.644" cy="232.855" r="2.611"/>
			<circle cx="201.197" cy="232.855" r="2.611"/>
			<circle cx="211.75" cy="232.855" r="2.611"/>
			<circle cx="222.302" cy="232.855" r="2.611"/>
			<circle cx="232.855" cy="232.855" r="2.611"/>
			<circle cx="243.408" cy="232.855" r="2.611"/>
			<circle cx="253.96" cy="232.855" r="2.611"/>
			<circle cx="264.513" cy="232.855" r="2.611"/>
			<circle cx="275.065" cy="232.855" r="2.611"/>
			<circle cx="285.618" cy="232.855" r="2.611"/>
			<circle cx="296.171" cy="232.855" r="2.611"/>
			<circle cx="306.724" cy="232.855" r="2.611"/>
			<circle cx="317.276" cy="232.855" r="2.611"/>
			<circle cx="327.829" cy="232.855" r="2.611"/>
			<circle cx="338.382" cy="232.855" r="2.611"/>
			<circle cx="348.935" cy="232.855" r="2.611"/>
			<circle cx="359.488" cy="232.855" r="2.611"/>
			<circle cx="370.04" cy="232.855" r="2.611"/>
			<circle cx="380.593" cy="232.855" r="2.611"/>
			<path d="M391.144,235.467c1.444,0,2.613-1.169,2.613-2.611s-1.169-2.611-2.613-2.611c-1.44,0-2.61,1.169-2.61,2.611
				S389.703,235.467,391.144,235.467z"/>
			<circle cx="401.697" cy="232.855" r="2.611"/>
			<circle cx="412.25" cy="232.855" r="2.611"/>
			<circle cx="422.803" cy="232.855" r="2.611"/>
			<circle cx="433.355" cy="232.855" r="2.611"/>
			<circle cx="443.908" cy="232.855" r="2.611"/>
			<circle cx="454.461" cy="232.855" r="2.611"/>
			<circle cx="465.014" cy="232.855" r="2.611"/>
			<circle cx="475.566" cy="232.855" r="2.611"/>
			<circle cx="486.119" cy="232.855" r="2.611"/>
			<circle cx="496.672" cy="232.855" r="2.611"/>
			<circle cx="507.225" cy="232.855" r="2.611"/>
			<circle cx="517.777" cy="232.855" r="2.611"/>
			<circle cx="528.33" cy="232.855" r="2.611"/>
			<circle cx="538.883" cy="232.855" r="2.611"/>
			<circle cx="549.436" cy="232.855" r="2.611"/>
			<circle cx="559.988" cy="232.855" r="2.611"/>
			<circle cx="570.541" cy="232.855" r="2.611"/>
			<circle cx="581.094" cy="232.855" r="2.611"/>
			<circle cx="591.646" cy="232.855" r="2.611"/>
			<circle cx="602.199" cy="232.855" r="2.611"/>
			<circle cx="612.752" cy="232.855" r="2.611"/>
			<circle cx="32.354" cy="243.408" r="2.611"/>
			<circle cx="42.907" cy="243.408" r="2.611"/>
			<circle cx="53.459" cy="243.408" r="2.611"/>
			<circle cx="64.012" cy="243.408" r="2.611"/>
			<circle cx="74.565" cy="243.408" r="2.611"/>
			<circle cx="85.118" cy="243.408" r="2.611"/>
			<circle cx="95.67" cy="243.408" r="2.611"/>
			<circle cx="106.223" cy="243.408" r="2.611"/>
			<circle cx="116.776" cy="243.408" r="2.611"/>
			<circle cx="127.328" cy="243.408" r="2.611"/>
			<circle cx="137.881" cy="243.408" r="2.611"/>
			<circle cx="148.434" cy="243.408" r="2.611"/>
			<circle cx="158.986" cy="243.408" r="2.611"/>
			<circle cx="169.539" cy="243.408" r="2.611"/>
			<circle cx="180.092" cy="243.408" r="2.611"/>
			<circle cx="190.644" cy="243.408" r="2.611"/>
			<circle cx="201.197" cy="243.408" r="2.611"/>
			<circle cx="211.75" cy="243.408" r="2.611"/>
			<circle cx="222.302" cy="243.408" r="2.611"/>
			<circle cx="232.855" cy="243.408" r="2.611"/>
			<circle cx="243.408" cy="243.408" r="2.611"/>
			<circle cx="253.96" cy="243.408" r="2.611"/>
			<circle cx="264.513" cy="243.408" r="2.611"/>
			<circle cx="275.065" cy="243.408" r="2.611"/>
			<circle cx="285.618" cy="243.408" r="2.611"/>
			<circle cx="296.171" cy="243.408" r="2.611"/>
			<circle cx="306.724" cy="243.408" r="2.611"/>
			<circle cx="317.276" cy="243.408" r="2.611"/>
			<circle cx="327.829" cy="243.408" r="2.611"/>
			<circle cx="338.382" cy="243.408" r="2.611"/>
			<circle cx="348.935" cy="243.408" r="2.611"/>
			<circle cx="359.488" cy="243.408" r="2.611"/>
			<circle cx="370.04" cy="243.408" r="2.611"/>
			<circle cx="380.593" cy="243.408" r="2.611"/>
			<path d="M391.144,246.02c1.444,0,2.613-1.169,2.613-2.611s-1.169-2.611-2.613-2.611c-1.44,0-2.61,1.169-2.61,2.611
				S389.703,246.02,391.144,246.02z"/>
			<circle cx="401.697" cy="243.408" r="2.611"/>
			<circle cx="412.25" cy="243.408" r="2.611"/>
			<circle cx="422.803" cy="243.408" r="2.611"/>
			<circle cx="433.355" cy="243.408" r="2.611"/>
			<circle cx="443.908" cy="243.408" r="2.611"/>
			<circle cx="454.461" cy="243.408" r="2.611"/>
			<circle cx="465.014" cy="243.408" r="2.611"/>
			<circle cx="475.566" cy="243.408" r="2.611"/>
			<circle cx="486.119" cy="243.408" r="2.611"/>
			<circle cx="496.672" cy="243.408" r="2.611"/>
			<circle cx="507.225" cy="243.408" r="2.611"/>
			<circle cx="517.777" cy="243.408" r="2.611"/>
			<circle cx="528.33" cy="243.408" r="2.611"/>
			<circle cx="538.883" cy="243.408" r="2.611"/>
			<circle cx="549.436" cy="243.408" r="2.611"/>
			<circle cx="559.988" cy="243.408" r="2.611"/>
			<circle cx="570.541" cy="243.408" r="2.611"/>
			<circle cx="581.094" cy="243.408" r="2.611"/>
			<circle cx="591.646" cy="243.408" r="2.611"/>
			<circle cx="602.199" cy="243.408" r="2.611"/>
			<circle cx="612.752" cy="243.408" r="2.611"/>
			<circle cx="32.354" cy="253.961" r="2.611"/>
			<circle cx="42.907" cy="253.961" r="2.611"/>
			<circle cx="53.459" cy="253.961" r="2.611"/>
			<circle cx="64.012" cy="253.961" r="2.611"/>
			<circle cx="74.565" cy="253.961" r="2.611"/>
			<circle cx="85.118" cy="253.961" r="2.611"/>
			<circle cx="95.67" cy="253.961" r="2.611"/>
			<circle cx="106.223" cy="253.961" r="2.611"/>
			<circle cx="116.776" cy="253.961" r="2.611"/>
			<circle cx="127.328" cy="253.961" r="2.611"/>
			<circle cx="137.881" cy="253.961" r="2.611"/>
			<circle cx="148.434" cy="253.961" r="2.611"/>
			<circle cx="158.986" cy="253.961" r="2.611"/>
			<circle cx="169.539" cy="253.961" r="2.611"/>
			<circle cx="180.092" cy="253.961" r="2.611"/>
			<circle cx="190.644" cy="253.961" r="2.611"/>
			<circle cx="201.197" cy="253.961" r="2.611"/>
			<circle cx="211.75" cy="253.961" r="2.611"/>
			<circle cx="222.302" cy="253.961" r="2.611"/>
			<circle cx="232.855" cy="253.961" r="2.611"/>
			<circle cx="243.408" cy="253.961" r="2.611"/>
			<circle cx="253.96" cy="253.961" r="2.611"/>
			<circle cx="264.513" cy="253.961" r="2.611"/>
			<circle cx="275.065" cy="253.961" r="2.611"/>
			<circle cx="285.618" cy="253.961" r="2.611"/>
			<circle cx="296.171" cy="253.961" r="2.611"/>
			<circle cx="306.724" cy="253.961" r="2.611"/>
			<circle cx="317.276" cy="253.961" r="2.611"/>
			<circle cx="327.829" cy="253.961" r="2.611"/>
			<circle cx="338.382" cy="253.961" r="2.611"/>
			<circle cx="348.935" cy="253.961" r="2.611"/>
			<circle cx="359.488" cy="253.961" r="2.611"/>
			<circle cx="370.04" cy="253.961" r="2.611"/>
			<circle cx="380.593" cy="253.961" r="2.611"/>
			<path d="M391.144,256.572c1.444,0,2.613-1.169,2.613-2.611s-1.169-2.611-2.613-2.611c-1.44,0-2.61,1.169-2.61,2.611
				S389.703,256.572,391.144,256.572z"/>
			<circle cx="401.697" cy="253.961" r="2.611"/>
			<circle cx="412.25" cy="253.961" r="2.611"/>
			<circle cx="422.803" cy="253.961" r="2.611"/>
			<circle cx="433.355" cy="253.961" r="2.611"/>
			<circle cx="443.908" cy="253.961" r="2.611"/>
			<circle cx="454.461" cy="253.961" r="2.611"/>
			<circle cx="465.014" cy="253.961" r="2.611"/>
			<circle cx="475.566" cy="253.961" r="2.611"/>
			<circle cx="486.119" cy="253.961" r="2.611"/>
			<circle cx="496.672" cy="253.961" r="2.611"/>
			<circle cx="507.225" cy="253.961" r="2.611"/>
			<circle cx="517.777" cy="253.961" r="2.611"/>
			<circle cx="528.33" cy="253.961" r="2.611"/>
			<circle cx="538.883" cy="253.961" r="2.611"/>
			<circle cx="549.436" cy="253.961" r="2.611"/>
			<circle cx="559.988" cy="253.961" r="2.611"/>
			<circle cx="570.541" cy="253.961" r="2.611"/>
			<circle cx="581.094" cy="253.961" r="2.611"/>
			<circle cx="591.646" cy="253.961" r="2.611"/>
			<circle cx="602.199" cy="253.961" r="2.611"/>
			<circle cx="612.752" cy="253.961" r="2.611"/>
			<circle cx="11.249" cy="264.513" r="2.612"/>
			<circle cx="21.802" cy="264.513" r="2.612"/>
			<circle cx="32.354" cy="264.513" r="2.612"/>
			<circle cx="42.907" cy="264.513" r="2.612"/>
			<circle cx="53.459" cy="264.513" r="2.612"/>
			<circle cx="64.012" cy="264.513" r="2.612"/>
			<circle cx="74.565" cy="264.513" r="2.612"/>
			<circle cx="85.118" cy="264.513" r="2.612"/>
			<circle cx="95.67" cy="264.513" r="2.612"/>
			<circle cx="106.223" cy="264.513" r="2.612"/>
			<circle cx="116.776" cy="264.513" r="2.612"/>
			<circle cx="127.328" cy="264.513" r="2.612"/>
			<circle cx="137.881" cy="264.513" r="2.612"/>
			<circle cx="148.434" cy="264.513" r="2.612"/>
			<circle cx="158.986" cy="264.513" r="2.612"/>
			<circle cx="169.539" cy="264.513" r="2.612"/>
			<circle cx="180.092" cy="264.513" r="2.612"/>
			<circle cx="190.644" cy="264.513" r="2.612"/>
			<circle cx="201.197" cy="264.513" r="2.612"/>
			<circle cx="211.75" cy="264.513" r="2.612"/>
			<circle cx="222.302" cy="264.513" r="2.612"/>
			<circle cx="232.855" cy="264.513" r="2.612"/>
			<circle cx="243.408" cy="264.513" r="2.612"/>
			<circle cx="253.96" cy="264.513" r="2.612"/>
			<circle cx="264.513" cy="264.513" r="2.612"/>
			<circle cx="275.065" cy="264.513" r="2.612"/>
			<circle cx="285.618" cy="264.513" r="2.612"/>
			<circle cx="296.171" cy="264.513" r="2.612"/>
			<circle cx="306.724" cy="264.513" r="2.612"/>
			<circle cx="317.276" cy="264.513" r="2.612"/>
			<circle cx="327.829" cy="264.513" r="2.612"/>
			<circle cx="338.382" cy="264.513" r="2.612"/>
			<circle cx="348.935" cy="264.513" r="2.612"/>
			<circle cx="359.488" cy="264.513" r="2.612"/>
			<circle cx="370.04" cy="264.513" r="2.612"/>
			<circle cx="380.593" cy="264.513" r="2.612"/>
			<path d="M391.144,267.125c1.444,0,2.613-1.169,2.613-2.611s-1.169-2.612-2.613-2.612c-1.44,0-2.61,1.17-2.61,2.612
				S389.703,267.125,391.144,267.125z"/>
			<circle cx="401.697" cy="264.513" r="2.612"/>
			<circle cx="412.25" cy="264.513" r="2.612"/>
			<circle cx="422.803" cy="264.513" r="2.612"/>
			<circle cx="433.355" cy="264.513" r="2.612"/>
			<circle cx="443.908" cy="264.513" r="2.612"/>
			<circle cx="454.461" cy="264.513" r="2.612"/>
			<circle cx="465.014" cy="264.513" r="2.612"/>
			<circle cx="475.566" cy="264.513" r="2.612"/>
			<circle cx="486.119" cy="264.513" r="2.612"/>
			<circle cx="496.672" cy="264.513" r="2.612"/>
			<circle cx="507.225" cy="264.513" r="2.612"/>
			<circle cx="517.777" cy="264.513" r="2.612"/>
			<circle cx="528.33" cy="264.513" r="2.612"/>
			<circle cx="538.883" cy="264.513" r="2.612"/>
			<circle cx="549.436" cy="264.513" r="2.612"/>
			<circle cx="559.988" cy="264.513" r="2.612"/>
			<circle cx="570.541" cy="264.513" r="2.612"/>
			<circle cx="581.094" cy="264.513" r="2.612"/>
			<circle cx="591.646" cy="264.513" r="2.612"/>
			<circle cx="11.249" cy="275.066" r="2.612"/>
			<circle cx="21.802" cy="275.066" r="2.612"/>
			<circle cx="32.354" cy="275.066" r="2.612"/>
			<circle cx="42.907" cy="275.066" r="2.612"/>
			<circle cx="53.459" cy="275.066" r="2.612"/>
			<circle cx="64.012" cy="275.066" r="2.612"/>
			<circle cx="74.565" cy="275.066" r="2.612"/>
			<circle cx="85.118" cy="275.066" r="2.612"/>
			<circle cx="95.67" cy="275.066" r="2.612"/>
			<circle cx="106.223" cy="275.066" r="2.612"/>
			<circle cx="116.776" cy="275.066" r="2.612"/>
			<circle cx="127.328" cy="275.066" r="2.612"/>
			<circle cx="137.881" cy="275.066" r="2.612"/>
			<circle cx="148.434" cy="275.066" r="2.612"/>
			<circle cx="158.986" cy="275.066" r="2.612"/>
			<circle cx="169.539" cy="275.066" r="2.612"/>
			<circle cx="180.092" cy="275.066" r="2.612"/>
			<circle cx="190.644" cy="275.066" r="2.612"/>
			<circle cx="201.197" cy="275.066" r="2.612"/>
			<circle cx="211.75" cy="275.066" r="2.612"/>
			<circle cx="222.302" cy="275.066" r="2.612"/>
			<circle cx="232.855" cy="275.066" r="2.612"/>
			<circle cx="243.408" cy="275.066" r="2.612"/>
			<circle cx="253.96" cy="275.066" r="2.612"/>
			<circle cx="264.513" cy="275.066" r="2.612"/>
			<circle cx="275.065" cy="275.066" r="2.612"/>
			<circle cx="285.618" cy="275.066" r="2.612"/>
			<circle cx="296.171" cy="275.066" r="2.612"/>
			<circle cx="306.724" cy="275.066" r="2.612"/>
			<circle cx="317.276" cy="275.066" r="2.612"/>
			<circle cx="327.829" cy="275.066" r="2.612"/>
			<circle cx="338.382" cy="275.066" r="2.612"/>
			<circle cx="348.935" cy="275.066" r="2.612"/>
			<circle cx="359.488" cy="275.066" r="2.612"/>
			<circle cx="370.04" cy="275.066" r="2.612"/>
			<circle cx="380.593" cy="275.066" r="2.612"/>
			<path d="M391.144,277.678c1.444,0,2.613-1.169,2.613-2.611s-1.169-2.612-2.613-2.612c-1.44,0-2.61,1.17-2.61,2.612
				S389.703,277.678,391.144,277.678z"/>
			<circle cx="401.697" cy="275.066" r="2.612"/>
			<circle cx="412.25" cy="275.066" r="2.612"/>
			<circle cx="422.803" cy="275.066" r="2.612"/>
			<circle cx="433.355" cy="275.066" r="2.612"/>
			<circle cx="443.908" cy="275.066" r="2.612"/>
			<circle cx="454.461" cy="275.066" r="2.612"/>
			<circle cx="465.014" cy="275.066" r="2.612"/>
			<circle cx="475.566" cy="275.066" r="2.612"/>
			<circle cx="486.119" cy="275.066" r="2.612"/>
			<circle cx="496.672" cy="275.066" r="2.612"/>
			<circle cx="507.225" cy="275.066" r="2.612"/>
			<circle cx="517.777" cy="275.066" r="2.612"/>
			<circle cx="528.33" cy="275.066" r="2.612"/>
			<circle cx="538.883" cy="275.066" r="2.612"/>
			<circle cx="549.436" cy="275.066" r="2.612"/>
			<circle cx="559.988" cy="275.066" r="2.612"/>
			<circle cx="570.541" cy="275.066" r="2.612"/>
			<circle cx="581.094" cy="275.066" r="2.612"/>
			<circle cx="32.354" cy="285.619" r="2.612"/>
			<circle cx="42.907" cy="285.619" r="2.612"/>
			<circle cx="53.459" cy="285.619" r="2.612"/>
			<circle cx="64.012" cy="285.619" r="2.612"/>
			<circle cx="74.565" cy="285.619" r="2.612"/>
			<circle cx="85.118" cy="285.619" r="2.612"/>
			<circle cx="95.67" cy="285.619" r="2.612"/>
			<circle cx="106.223" cy="285.619" r="2.612"/>
			<circle cx="116.776" cy="285.619" r="2.612"/>
			<circle cx="127.328" cy="285.619" r="2.612"/>
			<circle cx="137.881" cy="285.619" r="2.612"/>
			<circle cx="148.434" cy="285.619" r="2.612"/>
			<circle cx="158.986" cy="285.619" r="2.612"/>
			<circle cx="169.539" cy="285.619" r="2.612"/>
			<circle cx="180.092" cy="285.619" r="2.612"/>
			<circle cx="190.644" cy="285.619" r="2.612"/>
			<circle cx="201.197" cy="285.619" r="2.612"/>
			<circle cx="211.75" cy="285.619" r="2.612"/>
			<circle cx="222.302" cy="285.619" r="2.612"/>
			<circle cx="232.855" cy="285.619" r="2.612"/>
			<circle cx="243.408" cy="285.619" r="2.612"/>
			<circle cx="253.96" cy="285.619" r="2.612"/>
			<circle cx="264.513" cy="285.619" r="2.612"/>
			<circle cx="275.065" cy="285.619" r="2.612"/>
			<circle cx="285.618" cy="285.619" r="2.612"/>
			<circle cx="296.171" cy="285.619" r="2.612"/>
			<circle cx="306.724" cy="285.619" r="2.612"/>
			<circle cx="317.276" cy="285.619" r="2.612"/>
			<circle cx="327.829" cy="285.619" r="2.612"/>
			<circle cx="338.382" cy="285.619" r="2.612"/>
			<circle cx="348.935" cy="285.619" r="2.612"/>
			<circle cx="359.488" cy="285.619" r="2.612"/>
			<circle cx="370.04" cy="285.619" r="2.612"/>
			<circle cx="380.593" cy="285.619" r="2.612"/>
			<path d="M391.144,288.23c1.444,0,2.613-1.169,2.613-2.611s-1.169-2.612-2.613-2.612c-1.44,0-2.61,1.17-2.61,2.612
				S389.703,288.23,391.144,288.23z"/>
			<circle cx="401.697" cy="285.619" r="2.612"/>
			<circle cx="412.25" cy="285.619" r="2.612"/>
			<circle cx="422.803" cy="285.619" r="2.612"/>
			<circle cx="433.355" cy="285.619" r="2.612"/>
			<circle cx="443.908" cy="285.619" r="2.612"/>
			<circle cx="454.461" cy="285.619" r="2.612"/>
			<circle cx="465.014" cy="285.619" r="2.612"/>
			<circle cx="475.566" cy="285.619" r="2.612"/>
			<circle cx="486.119" cy="285.619" r="2.612"/>
			<circle cx="496.672" cy="285.619" r="2.612"/>
			<circle cx="507.225" cy="285.619" r="2.612"/>
			<circle cx="517.777" cy="285.619" r="2.612"/>
			<circle cx="528.33" cy="285.619" r="2.612"/>
			<circle cx="538.883" cy="285.619" r="2.612"/>
			<circle cx="549.436" cy="285.619" r="2.612"/>
			<circle cx="559.988" cy="285.619" r="2.612"/>
			<circle cx="570.541" cy="285.619" r="2.612"/>
			<circle cx="581.094" cy="285.619" r="2.612"/>
			<circle cx="32.354" cy="296.171" r="2.612"/>
			<circle cx="42.907" cy="296.171" r="2.612"/>
			<circle cx="53.459" cy="296.171" r="2.612"/>
			<circle cx="64.012" cy="296.171" r="2.612"/>
			<circle cx="74.565" cy="296.171" r="2.612"/>
			<circle cx="85.118" cy="296.171" r="2.612"/>
			<circle cx="95.67" cy="296.171" r="2.612"/>
			<circle cx="106.223" cy="296.171" r="2.612"/>
			<circle cx="116.776" cy="296.171" r="2.612"/>
			<circle cx="127.328" cy="296.171" r="2.612"/>
			<circle cx="137.881" cy="296.171" r="2.612"/>
			<circle cx="148.434" cy="296.171" r="2.612"/>
			<circle cx="158.986" cy="296.171" r="2.612"/>
			<circle cx="169.539" cy="296.171" r="2.612"/>
			<circle cx="180.092" cy="296.171" r="2.612"/>
			<circle cx="190.644" cy="296.171" r="2.612"/>
			<circle cx="201.197" cy="296.171" r="2.612"/>
			<circle cx="211.75" cy="296.171" r="2.612"/>
			<circle cx="222.302" cy="296.171" r="2.612"/>
			<circle cx="232.855" cy="296.171" r="2.612"/>
			<circle cx="243.408" cy="296.171" r="2.612"/>
			<circle cx="253.96" cy="296.171" r="2.612"/>
			<circle cx="264.513" cy="296.171" r="2.612"/>
			<circle cx="275.065" cy="296.171" r="2.612"/>
			<circle cx="285.618" cy="296.171" r="2.612"/>
			<circle cx="296.171" cy="296.171" r="2.612"/>
			<circle cx="306.724" cy="296.171" r="2.612"/>
			<circle cx="317.276" cy="296.171" r="2.612"/>
			<circle cx="327.829" cy="296.171" r="2.612"/>
			<circle cx="338.382" cy="296.171" r="2.612"/>
			<circle cx="348.935" cy="296.171" r="2.612"/>
			<circle cx="359.488" cy="296.171" r="2.612"/>
			<circle cx="370.04" cy="296.171" r="2.612"/>
			<circle cx="380.593" cy="296.171" r="2.612"/>
			<path d="M391.144,298.783c1.444,0,2.613-1.169,2.613-2.611s-1.169-2.612-2.613-2.612c-1.44,0-2.61,1.17-2.61,2.612
				S389.703,298.783,391.144,298.783z"/>
			<circle cx="401.697" cy="296.171" r="2.612"/>
			<circle cx="412.25" cy="296.171" r="2.612"/>
			<circle cx="422.803" cy="296.171" r="2.612"/>
			<circle cx="433.355" cy="296.171" r="2.612"/>
			<circle cx="443.908" cy="296.171" r="2.612"/>
			<circle cx="454.461" cy="296.171" r="2.612"/>
			<circle cx="465.014" cy="296.171" r="2.612"/>
			<circle cx="475.566" cy="296.171" r="2.612"/>
			<circle cx="486.119" cy="296.171" r="2.612"/>
			<circle cx="496.672" cy="296.171" r="2.612"/>
			<circle cx="507.225" cy="296.171" r="2.612"/>
			<circle cx="517.777" cy="296.171" r="2.612"/>
			<circle cx="528.33" cy="296.171" r="2.612"/>
			<circle cx="538.883" cy="296.171" r="2.612"/>
			<circle cx="549.436" cy="296.171" r="2.612"/>
			<circle cx="559.988" cy="296.171" r="2.612"/>
			<circle cx="570.541" cy="296.171" r="2.612"/>
			<circle cx="32.354" cy="306.724" r="2.612"/>
			<circle cx="42.907" cy="306.724" r="2.612"/>
			<circle cx="53.459" cy="306.724" r="2.612"/>
			<circle cx="64.012" cy="306.724" r="2.612"/>
			<circle cx="74.565" cy="306.724" r="2.612"/>
			<circle cx="85.118" cy="306.724" r="2.612"/>
			<circle cx="95.67" cy="306.724" r="2.612"/>
			<circle cx="106.223" cy="306.724" r="2.612"/>
			<circle cx="116.776" cy="306.724" r="2.612"/>
			<circle cx="127.328" cy="306.724" r="2.612"/>
			<circle cx="137.881" cy="306.724" r="2.612"/>
			<circle cx="148.434" cy="306.724" r="2.612"/>
			<circle cx="158.986" cy="306.724" r="2.612"/>
			<circle cx="169.539" cy="306.724" r="2.612"/>
			<circle cx="180.092" cy="306.724" r="2.612"/>
			<circle cx="190.644" cy="306.724" r="2.612"/>
			<circle cx="201.197" cy="306.724" r="2.612"/>
			<circle cx="211.75" cy="306.724" r="2.612"/>
			<circle cx="222.302" cy="306.724" r="2.612"/>
			<circle cx="232.855" cy="306.724" r="2.612"/>
			<circle cx="243.408" cy="306.724" r="2.612"/>
			<circle cx="253.96" cy="306.724" r="2.612"/>
			<circle cx="264.513" cy="306.724" r="2.612"/>
			<circle cx="275.065" cy="306.724" r="2.612"/>
			<circle cx="285.618" cy="306.724" r="2.612"/>
			<circle cx="296.171" cy="306.724" r="2.612"/>
			<circle cx="306.724" cy="306.724" r="2.612"/>
			<circle cx="317.276" cy="306.724" r="2.612"/>
			<circle cx="327.829" cy="306.724" r="2.612"/>
			<circle cx="338.382" cy="306.724" r="2.612"/>
			<circle cx="348.935" cy="306.724" r="2.612"/>
			<circle cx="359.488" cy="306.724" r="2.612"/>
			<circle cx="370.04" cy="306.724" r="2.612"/>
			<circle cx="380.593" cy="306.724" r="2.612"/>
			<path d="M391.144,309.336c1.444,0,2.613-1.169,2.613-2.611c0-1.443-1.169-2.612-2.613-2.612c-1.44,0-2.61,1.169-2.61,2.612
				C388.533,308.167,389.703,309.336,391.144,309.336z"/>
			<circle cx="401.697" cy="306.724" r="2.612"/>
			<circle cx="412.25" cy="306.724" r="2.612"/>
			<circle cx="422.803" cy="306.724" r="2.612"/>
			<circle cx="433.355" cy="306.724" r="2.612"/>
			<circle cx="443.908" cy="306.724" r="2.612"/>
			<circle cx="454.461" cy="306.724" r="2.612"/>
			<circle cx="465.014" cy="306.724" r="2.612"/>
			<circle cx="475.566" cy="306.724" r="2.612"/>
			<circle cx="486.119" cy="306.724" r="2.612"/>
			<circle cx="496.672" cy="306.724" r="2.612"/>
			<circle cx="507.225" cy="306.724" r="2.612"/>
			<circle cx="517.777" cy="306.724" r="2.612"/>
			<circle cx="528.33" cy="306.724" r="2.612"/>
			<circle cx="538.883" cy="306.724" r="2.612"/>
			<circle cx="549.436" cy="306.724" r="2.612"/>
			<circle cx="559.988" cy="306.724" r="2.612"/>
			<circle cx="570.541" cy="306.724" r="2.612"/>
			<circle cx="32.354" cy="317.277" r="2.612"/>
			<circle cx="42.907" cy="317.277" r="2.612"/>
			<circle cx="53.459" cy="317.277" r="2.612"/>
			<circle cx="64.012" cy="317.277" r="2.612"/>
			<circle cx="74.565" cy="317.277" r="2.612"/>
			<circle cx="85.118" cy="317.277" r="2.612"/>
			<circle cx="95.67" cy="317.277" r="2.612"/>
			<circle cx="106.223" cy="317.277" r="2.612"/>
			<circle cx="116.776" cy="317.277" r="2.612"/>
			<circle cx="127.328" cy="317.277" r="2.612"/>
			<circle cx="137.881" cy="317.277" r="2.612"/>
			<circle cx="148.434" cy="317.277" r="2.612"/>
			<circle cx="158.986" cy="317.277" r="2.612"/>
			<circle cx="169.539" cy="317.277" r="2.612"/>
			<circle cx="180.092" cy="317.277" r="2.612"/>
			<circle cx="190.644" cy="317.277" r="2.612"/>
			<circle cx="201.197" cy="317.277" r="2.612"/>
			<circle cx="211.75" cy="317.277" r="2.612"/>
			<circle cx="222.302" cy="317.277" r="2.612"/>
			<circle cx="232.855" cy="317.277" r="2.612"/>
			<circle cx="243.408" cy="317.277" r="2.612"/>
			<circle cx="253.96" cy="317.277" r="2.612"/>
			<circle cx="264.513" cy="317.277" r="2.612"/>
			<circle cx="275.065" cy="317.277" r="2.612"/>
			<circle cx="285.618" cy="317.277" r="2.612"/>
			<circle cx="296.171" cy="317.277" r="2.612"/>
			<circle cx="306.724" cy="317.277" r="2.612"/>
			<circle cx="317.276" cy="317.277" r="2.612"/>
			<circle cx="327.829" cy="317.277" r="2.612"/>
			<circle cx="338.382" cy="317.277" r="2.612"/>
			<circle cx="348.935" cy="317.277" r="2.612"/>
			<circle cx="359.488" cy="317.277" r="2.612"/>
			<circle cx="370.04" cy="317.277" r="2.612"/>
			<circle cx="380.593" cy="317.277" r="2.612"/>
			<path d="M391.144,319.889c1.444,0,2.613-1.169,2.613-2.611s-1.169-2.612-2.613-2.612c-1.44,0-2.61,1.17-2.61,2.612
				S389.703,319.889,391.144,319.889z"/>
			<circle cx="401.697" cy="317.277" r="2.612"/>
			<circle cx="412.25" cy="317.277" r="2.612"/>
			<circle cx="422.803" cy="317.277" r="2.612"/>
			<circle cx="433.355" cy="317.277" r="2.612"/>
			<circle cx="443.908" cy="317.277" r="2.612"/>
			<circle cx="454.461" cy="317.277" r="2.612"/>
			<circle cx="465.014" cy="317.277" r="2.612"/>
			<circle cx="475.566" cy="317.277" r="2.612"/>
			<circle cx="486.119" cy="317.277" r="2.612"/>
			<circle cx="496.672" cy="317.277" r="2.612"/>
			<circle cx="507.225" cy="317.277" r="2.612"/>
			<circle cx="517.777" cy="317.277" r="2.612"/>
			<circle cx="528.33" cy="317.277" r="2.612"/>
			<circle cx="538.883" cy="317.277" r="2.612"/>
			<circle cx="549.436" cy="317.277" r="2.612"/>
			<circle cx="559.988" cy="317.277" r="2.612"/>
			<circle cx="32.354" cy="327.83" r="2.612"/>
			<circle cx="42.907" cy="327.83" r="2.612"/>
			<circle cx="53.459" cy="327.83" r="2.612"/>
			<circle cx="64.012" cy="327.83" r="2.612"/>
			<circle cx="74.565" cy="327.83" r="2.612"/>
			<circle cx="85.118" cy="327.83" r="2.612"/>
			<circle cx="95.67" cy="327.83" r="2.612"/>
			<circle cx="106.223" cy="327.83" r="2.612"/>
			<circle cx="116.776" cy="327.83" r="2.612"/>
			<circle cx="127.328" cy="327.83" r="2.612"/>
			<circle cx="137.881" cy="327.83" r="2.612"/>
			<circle cx="148.434" cy="327.83" r="2.612"/>
			<circle cx="158.986" cy="327.83" r="2.612"/>
			<circle cx="169.539" cy="327.83" r="2.612"/>
			<circle cx="180.092" cy="327.83" r="2.612"/>
			<circle cx="190.644" cy="327.83" r="2.612"/>
			<circle cx="201.197" cy="327.83" r="2.612"/>
			<circle cx="211.75" cy="327.83" r="2.612"/>
			<circle cx="222.302" cy="327.83" r="2.612"/>
			<circle cx="232.855" cy="327.83" r="2.612"/>
			<circle cx="243.408" cy="327.83" r="2.612"/>
			<circle cx="253.96" cy="327.83" r="2.612"/>
			<circle cx="264.513" cy="327.83" r="2.612"/>
			<circle cx="275.065" cy="327.83" r="2.612"/>
			<circle cx="285.618" cy="327.83" r="2.612"/>
			<circle cx="296.171" cy="327.83" r="2.612"/>
			<circle cx="306.724" cy="327.83" r="2.612"/>
			<circle cx="317.276" cy="327.83" r="2.612"/>
			<circle cx="327.829" cy="327.83" r="2.612"/>
			<circle cx="338.382" cy="327.83" r="2.612"/>
			<circle cx="348.935" cy="327.83" r="2.612"/>
			<circle cx="359.488" cy="327.83" r="2.612"/>
			<circle cx="370.04" cy="327.83" r="2.612"/>
			<circle cx="380.593" cy="327.83" r="2.612"/>
			<path d="M391.144,330.441c1.444,0,2.613-1.169,2.613-2.611s-1.169-2.612-2.613-2.612c-1.44,0-2.61,1.17-2.61,2.612
				S389.703,330.441,391.144,330.441z"/>
			<circle cx="401.697" cy="327.83" r="2.612"/>
			<circle cx="412.25" cy="327.83" r="2.612"/>
			<circle cx="422.803" cy="327.83" r="2.612"/>
			<circle cx="433.355" cy="327.83" r="2.612"/>
			<circle cx="443.908" cy="327.83" r="2.612"/>
			<circle cx="454.461" cy="327.83" r="2.612"/>
			<circle cx="465.014" cy="327.83" r="2.612"/>
			<circle cx="475.566" cy="327.83" r="2.612"/>
			<circle cx="486.119" cy="327.83" r="2.612"/>
			<circle cx="496.672" cy="327.83" r="2.612"/>
			<circle cx="507.225" cy="327.83" r="2.612"/>
			<circle cx="517.777" cy="327.83" r="2.612"/>
			<circle cx="528.33" cy="327.83" r="2.612"/>
			<circle cx="538.883" cy="327.83" r="2.612"/>
			<circle cx="549.436" cy="327.83" r="2.612"/>
			<circle cx="559.988" cy="327.83" r="2.612"/>
			<circle cx="32.354" cy="338.382" r="2.612"/>
			<circle cx="42.907" cy="338.382" r="2.612"/>
			<circle cx="53.459" cy="338.382" r="2.612"/>
			<circle cx="64.012" cy="338.382" r="2.612"/>
			<circle cx="74.565" cy="338.382" r="2.612"/>
			<circle cx="85.118" cy="338.382" r="2.612"/>
			<circle cx="95.67" cy="338.382" r="2.612"/>
			<circle cx="106.223" cy="338.382" r="2.612"/>
			<circle cx="116.776" cy="338.382" r="2.612"/>
			<circle cx="127.328" cy="338.382" r="2.612"/>
			<circle cx="137.881" cy="338.382" r="2.612"/>
			<circle cx="148.434" cy="338.382" r="2.612"/>
			<circle cx="158.986" cy="338.382" r="2.612"/>
			<circle cx="169.539" cy="338.382" r="2.612"/>
			<circle cx="180.092" cy="338.382" r="2.612"/>
			<circle cx="190.644" cy="338.382" r="2.612"/>
			<circle cx="201.197" cy="338.382" r="2.612"/>
			<circle cx="211.75" cy="338.382" r="2.612"/>
			<circle cx="222.302" cy="338.382" r="2.612"/>
			<circle cx="232.855" cy="338.382" r="2.612"/>
			<circle cx="243.408" cy="338.382" r="2.612"/>
			<circle cx="253.96" cy="338.382" r="2.612"/>
			<circle cx="264.513" cy="338.382" r="2.612"/>
			<circle cx="275.065" cy="338.382" r="2.612"/>
			<circle cx="285.618" cy="338.382" r="2.612"/>
			<circle cx="296.171" cy="338.382" r="2.612"/>
			<circle cx="306.724" cy="338.382" r="2.612"/>
			<circle cx="317.276" cy="338.382" r="2.612"/>
			<circle cx="327.829" cy="338.382" r="2.612"/>
			<circle cx="338.382" cy="338.382" r="2.612"/>
			<circle cx="348.935" cy="338.382" r="2.612"/>
			<circle cx="359.488" cy="338.382" r="2.612"/>
			<circle cx="370.04" cy="338.382" r="2.612"/>
			<circle cx="380.593" cy="338.382" r="2.612"/>
			<path d="M391.144,340.994c1.444,0,2.613-1.169,2.613-2.611s-1.169-2.612-2.613-2.612c-1.44,0-2.61,1.17-2.61,2.612
				S389.703,340.994,391.144,340.994z"/>
			<circle cx="401.697" cy="338.382" r="2.612"/>
			<circle cx="412.25" cy="338.382" r="2.612"/>
			<circle cx="422.803" cy="338.382" r="2.612"/>
			<circle cx="433.355" cy="338.382" r="2.612"/>
			<circle cx="443.908" cy="338.382" r="2.612"/>
			<circle cx="454.461" cy="338.382" r="2.612"/>
			<circle cx="465.014" cy="338.382" r="2.612"/>
			<circle cx="475.566" cy="338.382" r="2.612"/>
			<circle cx="486.119" cy="338.382" r="2.612"/>
			<circle cx="496.672" cy="338.382" r="2.612"/>
			<circle cx="507.225" cy="338.382" r="2.612"/>
			<circle cx="517.777" cy="338.382" r="2.612"/>
			<circle cx="528.33" cy="338.382" r="2.612"/>
			<circle cx="538.883" cy="338.382" r="2.612"/>
			<circle cx="32.354" cy="348.935" r="2.612"/>
			<circle cx="42.907" cy="348.935" r="2.612"/>
			<circle cx="53.459" cy="348.935" r="2.612"/>
			<circle cx="64.012" cy="348.935" r="2.612"/>
			<circle cx="74.565" cy="348.935" r="2.612"/>
			<circle cx="85.118" cy="348.935" r="2.612"/>
			<circle cx="95.67" cy="348.935" r="2.612"/>
			<circle cx="106.223" cy="348.935" r="2.612"/>
			<circle cx="116.776" cy="348.935" r="2.612"/>
			<circle cx="127.328" cy="348.935" r="2.612"/>
			<circle cx="137.881" cy="348.935" r="2.612"/>
			<circle cx="148.434" cy="348.935" r="2.612"/>
			<circle cx="158.986" cy="348.935" r="2.612"/>
			<circle cx="169.539" cy="348.935" r="2.612"/>
			<circle cx="180.092" cy="348.935" r="2.612"/>
			<circle cx="190.644" cy="348.935" r="2.612"/>
			<circle cx="201.197" cy="348.935" r="2.612"/>
			<circle cx="211.75" cy="348.935" r="2.612"/>
			<circle cx="222.302" cy="348.935" r="2.612"/>
			<circle cx="232.855" cy="348.935" r="2.612"/>
			<circle cx="243.408" cy="348.935" r="2.612"/>
			<circle cx="253.96" cy="348.935" r="2.612"/>
			<circle cx="264.513" cy="348.935" r="2.612"/>
			<circle cx="275.065" cy="348.935" r="2.612"/>
			<circle cx="285.618" cy="348.935" r="2.612"/>
			<circle cx="296.171" cy="348.935" r="2.612"/>
			<circle cx="306.724" cy="348.935" r="2.612"/>
			<circle cx="317.276" cy="348.935" r="2.612"/>
			<circle cx="327.829" cy="348.935" r="2.612"/>
			<circle cx="338.382" cy="348.935" r="2.612"/>
			<circle cx="348.935" cy="348.935" r="2.612"/>
			<circle cx="359.488" cy="348.935" r="2.612"/>
			<circle cx="370.04" cy="348.935" r="2.612"/>
			<circle cx="380.593" cy="348.935" r="2.612"/>
			<path d="M391.144,351.547c1.444,0,2.613-1.169,2.613-2.612c0-1.441-1.169-2.611-2.613-2.611c-1.44,0-2.61,1.17-2.61,2.611
				C388.533,350.378,389.703,351.547,391.144,351.547z"/>
			<circle cx="401.697" cy="348.935" r="2.612"/>
			<circle cx="412.25" cy="348.935" r="2.612"/>
			<circle cx="422.803" cy="348.935" r="2.612"/>
			<circle cx="433.355" cy="348.935" r="2.612"/>
			<circle cx="443.908" cy="348.935" r="2.612"/>
			<circle cx="454.461" cy="348.935" r="2.612"/>
			<circle cx="465.014" cy="348.935" r="2.612"/>
			<circle cx="475.566" cy="348.935" r="2.612"/>
			<circle cx="486.119" cy="348.935" r="2.612"/>
			<circle cx="496.672" cy="348.935" r="2.612"/>
			<circle cx="507.225" cy="348.935" r="2.612"/>
			<circle cx="517.777" cy="348.935" r="2.612"/>
			<circle cx="528.33" cy="348.935" r="2.612"/>
			<circle cx="11.249" cy="359.488" r="2.612"/>
			<circle cx="21.802" cy="359.488" r="2.612"/>
			<circle cx="32.354" cy="359.488" r="2.612"/>
			<circle cx="42.907" cy="359.488" r="2.612"/>
			<circle cx="53.459" cy="359.488" r="2.612"/>
			<circle cx="64.012" cy="359.488" r="2.612"/>
			<circle cx="74.565" cy="359.488" r="2.612"/>
			<circle cx="85.118" cy="359.488" r="2.612"/>
			<circle cx="95.67" cy="359.488" r="2.612"/>
			<circle cx="106.223" cy="359.488" r="2.612"/>
			<circle cx="116.776" cy="359.488" r="2.612"/>
			<circle cx="127.328" cy="359.488" r="2.612"/>
			<circle cx="137.881" cy="359.488" r="2.612"/>
			<circle cx="148.434" cy="359.488" r="2.612"/>
			<circle cx="158.986" cy="359.488" r="2.612"/>
			<circle cx="169.539" cy="359.488" r="2.612"/>
			<circle cx="180.092" cy="359.488" r="2.612"/>
			<circle cx="190.644" cy="359.488" r="2.612"/>
			<circle cx="201.197" cy="359.488" r="2.612"/>
			<circle cx="211.75" cy="359.488" r="2.612"/>
			<circle cx="222.302" cy="359.488" r="2.612"/>
			<circle cx="232.855" cy="359.488" r="2.612"/>
			<circle cx="243.408" cy="359.488" r="2.612"/>
			<circle cx="253.96" cy="359.488" r="2.612"/>
			<circle cx="264.513" cy="359.488" r="2.612"/>
			<circle cx="275.065" cy="359.488" r="2.612"/>
			<circle cx="285.618" cy="359.488" r="2.612"/>
			<circle cx="296.171" cy="359.488" r="2.612"/>
			<circle cx="306.724" cy="359.488" r="2.612"/>
			<circle cx="317.276" cy="359.488" r="2.612"/>
			<circle cx="327.829" cy="359.488" r="2.612"/>
			<circle cx="338.382" cy="359.488" r="2.612"/>
			<circle cx="348.935" cy="359.488" r="2.612"/>
			<circle cx="359.488" cy="359.488" r="2.612"/>
			<circle cx="370.04" cy="359.488" r="2.612"/>
			<circle cx="380.593" cy="359.488" r="2.612"/>
			<path d="M391.144,362.1c1.444,0,2.613-1.17,2.613-2.612s-1.169-2.611-2.613-2.611c-1.44,0-2.61,1.169-2.61,2.611
				S389.703,362.1,391.144,362.1z"/>
			<circle cx="401.697" cy="359.488" r="2.612"/>
			<circle cx="412.25" cy="359.488" r="2.612"/>
			<circle cx="422.803" cy="359.488" r="2.612"/>
			<circle cx="433.355" cy="359.488" r="2.612"/>
			<circle cx="443.908" cy="359.488" r="2.612"/>
			<circle cx="454.461" cy="359.488" r="2.612"/>
			<circle cx="465.014" cy="359.488" r="2.612"/>
			<circle cx="475.566" cy="359.488" r="2.612"/>
			<circle cx="486.119" cy="359.488" r="2.612"/>
			<circle cx="496.672" cy="359.488" r="2.612"/>
			<circle cx="507.225" cy="359.488" r="2.612"/>
			<circle cx="517.777" cy="359.488" r="2.612"/>
			<circle cx="11.249" cy="370.041" r="2.612"/>
			<circle cx="21.802" cy="370.041" r="2.612"/>
			<circle cx="32.354" cy="370.041" r="2.612"/>
			<circle cx="42.907" cy="370.041" r="2.612"/>
			<circle cx="53.459" cy="370.041" r="2.612"/>
			<circle cx="64.012" cy="370.041" r="2.612"/>
			<circle cx="74.565" cy="370.041" r="2.612"/>
			<circle cx="85.118" cy="370.041" r="2.612"/>
			<circle cx="95.67" cy="370.041" r="2.612"/>
			<circle cx="106.223" cy="370.041" r="2.612"/>
			<circle cx="116.776" cy="370.041" r="2.612"/>
			<circle cx="127.328" cy="370.041" r="2.612"/>
			<circle cx="137.881" cy="370.041" r="2.612"/>
			<circle cx="148.434" cy="370.041" r="2.612"/>
			<circle cx="158.986" cy="370.041" r="2.612"/>
			<circle cx="169.539" cy="370.041" r="2.612"/>
			<circle cx="180.092" cy="370.041" r="2.612"/>
			<circle cx="190.644" cy="370.041" r="2.612"/>
			<circle cx="201.197" cy="370.041" r="2.612"/>
			<circle cx="211.75" cy="370.041" r="2.612"/>
			<circle cx="222.302" cy="370.041" r="2.612"/>
			<circle cx="232.855" cy="370.041" r="2.612"/>
			<circle cx="243.408" cy="370.041" r="2.612"/>
			<circle cx="253.96" cy="370.041" r="2.612"/>
			<circle cx="264.513" cy="370.041" r="2.612"/>
			<circle cx="275.065" cy="370.041" r="2.612"/>
			<circle cx="285.618" cy="370.041" r="2.612"/>
			<circle cx="296.171" cy="370.041" r="2.612"/>
			<circle cx="306.724" cy="370.041" r="2.612"/>
			<circle cx="317.276" cy="370.041" r="2.612"/>
			<circle cx="327.829" cy="370.041" r="2.612"/>
			<circle cx="338.382" cy="370.041" r="2.612"/>
			<circle cx="348.935" cy="370.041" r="2.612"/>
			<circle cx="359.488" cy="370.041" r="2.612"/>
			<circle cx="370.04" cy="370.041" r="2.612"/>
			<circle cx="380.593" cy="370.041" r="2.612"/>
			<path d="M391.144,372.652c1.444,0,2.613-1.17,2.613-2.612s-1.169-2.611-2.613-2.611c-1.44,0-2.61,1.169-2.61,2.611
				S389.703,372.652,391.144,372.652z"/>
			<circle cx="401.697" cy="370.041" r="2.612"/>
			<circle cx="412.25" cy="370.041" r="2.612"/>
			<circle cx="422.803" cy="370.041" r="2.612"/>
			<circle cx="433.355" cy="370.041" r="2.612"/>
			<circle cx="443.908" cy="370.041" r="2.612"/>
			<circle cx="454.461" cy="370.041" r="2.612"/>
			<circle cx="465.014" cy="370.041" r="2.612"/>
			<circle cx="475.566" cy="370.041" r="2.612"/>
			<circle cx="486.119" cy="370.041" r="2.612"/>
			<circle cx="496.672" cy="370.041" r="2.612"/>
			<circle cx="507.225" cy="370.041" r="2.612"/>
			<circle cx="11.249" cy="380.593" r="2.612"/>
			<circle cx="21.802" cy="380.593" r="2.612"/>
			<circle cx="32.354" cy="380.593" r="2.612"/>
			<circle cx="42.907" cy="380.593" r="2.612"/>
			<circle cx="53.459" cy="380.593" r="2.612"/>
			<circle cx="64.012" cy="380.593" r="2.612"/>
			<circle cx="74.565" cy="380.593" r="2.612"/>
			<circle cx="85.118" cy="380.593" r="2.612"/>
			<circle cx="95.67" cy="380.593" r="2.612"/>
			<circle cx="106.223" cy="380.593" r="2.612"/>
			<circle cx="116.776" cy="380.593" r="2.612"/>
			<circle cx="127.328" cy="380.593" r="2.612"/>
			<circle cx="137.881" cy="380.593" r="2.612"/>
			<circle cx="148.434" cy="380.593" r="2.612"/>
			<circle cx="158.986" cy="380.593" r="2.612"/>
			<circle cx="169.539" cy="380.593" r="2.612"/>
			<circle cx="180.092" cy="380.593" r="2.612"/>
			<circle cx="190.644" cy="380.593" r="2.612"/>
			<circle cx="201.197" cy="380.593" r="2.612"/>
			<circle cx="211.75" cy="380.593" r="2.612"/>
			<circle cx="222.302" cy="380.593" r="2.612"/>
			<circle cx="232.855" cy="380.593" r="2.612"/>
			<circle cx="243.408" cy="380.593" r="2.612"/>
			<circle cx="253.96" cy="380.593" r="2.612"/>
			<circle cx="264.513" cy="380.593" r="2.612"/>
			<circle cx="275.065" cy="380.593" r="2.612"/>
			<circle cx="285.618" cy="380.593" r="2.612"/>
			<circle cx="296.171" cy="380.593" r="2.612"/>
			<circle cx="306.724" cy="380.593" r="2.612"/>
			<circle cx="317.276" cy="380.593" r="2.612"/>
			<circle cx="327.829" cy="380.593" r="2.612"/>
			<circle cx="338.382" cy="380.593" r="2.612"/>
			<circle cx="348.935" cy="380.593" r="2.612"/>
			<circle cx="359.488" cy="380.593" r="2.612"/>
			<circle cx="370.04" cy="380.593" r="2.612"/>
			<circle cx="380.593" cy="380.593" r="2.612"/>
			<path d="M391.144,383.205c1.444,0,2.613-1.17,2.613-2.612s-1.169-2.611-2.613-2.611c-1.44,0-2.61,1.169-2.61,2.611
				S389.703,383.205,391.144,383.205z"/>
			<circle cx="401.697" cy="380.593" r="2.612"/>
			<circle cx="412.25" cy="380.593" r="2.612"/>
			<circle cx="422.803" cy="380.593" r="2.612"/>
			<circle cx="433.355" cy="380.593" r="2.612"/>
			<circle cx="443.908" cy="380.593" r="2.612"/>
			<circle cx="454.461" cy="380.593" r="2.612"/>
			<circle cx="465.014" cy="380.593" r="2.612"/>
			<circle cx="475.566" cy="380.593" r="2.612"/>
			<circle cx="486.119" cy="380.593" r="2.612"/>
			<circle cx="496.672" cy="380.593" r="2.612"/>
			<circle cx="32.354" cy="391.146" r="2.612"/>
			<circle cx="42.907" cy="391.146" r="2.612"/>
			<circle cx="53.459" cy="391.146" r="2.612"/>
			<circle cx="64.012" cy="391.146" r="2.612"/>
			<circle cx="74.565" cy="391.146" r="2.612"/>
			<circle cx="85.118" cy="391.146" r="2.612"/>
			<circle cx="95.67" cy="391.146" r="2.612"/>
			<circle cx="106.223" cy="391.146" r="2.612"/>
			<circle cx="127.328" cy="391.146" r="2.612"/>
			<circle cx="137.881" cy="391.146" r="2.612"/>
			<circle cx="148.434" cy="391.146" r="2.612"/>
			<circle cx="158.986" cy="391.146" r="2.612"/>
			<circle cx="169.539" cy="391.146" r="2.612"/>
			<circle cx="180.092" cy="391.146" r="2.612"/>
			<circle cx="190.644" cy="391.146" r="2.612"/>
			<circle cx="201.197" cy="391.146" r="2.612"/>
			<circle cx="211.75" cy="391.146" r="2.612"/>
			<circle cx="222.302" cy="391.146" r="2.612"/>
			<circle cx="232.855" cy="391.146" r="2.612"/>
			<circle cx="243.408" cy="391.146" r="2.612"/>
			<circle cx="253.96" cy="391.146" r="2.612"/>
			<circle cx="264.513" cy="391.146" r="2.612"/>
			<circle cx="275.065" cy="391.146" r="2.612"/>
			<circle cx="285.618" cy="391.146" r="2.612"/>
			<circle cx="296.171" cy="391.146" r="2.612"/>
			<circle cx="306.724" cy="391.146" r="2.612"/>
			<circle cx="317.276" cy="391.146" r="2.612"/>
			<circle cx="327.829" cy="391.146" r="2.612"/>
			<circle cx="338.382" cy="391.146" r="2.612"/>
			<circle cx="348.935" cy="391.146" r="2.612"/>
			<circle cx="359.488" cy="391.146" r="2.612"/>
			<circle cx="370.04" cy="391.146" r="2.612"/>
			<circle cx="380.593" cy="391.146" r="2.612"/>
			<path d="M391.144,393.758c1.444,0,2.613-1.17,2.613-2.612s-1.169-2.611-2.613-2.611c-1.44,0-2.61,1.169-2.61,2.611
				S389.703,393.758,391.144,393.758z"/>
			<circle cx="401.697" cy="391.146" r="2.612"/>
			<circle cx="412.25" cy="391.146" r="2.612"/>
			<circle cx="422.803" cy="391.146" r="2.612"/>
			<circle cx="433.355" cy="391.146" r="2.612"/>
			<circle cx="443.908" cy="391.146" r="2.612"/>
			<circle cx="454.461" cy="391.146" r="2.612"/>
			<circle cx="465.014" cy="391.146" r="2.612"/>
			<circle cx="475.566" cy="391.146" r="2.612"/>
			<circle cx="53.459" cy="401.698" r="2.611"/>
			<circle cx="64.012" cy="401.698" r="2.611"/>
			<circle cx="74.565" cy="401.698" r="2.611"/>
			<circle cx="85.118" cy="401.698" r="2.611"/>
			<circle cx="95.67" cy="401.698" r="2.611"/>
			<circle cx="106.223" cy="401.698" r="2.611"/>
			<circle cx="127.328" cy="401.698" r="2.611"/>
			<circle cx="137.881" cy="401.698" r="2.611"/>
			<circle cx="148.434" cy="401.698" r="2.611"/>
			<circle cx="158.986" cy="401.698" r="2.611"/>
			<circle cx="169.539" cy="401.698" r="2.611"/>
			<circle cx="180.092" cy="401.698" r="2.611"/>
			<circle cx="190.644" cy="401.698" r="2.611"/>
			<circle cx="201.197" cy="401.698" r="2.611"/>
			<circle cx="211.75" cy="401.698" r="2.611"/>
			<circle cx="222.302" cy="401.698" r="2.611"/>
			<circle cx="232.855" cy="401.698" r="2.611"/>
			<circle cx="243.408" cy="401.698" r="2.611"/>
			<circle cx="253.96" cy="401.698" r="2.611"/>
			<circle cx="264.513" cy="401.698" r="2.611"/>
			<circle cx="275.065" cy="401.698" r="2.611"/>
			<circle cx="285.618" cy="401.698" r="2.611"/>
			<circle cx="296.171" cy="401.698" r="2.611"/>
			<circle cx="306.724" cy="401.698" r="2.611"/>
			<circle cx="317.276" cy="401.698" r="2.611"/>
			<circle cx="327.829" cy="401.698" r="2.611"/>
			<circle cx="338.382" cy="401.698" r="2.611"/>
			<circle cx="348.935" cy="401.698" r="2.611"/>
			<circle cx="359.488" cy="401.698" r="2.611"/>
			<circle cx="370.04" cy="401.698" r="2.611"/>
			<circle cx="380.593" cy="401.698" r="2.611"/>
			<path d="M391.144,404.31c1.444,0,2.613-1.169,2.613-2.611s-1.169-2.611-2.613-2.611c-1.44,0-2.61,1.169-2.61,2.611
				S389.703,404.31,391.144,404.31z"/>
			<circle cx="401.697" cy="401.698" r="2.611"/>
			<circle cx="412.25" cy="401.698" r="2.611"/>
			<circle cx="422.803" cy="401.698" r="2.611"/>
			<circle cx="433.355" cy="401.698" r="2.611"/>
			<circle cx="443.908" cy="401.698" r="2.611"/>
			<circle cx="454.461" cy="401.698" r="2.611"/>
			<circle cx="64.012" cy="412.251" r="2.611"/>
			<circle cx="74.565" cy="412.251" r="2.611"/>
			<circle cx="85.118" cy="412.251" r="2.611"/>
			<circle cx="95.67" cy="412.251" r="2.611"/>
			<circle cx="106.223" cy="412.251" r="2.611"/>
			<circle cx="116.776" cy="412.251" r="2.611"/>
			<circle cx="137.881" cy="412.251" r="2.611"/>
			<circle cx="148.434" cy="412.251" r="2.611"/>
			<circle cx="158.986" cy="412.251" r="2.611"/>
			<circle cx="169.539" cy="412.251" r="2.611"/>
			<circle cx="180.092" cy="412.251" r="2.611"/>
			<circle cx="190.644" cy="412.251" r="2.611"/>
			<circle cx="201.197" cy="412.251" r="2.611"/>
			<circle cx="211.75" cy="412.251" r="2.611"/>
			<circle cx="222.302" cy="412.251" r="2.611"/>
			<circle cx="232.855" cy="412.251" r="2.611"/>
			<circle cx="243.408" cy="412.251" r="2.611"/>
			<circle cx="253.96" cy="412.251" r="2.611"/>
			<circle cx="264.513" cy="412.251" r="2.611"/>
			<circle cx="275.065" cy="412.251" r="2.611"/>
			<circle cx="285.618" cy="412.251" r="2.611"/>
			<circle cx="296.171" cy="412.251" r="2.611"/>
			<circle cx="306.724" cy="412.251" r="2.611"/>
			<circle cx="317.276" cy="412.251" r="2.611"/>
			<circle cx="327.829" cy="412.251" r="2.611"/>
			<circle cx="338.382" cy="412.251" r="2.611"/>
			<circle cx="348.935" cy="412.251" r="2.611"/>
			<circle cx="359.488" cy="412.251" r="2.611"/>
			<circle cx="370.04" cy="412.251" r="2.611"/>
			<circle cx="380.593" cy="412.251" r="2.611"/>
			<path d="M391.144,414.862c1.444,0,2.613-1.169,2.613-2.611s-1.169-2.611-2.613-2.611c-1.44,0-2.61,1.169-2.61,2.611
				S389.703,414.862,391.144,414.862z"/>
			<circle cx="401.697" cy="412.251" r="2.611"/>
			<circle cx="412.25" cy="412.251" r="2.611"/>
			<circle cx="422.803" cy="412.251" r="2.611"/>
			<circle cx="433.355" cy="412.251" r="2.611"/>
			<circle cx="85.118" cy="422.804" r="2.611"/>
			<circle cx="95.67" cy="422.804" r="2.611"/>
			<circle cx="106.223" cy="422.804" r="2.611"/>
			<circle cx="116.776" cy="422.804" r="2.611"/>
			<circle cx="137.881" cy="422.804" r="2.611"/>
			<circle cx="148.434" cy="422.804" r="2.611"/>
			<circle cx="158.986" cy="422.804" r="2.611"/>
			<circle cx="169.539" cy="422.804" r="2.611"/>
			<circle cx="180.092" cy="422.804" r="2.611"/>
			<circle cx="190.644" cy="422.804" r="2.611"/>
			<circle cx="201.197" cy="422.804" r="2.611"/>
			<circle cx="211.75" cy="422.804" r="2.611"/>
			<circle cx="222.302" cy="422.804" r="2.611"/>
			<circle cx="232.855" cy="422.804" r="2.611"/>
			<circle cx="243.408" cy="422.804" r="2.611"/>
			<circle cx="253.96" cy="422.804" r="2.611"/>
			<circle cx="264.513" cy="422.804" r="2.611"/>
			<circle cx="275.065" cy="422.804" r="2.611"/>
			<circle cx="285.618" cy="422.804" r="2.611"/>
			<circle cx="296.171" cy="422.804" r="2.611"/>
			<circle cx="306.724" cy="422.804" r="2.611"/>
			<circle cx="317.276" cy="422.804" r="2.611"/>
			<circle cx="327.829" cy="422.804" r="2.611"/>
			<circle cx="338.382" cy="422.804" r="2.611"/>
			<circle cx="348.935" cy="422.804" r="2.611"/>
			<circle cx="359.488" cy="422.804" r="2.611"/>
			<circle cx="370.04" cy="422.804" r="2.611"/>
			<circle cx="380.593" cy="422.804" r="2.611"/>
			<path d="M391.144,425.415c1.444,0,2.613-1.169,2.613-2.611s-1.169-2.611-2.613-2.611c-1.44,0-2.61,1.169-2.61,2.611
				S389.703,425.415,391.144,425.415z"/>
			<circle cx="401.697" cy="422.804" r="2.611"/>
			<circle cx="85.118" cy="433.356" r="2.611"/>
			<circle cx="95.67" cy="433.356" r="2.611"/>
			<circle cx="106.223" cy="433.356" r="2.611"/>
			<circle cx="116.776" cy="433.356" r="2.611"/>
			<circle cx="137.881" cy="433.356" r="2.611"/>
			<circle cx="148.434" cy="433.356" r="2.611"/>
			<circle cx="158.986" cy="433.356" r="2.611"/>
			<circle cx="169.539" cy="433.356" r="2.611"/>
			<circle cx="180.092" cy="433.356" r="2.611"/>
			<circle cx="190.644" cy="433.356" r="2.611"/>
			<circle cx="201.197" cy="433.356" r="2.611"/>
			<circle cx="211.75" cy="433.356" r="2.611"/>
			<circle cx="222.302" cy="433.356" r="2.611"/>
			<circle cx="232.855" cy="433.356" r="2.611"/>
			<circle cx="243.408" cy="433.356" r="2.611"/>
			<circle cx="253.96" cy="433.356" r="2.611"/>
			<circle cx="264.513" cy="433.356" r="2.611"/>
			<circle cx="275.065" cy="433.356" r="2.611"/>
			<circle cx="285.618" cy="433.356" r="2.611"/>
			<circle cx="296.171" cy="433.356" r="2.611"/>
			<circle cx="306.724" cy="433.356" r="2.611"/>
			<circle cx="317.276" cy="433.356" r="2.611"/>
			<circle cx="327.829" cy="433.356" r="2.611"/>
			<circle cx="338.382" cy="433.356" r="2.611"/>
			<circle cx="348.935" cy="433.356" r="2.611"/>
			<circle cx="359.488" cy="433.356" r="2.611"/>
			<circle cx="370.04" cy="433.356" r="2.611"/>
			<circle cx="85.118" cy="443.909" r="2.611"/>
			<circle cx="95.67" cy="443.909" r="2.611"/>
			<circle cx="106.223" cy="443.909" r="2.611"/>
			<circle cx="116.776" cy="443.909" r="2.611"/>
			<circle cx="137.881" cy="443.909" r="2.611"/>
			<circle cx="148.434" cy="443.909" r="2.611"/>
			<circle cx="158.986" cy="443.909" r="2.611"/>
			<circle cx="169.539" cy="443.909" r="2.611"/>
			<circle cx="180.092" cy="443.909" r="2.611"/>
			<circle cx="190.644" cy="443.909" r="2.611"/>
			<circle cx="201.197" cy="443.909" r="2.611"/>
			<circle cx="211.75" cy="443.909" r="2.611"/>
			<circle cx="222.302" cy="443.909" r="2.611"/>
			<circle cx="232.855" cy="443.909" r="2.611"/>
			<circle cx="243.408" cy="443.909" r="2.611"/>
			<circle cx="253.96" cy="443.909" r="2.611"/>
			<circle cx="264.513" cy="443.909" r="2.611"/>
			<circle cx="275.065" cy="443.909" r="2.611"/>
			<circle cx="285.618" cy="443.909" r="2.611"/>
			<circle cx="296.171" cy="443.909" r="2.611"/>
			<circle cx="306.724" cy="443.909" r="2.611"/>
			<circle cx="317.276" cy="443.909" r="2.611"/>
			<circle cx="327.829" cy="443.909" r="2.611"/>
			<circle cx="338.382" cy="443.909" r="2.611"/>
			<circle cx="85.118" cy="454.461" r="2.612"/>
			<circle cx="95.67" cy="454.461" r="2.612"/>
			<circle cx="106.223" cy="454.461" r="2.612"/>
			<circle cx="127.328" cy="454.461" r="2.612"/>
			<circle cx="137.881" cy="454.461" r="2.612"/>
			<circle cx="148.434" cy="454.461" r="2.612"/>
			<circle cx="158.986" cy="454.461" r="2.612"/>
			<circle cx="169.539" cy="454.461" r="2.612"/>
			<circle cx="180.092" cy="454.461" r="2.612"/>
			<circle cx="190.644" cy="454.461" r="2.612"/>
			<circle cx="201.197" cy="454.461" r="2.612"/>
			<circle cx="211.75" cy="454.461" r="2.612"/>
			<circle cx="222.302" cy="454.461" r="2.612"/>
			<circle cx="232.855" cy="454.461" r="2.612"/>
			<circle cx="243.408" cy="454.461" r="2.612"/>
			<circle cx="253.96" cy="454.461" r="2.612"/>
			<circle cx="264.513" cy="454.461" r="2.612"/>
			<circle cx="275.065" cy="454.461" r="2.612"/>
			<circle cx="285.618" cy="454.461" r="2.612"/>
			<circle cx="296.171" cy="454.461" r="2.612"/>
			<circle cx="306.724" cy="454.461" r="2.612"/>
			<circle cx="317.276" cy="454.461" r="2.612"/>
			<circle cx="327.829" cy="454.461" r="2.612"/>
			<circle cx="116.776" cy="465.014" r="2.612"/>
			<circle cx="127.328" cy="465.014" r="2.612"/>
			<circle cx="137.881" cy="465.014" r="2.612"/>
			<circle cx="148.434" cy="465.014" r="2.612"/>
			<circle cx="158.986" cy="465.014" r="2.612"/>
			<circle cx="169.539" cy="465.014" r="2.612"/>
			<circle cx="180.092" cy="465.014" r="2.612"/>
			<circle cx="190.644" cy="465.014" r="2.612"/>
			<circle cx="201.197" cy="465.014" r="2.612"/>
			<circle cx="211.75" cy="465.014" r="2.612"/>
			<circle cx="222.302" cy="465.014" r="2.612"/>
			<circle cx="232.855" cy="465.014" r="2.612"/>
			<circle cx="243.408" cy="465.014" r="2.612"/>
			<circle cx="253.96" cy="465.014" r="2.612"/>
			<circle cx="264.513" cy="465.014" r="2.612"/>
			<circle cx="275.065" cy="465.014" r="2.612"/>
			<circle cx="285.618" cy="465.014" r="2.612"/>
			<circle cx="296.171" cy="465.014" r="2.612"/>
			<circle cx="306.724" cy="465.014" r="2.612"/>
			<circle cx="317.276" cy="465.014" r="2.612"/>
			<circle cx="106.223" cy="475.567" r="2.612"/>
			<circle cx="116.776" cy="475.567" r="2.612"/>
			<circle cx="127.328" cy="475.567" r="2.612"/>
			<circle cx="137.881" cy="475.567" r="2.612"/>
			<circle cx="148.434" cy="475.567" r="2.612"/>
			<circle cx="158.986" cy="475.567" r="2.612"/>
			<circle cx="169.539" cy="475.567" r="2.612"/>
			<circle cx="180.092" cy="475.567" r="2.612"/>
			<circle cx="190.644" cy="475.567" r="2.612"/>
			<circle cx="201.197" cy="475.567" r="2.612"/>
			<circle cx="211.75" cy="475.567" r="2.612"/>
			<circle cx="222.302" cy="475.567" r="2.612"/>
			<circle cx="232.855" cy="475.567" r="2.612"/>
			<circle cx="243.408" cy="475.567" r="2.612"/>
			<circle cx="253.96" cy="475.567" r="2.612"/>
			<circle cx="264.513" cy="475.567" r="2.612"/>
			<circle cx="275.065" cy="475.567" r="2.612"/>
			<circle cx="285.618" cy="475.567" r="2.612"/>
			<circle cx="296.171" cy="475.567" r="2.612"/>
			<circle cx="306.724" cy="475.567" r="2.612"/>
			<circle cx="317.276" cy="475.567" r="2.612"/>
			<circle cx="106.223" cy="486.12" r="2.612"/>
			<circle cx="116.776" cy="486.12" r="2.612"/>
			<circle cx="127.328" cy="486.12" r="2.612"/>
			<circle cx="137.881" cy="486.12" r="2.612"/>
			<circle cx="148.434" cy="486.12" r="2.612"/>
			<circle cx="158.986" cy="486.12" r="2.612"/>
			<circle cx="169.539" cy="486.12" r="2.612"/>
			<circle cx="180.092" cy="486.12" r="2.612"/>
			<circle cx="190.644" cy="486.12" r="2.612"/>
			<circle cx="201.197" cy="486.12" r="2.612"/>
			<circle cx="211.75" cy="486.12" r="2.612"/>
			<circle cx="222.302" cy="486.12" r="2.612"/>
			<circle cx="232.855" cy="486.12" r="2.612"/>
			<circle cx="243.408" cy="486.12" r="2.612"/>
			<circle cx="253.96" cy="486.12" r="2.612"/>
			<circle cx="264.513" cy="486.12" r="2.612"/>
			<circle cx="275.065" cy="486.12" r="2.612"/>
			<circle cx="285.618" cy="486.12" r="2.612"/>
			<circle cx="296.171" cy="486.12" r="2.612"/>
			<circle cx="306.724" cy="486.12" r="2.612"/>
			<circle cx="116.776" cy="496.672" r="2.612"/>
			<circle cx="127.328" cy="496.672" r="2.612"/>
			<circle cx="137.881" cy="496.672" r="2.612"/>
			<circle cx="148.434" cy="496.672" r="2.612"/>
			<circle cx="158.986" cy="496.672" r="2.612"/>
			<circle cx="169.539" cy="496.672" r="2.612"/>
			<circle cx="180.092" cy="496.672" r="2.612"/>
			<circle cx="190.644" cy="496.672" r="2.612"/>
			<circle cx="201.197" cy="496.672" r="2.612"/>
			<circle cx="211.75" cy="496.672" r="2.612"/>
			<circle cx="222.302" cy="496.672" r="2.612"/>
			<circle cx="232.855" cy="496.672" r="2.612"/>
			<circle cx="243.408" cy="496.672" r="2.612"/>
			<circle cx="253.96" cy="496.672" r="2.612"/>
			<circle cx="264.513" cy="496.672" r="2.612"/>
			<circle cx="275.065" cy="496.672" r="2.612"/>
			<circle cx="285.618" cy="496.672" r="2.612"/>
			<circle cx="296.171" cy="496.672" r="2.612"/>
			<circle cx="306.724" cy="496.672" r="2.612"/>
			<circle cx="116.776" cy="507.225" r="2.612"/>
			<circle cx="127.328" cy="507.225" r="2.612"/>
			<circle cx="137.881" cy="507.225" r="2.612"/>
			<circle cx="148.434" cy="507.225" r="2.612"/>
			<circle cx="158.986" cy="507.225" r="2.612"/>
			<circle cx="169.539" cy="507.225" r="2.612"/>
			<circle cx="180.092" cy="507.225" r="2.612"/>
			<circle cx="190.644" cy="507.225" r="2.612"/>
			<circle cx="201.197" cy="507.225" r="2.612"/>
			<circle cx="211.75" cy="507.225" r="2.612"/>
			<circle cx="222.302" cy="507.225" r="2.612"/>
			<circle cx="232.855" cy="507.225" r="2.612"/>
			<circle cx="243.408" cy="507.225" r="2.612"/>
			<circle cx="253.96" cy="507.225" r="2.612"/>
			<circle cx="264.513" cy="507.225" r="2.612"/>
			<circle cx="275.065" cy="507.225" r="2.612"/>
			<circle cx="285.618" cy="507.225" r="2.612"/>
			<circle cx="296.171" cy="507.225" r="2.612"/>
			<circle cx="95.67" cy="517.778" r="2.612"/>
			<circle cx="106.223" cy="517.778" r="2.612"/>
			<circle cx="116.776" cy="517.778" r="2.612"/>
			<circle cx="127.328" cy="517.778" r="2.612"/>
			<circle cx="137.881" cy="517.778" r="2.612"/>
			<circle cx="148.434" cy="517.778" r="2.612"/>
			<circle cx="158.986" cy="517.778" r="2.612"/>
			<circle cx="169.539" cy="517.778" r="2.612"/>
			<circle cx="180.092" cy="517.778" r="2.612"/>
			<circle cx="190.644" cy="517.778" r="2.612"/>
			<circle cx="201.197" cy="517.778" r="2.612"/>
			<circle cx="211.75" cy="517.778" r="2.612"/>
			<circle cx="222.302" cy="517.778" r="2.612"/>
			<circle cx="232.855" cy="517.778" r="2.612"/>
			<circle cx="243.408" cy="517.778" r="2.612"/>
			<circle cx="253.96" cy="517.778" r="2.612"/>
			<circle cx="264.513" cy="517.778" r="2.612"/>
			<circle cx="275.065" cy="517.778" r="2.612"/>
			<circle cx="285.618" cy="517.778" r="2.612"/>
			<circle cx="296.171" cy="517.778" r="2.612"/>
			<circle cx="85.118" cy="528.331" r="2.612"/>
			<circle cx="95.67" cy="528.331" r="2.612"/>
			<circle cx="106.223" cy="528.331" r="2.612"/>
			<circle cx="116.776" cy="528.331" r="2.612"/>
			<circle cx="127.328" cy="528.331" r="2.612"/>
			<circle cx="137.881" cy="528.331" r="2.612"/>
			<circle cx="148.434" cy="528.331" r="2.612"/>
			<circle cx="158.986" cy="528.331" r="2.612"/>
			<circle cx="169.539" cy="528.331" r="2.612"/>
			<circle cx="180.092" cy="528.331" r="2.612"/>
			<circle cx="190.644" cy="528.331" r="2.612"/>
			<circle cx="201.197" cy="528.331" r="2.612"/>
			<circle cx="211.75" cy="528.331" r="2.612"/>
			<circle cx="222.302" cy="528.331" r="2.612"/>
			<circle cx="232.855" cy="528.331" r="2.612"/>
			<circle cx="243.408" cy="528.331" r="2.612"/>
			<circle cx="253.96" cy="528.331" r="2.612"/>
			<circle cx="264.513" cy="528.331" r="2.612"/>
			<circle cx="275.065" cy="528.331" r="2.612"/>
			<circle cx="285.618" cy="528.331" r="2.612"/>
			<circle cx="85.118" cy="538.883" r="2.612"/>
			<circle cx="95.67" cy="538.883" r="2.612"/>
			<circle cx="106.223" cy="538.883" r="2.612"/>
			<circle cx="116.776" cy="538.883" r="2.612"/>
			<circle cx="127.328" cy="538.883" r="2.612"/>
			<circle cx="137.881" cy="538.883" r="2.612"/>
			<circle cx="148.434" cy="538.883" r="2.612"/>
			<circle cx="158.986" cy="538.883" r="2.612"/>
			<circle cx="169.539" cy="538.883" r="2.612"/>
			<circle cx="180.092" cy="538.883" r="2.612"/>
			<circle cx="190.644" cy="538.883" r="2.612"/>
			<circle cx="201.197" cy="538.883" r="2.612"/>
			<circle cx="211.75" cy="538.883" r="2.612"/>
			<circle cx="222.302" cy="538.883" r="2.612"/>
			<circle cx="232.855" cy="538.883" r="2.612"/>
			<circle cx="243.408" cy="538.883" r="2.612"/>
			<circle cx="253.96" cy="538.883" r="2.612"/>
			<circle cx="264.513" cy="538.883" r="2.612"/>
			<circle cx="275.065" cy="538.883" r="2.612"/>
			<circle cx="285.618" cy="538.883" r="2.612"/>
			<circle cx="85.118" cy="549.436" r="2.612"/>
			<circle cx="95.67" cy="549.436" r="2.612"/>
			<circle cx="106.223" cy="549.436" r="2.612"/>
			<circle cx="116.776" cy="549.436" r="2.612"/>
			<circle cx="127.328" cy="549.436" r="2.612"/>
			<circle cx="137.881" cy="549.436" r="2.612"/>
			<circle cx="148.434" cy="549.436" r="2.612"/>
			<circle cx="158.986" cy="549.436" r="2.612"/>
			<circle cx="169.539" cy="549.436" r="2.612"/>
			<circle cx="180.092" cy="549.436" r="2.612"/>
			<circle cx="190.644" cy="549.436" r="2.612"/>
			<circle cx="201.197" cy="549.436" r="2.612"/>
			<circle cx="211.75" cy="549.436" r="2.612"/>
			<circle cx="222.302" cy="549.436" r="2.612"/>
			<circle cx="232.855" cy="549.436" r="2.612"/>
			<circle cx="243.408" cy="549.436" r="2.612"/>
			<circle cx="253.96" cy="549.436" r="2.612"/>
			<circle cx="264.513" cy="549.436" r="2.612"/>
			<circle cx="275.065" cy="549.436" r="2.612"/>
			<circle cx="85.118" cy="559.988" r="2.611"/>
			<circle cx="95.67" cy="559.988" r="2.611"/>
			<circle cx="106.223" cy="559.988" r="2.611"/>
			<circle cx="116.776" cy="559.988" r="2.611"/>
			<circle cx="137.881" cy="559.988" r="2.611"/>
			<circle cx="148.434" cy="559.988" r="2.611"/>
			<circle cx="158.986" cy="559.988" r="2.611"/>
			<circle cx="169.539" cy="559.988" r="2.611"/>
			<circle cx="180.092" cy="559.988" r="2.611"/>
			<circle cx="190.644" cy="559.988" r="2.611"/>
			<circle cx="201.197" cy="559.988" r="2.611"/>
			<circle cx="211.75" cy="559.988" r="2.611"/>
			<circle cx="222.302" cy="559.988" r="2.611"/>
			<circle cx="232.855" cy="559.988" r="2.611"/>
			<circle cx="243.408" cy="559.988" r="2.611"/>
			<circle cx="253.96" cy="559.988" r="2.611"/>
			<circle cx="264.513" cy="559.988" r="2.611"/>
			<circle cx="275.065" cy="559.988" r="2.611"/>
			<circle cx="158.986" cy="570.541" r="2.611"/>
			<circle cx="169.539" cy="570.541" r="2.611"/>
			<circle cx="180.092" cy="570.541" r="2.611"/>
			<circle cx="190.644" cy="570.541" r="2.611"/>
			<circle cx="201.197" cy="570.541" r="2.611"/>
			<circle cx="211.75" cy="570.541" r="2.611"/>
			<circle cx="222.302" cy="570.541" r="2.611"/>
			<circle cx="232.855" cy="570.541" r="2.611"/>
			<circle cx="243.408" cy="570.541" r="2.611"/>
			<circle cx="253.96" cy="570.541" r="2.611"/>
			<circle cx="264.513" cy="570.541" r="2.611"/>
			<circle cx="190.644" cy="581.094" r="2.611"/>
			<circle cx="201.197" cy="581.094" r="2.611"/>
			<circle cx="211.75" cy="581.094" r="2.611"/>
			<circle cx="222.302" cy="581.094" r="2.611"/>
			<circle cx="232.855" cy="581.094" r="2.611"/>
			<circle cx="243.408" cy="581.094" r="2.611"/>
			<circle cx="253.96" cy="581.094" r="2.611"/>
			<circle cx="264.513" cy="581.094" r="2.611"/>
			<circle cx="201.197" cy="591.646" r="2.611"/>
			<circle cx="211.75" cy="591.646" r="2.611"/>
			<circle cx="222.302" cy="591.646" r="2.611"/>
			<circle cx="232.855" cy="591.646" r="2.611"/>
			<circle cx="243.408" cy="591.646" r="2.611"/>
			<circle cx="253.96" cy="591.646" r="2.611"/>
			<circle cx="211.75" cy="602.199" r="2.611"/>
			<circle cx="222.302" cy="602.199" r="2.611"/>
			<circle cx="232.855" cy="602.199" r="2.611"/>
			<circle cx="243.408" cy="602.199" r="2.611"/>
			<circle cx="211.75" cy="612.751" r="2.612"/>
			<circle cx="222.302" cy="612.751" r="2.612"/>
			<circle cx="232.855" cy="612.751" r="2.612"/>
		</g>
	</g>
</g>
<g id="Layer_1">
</g>
</svg>
