<?xml version="1.0" encoding="utf-8"?>
<!-- Generator: Adobe Illustrator 16.0.0, SVG Export Plug-In . SVG Version: 6.00 Build 0)  -->
<!DOCTYPE svg PUBLIC "-//W3C//DTD SVG 1.1//EN" "http://www.w3.org/Graphics/SVG/1.1/DTD/svg11.dtd">
<svg version="1.1" id="Capa_1" xmlns="http://www.w3.org/2000/svg" xmlns:xlink="http://www.w3.org/1999/xlink" x="0px" y="0px"
	 width="512px" height="512px" viewBox="0 0 512 512" enable-background="new 0 0 512 512" xml:space="preserve">
<path d="M475.074,0H36.926C16.531,0,0,16.531,0,36.926v438.148C0,495.469,16.531,512,36.926,512h438.148
	C495.469,512,512,495.469,512,475.074V36.926C512,16.531,495.469,0,475.074,0z M413.008,136.663
	c0.599,0.071,1.189,0.192,1.769,0.361L256.641,265.461L100.273,136.663H413.008z M425.037,365.199
	c0,6.644-5.387,12.028-12.029,12.028H100.273c-6.643,0-12.028-5.385-12.028-12.028V157.904L248.99,290.335
	c4.432,3.629,10.809,3.629,15.24,0l160.807-130.65V365.199z"/>
</svg>
