<svg height="512pt" viewBox="0 -82 512 512" width="512pt" xmlns="http://www.w3.org/2000/svg"><path d="m456.835938 47.925781c-6.527344 0-63.726563 0-70.933594 0-40.019532 0-62.164063-18.027343-88.183594-35.308593-25.332031-16.816407-58.070312-16.824219-83.410156-.015626-1 .660157-42.011719 35.324219-88.207032 35.324219-7.210937 0-64.410156 0-70.933593 0-30.421875 0-55.167969 24.675781-55.167969 55v127.019531c0 31.972657 26.089844 57.980469 58.160156 57.980469h60.605469c14.066406 35.46875 48.671875 60 88.636719 60h97.195312c39.964844 0 74.570313-24.53125 88.636719-60h60.605469c32.070312 0 58.160156-26.007812 58.160156-57.980469v-127.019531c.003906-30.328125-24.746094-55-55.164062-55zm-426.832032 182.019531v-127.019531c0-13.785156 11.289063-25 25.164063-25h36.789062l20.082031 180h-53.878906c-15.527344 0-28.15625-12.550781-28.15625-27.980469zm274.597656 87.980469h-97.199218c-33.339844 0-61.253906-24.859375-64.933594-57.828125l-20.324219-182.171875c43.910157 0 87.003907-21.148437 109.6875-40.929687 15.121094-9.511719 34.347657-9.308594 49.292969.613281 33.757812 22.414063 56.652344 40.316406 108.734375 40.316406l-20.328125 182.171875c-3.675781 32.96875-31.589844 57.828125-64.929688 57.828125zm177.402344-87.980469c0 15.429688-12.632812 27.980469-28.160156 27.980469h-53.878906l20.082031-180h36.789063c13.878906 0 25.167968 11.214844 25.167968 25zm0 0"/><path d="m338.796875 108.128906c-2.503906-.414062-61.558594-10.203125-82.792969-10.203125-21.238281 0-80.292968 9.789063-82.796875 10.203125-8.171875 1.359375-13.695312 9.089844-12.335937 17.261719 1.222656 7.335937 7.578125 12.539063 14.777344 12.539063 2.191406 0 61.046874-10.003907 80.355468-10.003907 15.574219 0 61.492188 7.074219 77.871094 9.796875 8.171875 1.355469 15.898438-4.164062 17.257812-12.332031 1.359376-8.171875-4.164062-15.902344-12.335937-17.261719zm0 0"/><path d="m330.664062 167.988281c-71.171874-6.476562-78.152343-6.476562-149.324218 0-8.25.75-14.332032 8.046875-13.578125 16.296875.75 8.25 8.058593 14.335938 16.296875 13.578125 69.253906-6.300781 74.632812-6.300781 143.890625 0 8.210937.757813 15.542969-5.300781 16.296875-13.578125.75-8.25-5.332032-15.546875-13.582032-16.296875zm0 0"/><path d="m322.277344 227.925781h-132.550782c-8.285156 0-15 6.71875-15 15 0 8.285157 6.714844 15 15 15h132.550782c8.285156 0 15-6.714843 15-15 0-8.28125-6.714844-15-15-15zm0 0"/></svg>