<?xml version="1.0" encoding="utf-8"?>
<!-- Generator: Adobe Illustrator 16.0.0, SVG Export Plug-In . SVG Version: 6.00 Build 0)  -->
<!DOCTYPE svg PUBLIC "-//W3C//DTD SVG 1.1//EN" "http://www.w3.org/Graphics/SVG/1.1/DTD/svg11.dtd">
<svg version="1.1" id="Capa_1" xmlns="http://www.w3.org/2000/svg" xmlns:xlink="http://www.w3.org/1999/xlink" x="0px" y="0px"
	 width="512px" height="512px" viewBox="0 0 512 512" enable-background="new 0 0 512 512" xml:space="preserve">
<g>
	<path fill="#FFFFFF" d="M456.836,129.963c-6.527,0-63.727,0-70.934,0c-40.02,0-62.164-18.027-88.184-35.309
		c-25.332-16.816-58.07-16.824-83.41-0.016c-1,0.66-42.012,35.324-88.207,35.324c-7.211,0-64.41,0-70.934,0
		c-30.422,0-55.168,24.676-55.168,55v127.02c0,31.973,26.09,57.98,58.16,57.98h60.605c14.066,35.469,48.672,60,88.637,60h97.195
		c39.965,0,74.57-24.531,88.637-60h60.605c32.07,0,58.16-26.008,58.16-57.98v-127.02
		C512.004,154.635,487.254,129.963,456.836,129.963z M30.004,311.982v-127.02c0-13.785,11.289-25,25.164-25h36.789l20.082,180H58.16
		C42.633,339.963,30.004,327.412,30.004,311.982z M304.602,399.963h-97.199c-33.34,0-61.254-24.859-64.934-57.828l-20.324-182.172
		c43.91,0,87.004-21.148,109.688-40.93c15.121-9.512,34.348-9.309,49.293,0.613c33.758,22.414,56.652,40.316,108.734,40.316
		l-20.328,182.172C365.855,375.104,337.941,399.963,304.602,399.963z M482.004,311.982c0,15.43-12.633,27.98-28.16,27.98h-53.879
		l20.082-180h36.789c13.879,0,25.168,11.215,25.168,25V311.982z"/>
	<path fill="#FFFFFF" d="M338.797,190.166c-2.504-0.414-61.559-10.203-82.793-10.203c-21.238,0-80.293,9.789-82.797,10.203
		c-8.172,1.359-13.695,9.09-12.336,17.262c1.223,7.336,7.578,12.539,14.777,12.539c2.191,0,61.047-10.004,80.355-10.004
		c15.574,0,61.492,7.074,77.871,9.797c8.172,1.355,15.898-4.164,17.258-12.332C352.492,199.256,346.969,191.525,338.797,190.166z"/>
	<path fill="#FFFFFF" d="M330.664,250.025c-71.172-6.477-78.152-6.477-149.324,0c-8.25,0.75-14.332,8.047-13.578,16.297
		c0.75,8.25,8.059,14.336,16.297,13.578c69.254-6.301,74.633-6.301,143.891,0c8.211,0.758,15.543-5.301,16.297-13.578
		C344.996,258.072,338.914,250.775,330.664,250.025z"/>
	<path fill="#FFFFFF" d="M322.277,309.963H189.727c-8.285,0-15,6.719-15,15c0,8.285,6.715,15,15,15h132.551c8.285,0,15-6.715,15-15
		C337.277,316.682,330.563,309.963,322.277,309.963z"/>
</g>
</svg>
