<?xml version="1.0" encoding="utf-8"?>
<!-- Generator: Adobe Illustrator 16.0.0, SVG Export Plug-In . SVG Version: 6.00 Build 0)  -->
<!DOCTYPE svg PUBLIC "-//W3C//DTD SVG 1.1//EN" "http://www.w3.org/Graphics/SVG/1.1/DTD/svg11.dtd">
<svg version="1.1" id="Capa_1" xmlns="http://www.w3.org/2000/svg" xmlns:xlink="http://www.w3.org/1999/xlink" x="0px" y="0px"
	 width="48px" height="48px" viewBox="0 0 48 48" enable-background="new 0 0 48 48" xml:space="preserve">
<path d="M44.447,47.892c1.903,0,3.445-1.542,3.445-3.445V3.554c0-1.903-1.542-3.445-3.445-3.445H3.554
	c-1.903,0-3.445,1.542-3.445,3.445v40.893c0,1.903,1.542,3.445,3.445,3.445"/>
<path opacity="0.05" enable-background="new    " d="M7.669,23.372c9.594-4.347,20.862-9.063,22.597-9.746
	c3.826-1.505,5.495,0.033,5.234,2.486c-0.322,3.006-1.845,11.753-2.781,18.019c-0.549,3.668-2.534,4.791-4.774,3.368
	c-1.701-1.077-7.545-4.905-9.083-6.213c-1.047-0.892-1.778-1.893-1.035-2.911c0.218-0.298,0.775-0.897,1.084-1.196
	c1.552-1.504,1.342-1.827-0.534-0.484c-0.225,0.159-1.52,1.1-2.053,1.456c-1.306,0.87-2.507,0.917-4.544,0.225
	c-1.666-0.565-3.266-1.002-4.275-1.438C6.11,26.332,5.576,24.32,7.669,23.372z"/>
<path opacity="0.07" enable-background="new    " d="M8.513,23.519c8.909-3.982,19.865-8.545,21.465-9.192
	c3.84-1.55,5.253-0.63,4.839,2.367c-0.383,2.774-1.743,11.357-2.697,17.111c-0.563,3.387-2.205,4.134-4.344,2.749
	c-1.341-0.862-6.733-4.417-8.041-5.45c-1.011-0.799-2.06-1.722-0.835-3.058c0.41-0.445,2.671-2.627,4.361-4.25
	c0.98-0.942,0.631-1.407-0.552-0.598c-2.167,1.486-5.715,3.837-6.348,4.265c-1.206,0.811-2.338,1.006-4.311,0.386
	c-1.554-0.489-3.055-0.962-3.837-1.268C6.465,25.903,6.441,24.445,8.513,23.519z"/>
<path fill="#FFFFFF" d="M9.357,23.667c8.223-3.617,18.865-8.027,20.333-8.638c3.853-1.598,5.036-1.292,4.446,2.247
	c-0.424,2.543-1.646,10.964-2.618,16.205c-0.579,3.107-1.875,3.478-3.913,2.132c-0.979-0.646-5.927-3.919-7.001-4.687
	c-0.98-0.701-2.332-1.544-0.636-3.202c0.604-0.591,4.557-4.367,7.639-7.306c0.403-0.386-0.104-1.02-0.569-0.71
	c-4.153,2.754-9.911,6.576-10.644,7.073c-1.107,0.753-2.17,1.098-4.079,0.549c-1.442-0.413-2.85-0.907-3.398-1.096
	C6.805,25.508,7.306,24.569,9.357,23.667z"/>
</svg>
