<?xml version="1.0" encoding="utf-8"?>
<!-- Generator: Adobe Illustrator 16.0.0, SVG Export Plug-In . SVG Version: 6.00 Build 0)  -->
<!DOCTYPE svg PUBLIC "-//W3C//DTD SVG 1.1//EN" "http://www.w3.org/Graphics/SVG/1.1/DTD/svg11.dtd">
<svg version="1.1" id="Capa_1" xmlns="http://www.w3.org/2000/svg" xmlns:xlink="http://www.w3.org/1999/xlink" x="0px" y="0px"
	 width="48px" height="48px" viewBox="0 0 48 48" enable-background="new 0 0 48 48" xml:space="preserve">
<path d="M44.447,0H3.554C1.651,0,0.109,1.541,0.109,3.445v40.893c0,1.902,1.542,3.445,3.445,3.445h40.893
	c1.902,0,3.445-1.543,3.445-3.445V3.445C47.893,1.541,46.35,0,44.447,0z M39.093,20.797c-3.083,0-5.936-0.979-8.265-2.642v12.094
	c0,6.051-4.906,10.954-10.96,10.954c-3.069,0-5.843-1.261-7.834-3.294c0,0-0.001,0-0.002-0.001
	c-1.934-1.975-3.124-4.678-3.124-7.659c0-5.972,4.783-10.829,10.729-10.952c0.58-0.012,1.16,0.021,1.735,0.101v6.058
	c-0.492-0.155-1.005-0.233-1.521-0.233c-2.77,0-5.014,2.242-5.014,5.01c-0.002,1.097,0.358,2.162,1.023,3.033
	c0.916,1.203,2.363,1.979,3.991,1.979c2.763,0,5.003-2.236,5.014-4.995V6.578h4.32h1.643V7.34c0.169,1.856,0.95,3.536,2.142,4.836
	c1.145,1.25,2.668,2.148,4.388,2.514c0.571,0.121,1.152,0.182,1.735,0.182V20.797z"/>
</svg>
