<?xml version="1.0" encoding="utf-8"?>
<!-- Generator: Adobe Illustrator 16.0.0, SVG Export Plug-In . SVG Version: 6.00 Build 0)  -->
<!DOCTYPE svg PUBLIC "-//W3C//DTD SVG 1.1//EN" "http://www.w3.org/Graphics/SVG/1.1/DTD/svg11.dtd">
<svg version="1.1" id="Layer_1" xmlns="http://www.w3.org/2000/svg" xmlns:xlink="http://www.w3.org/1999/xlink" x="0px" y="0px"
	 width="512px" height="512px" viewBox="0 0 512 512" enable-background="new 0 0 512 512" xml:space="preserve">
<g>
	<path fill="#FFFFFF" d="M500.879,289.165c-7.72-2.07-16.152,2.326-18.371,10.606l-0.347,1.295l-34.708-9.299
		c2.162-11.6,3.304-23.553,3.304-35.769c0-12.217-1.143-24.171-3.305-35.771l34.708-9.3l0.347,1.296
		c2.219,8.281,10.652,12.676,18.371,10.606c8.002-2.144,12.751-10.369,10.606-18.371l-8.459-31.569
		c-2.146-8.002-10.365-12.752-18.371-10.606c-8.002,2.144-12.75,10.369-10.606,18.371l0.347,1.296l-34.718,9.303
		c-8.09-22.882-20.335-43.815-35.834-61.884l25.481-25.481l0.949,0.949c5.855,5.857,15.354,5.859,21.213,0
		c5.857-5.858,5.857-15.355,0-21.213l-23.11-23.11c-5.857-5.858-15.355-5.858-21.213,0c-5.858,5.858-5.858,15.355,0,21.213
		l0.949,0.949l-25.481,25.48c-18.071-15.5-39.005-27.746-61.888-35.835l9.302-34.716l1.296,0.347
		c8.314,2.228,16.314-2.928,18.371-10.606c2.145-8.002-2.604-16.227-10.605-18.371l-31.569-8.459
		c-8.003-2.145-16.229,2.605-18.371,10.606c-2.145,8.002,2.604,16.227,10.605,18.371l1.297,0.347l-9.301,34.708
		c-11.599-2.162-23.552-3.304-35.768-3.304s-24.169,1.142-35.768,3.304l-9.3-34.708l1.296-0.347
		c8.002-2.144,12.75-10.369,10.606-18.371c-2.143-8.003-10.368-12.753-18.37-10.608l-31.569,8.459
		c-8.002,2.144-12.75,10.369-10.606,18.371c2.057,7.679,10.057,12.835,18.371,10.606l1.296-0.347l9.302,34.716
		c-22.883,8.09-43.817,20.335-61.888,35.835l-25.481-25.48l0.949-0.949c5.858-5.858,5.858-15.355,0-21.213
		c-5.857-5.858-15.355-5.858-21.213,0l-23.11,23.11c-5.858,5.858-5.858,15.355,0,21.213c5.858,5.859,15.357,5.857,21.213,0
		l0.949-0.949l25.481,25.481c-15.499,18.07-27.744,39.003-35.834,61.884l-34.718-9.303l0.347-1.296
		c2.144-8.002-2.604-16.227-10.606-18.371c-8.006-2.146-16.227,2.604-18.371,10.606L0.515,204.46
		c-2.144,8.002,2.604,16.227,10.606,18.371c7.72,2.07,16.152-2.326,18.371-10.606l0.347-1.296l34.708,9.3
		c-2.162,11.6-3.305,23.554-3.305,35.771c0,12.216,1.142,24.169,3.304,35.768l-34.708,9.301l-0.347-1.297
		c-2.219-8.28-10.652-12.676-18.371-10.605c-8.002,2.145-12.75,10.369-10.606,18.371l8.459,31.568
		c2.145,8.002,10.365,12.752,18.371,10.606c8.002-2.144,12.75-10.369,10.606-18.371l-0.347-1.296l34.716-9.302
		c8.09,22.883,20.335,43.817,35.835,61.888l-25.481,25.48l-0.949-0.948c-5.856-5.856-15.355-5.859-21.213,0
		c-5.858,5.858-5.858,15.354,0,21.213l23.11,23.11c5.857,5.857,15.355,5.857,21.213,0c5.858-5.858,5.858-15.355,0-21.213
		l-0.949-0.949l25.481-25.48c18.071,15.5,39.005,27.746,61.888,35.835l-9.302,34.716l-1.296-0.347
		c-8.314-2.228-16.314,2.928-18.371,10.606c-2.144,8.002,2.604,16.227,10.606,18.371l31.569,8.459
		c8.003,2.145,16.228-2.605,18.371-10.606c2.144-8.002-2.604-16.227-10.606-18.371l-1.296-0.347l9.3-34.708
		c11.599,2.162,23.552,3.304,35.768,3.304c12.216,0,24.169-1.142,35.769-3.304l9.3,34.708l-1.297,0.347
		c-8.001,2.145-12.749,10.369-10.605,18.371c2.144,8.001,10.368,12.751,18.371,10.606l31.568-8.459
		c8.003-2.145,12.75-10.369,10.606-18.371c-2.057-7.68-10.057-12.835-18.371-10.606l-1.296,0.347l-9.302-34.716
		c22.883-8.09,43.816-20.335,61.888-35.835l25.481,25.48l-0.949,0.949c-5.858,5.857-5.858,15.354,0,21.213
		c5.856,5.857,15.354,5.857,21.213,0l23.11-23.11c5.857-5.858,5.857-15.354,0-21.213c-5.858-5.859-15.357-5.856-21.214,0
		l-0.948,0.948l-25.481-25.48c15.5-18.07,27.746-39.005,35.835-61.888l34.716,9.302l-0.347,1.296
		c-2.144,8.002,2.604,16.228,10.606,18.371c8.006,2.146,16.227-2.604,18.37-10.606l8.46-31.568
		C513.629,299.534,508.881,291.309,500.879,289.165L500.879,289.165z M256,420.757c-90.847,0-164.757-73.909-164.757-164.757
		c0-90.847,73.91-164.757,164.757-164.757c90.847,0,164.757,73.91,164.757,164.757C420.757,346.848,346.847,420.757,256,420.757z"/>
	<circle fill="#FFFFFF" cx="256" cy="143.533" r="15"/>
	<circle fill="#FFFFFF" cx="256" cy="368.467" r="15"/>
	<circle fill="#FFFFFF" cx="223.867" cy="288.133" r="15"/>
	<circle fill="#FFFFFF" cx="288.133" cy="288.133" r="15"/>
	<circle fill="#FFFFFF" cx="288.133" cy="223.867" r="15"/>
	<circle fill="#FFFFFF" cx="223.867" cy="223.867" r="15"/>
	<circle fill="#FFFFFF" cx="368.467" cy="256" r="15"/>
	<circle fill="#FFFFFF" cx="143.533" cy="256" r="15"/>
	<circle fill="#FFFFFF" cx="335.526" cy="176.478" r="15"/>
	<circle fill="#FFFFFF" cx="176.474" cy="335.53" r="15"/>
	<circle fill="#FFFFFF" cx="335.526" cy="335.53" r="15"/>
	<circle fill="#FFFFFF" cx="176.474" cy="176.478" r="15"/>
</g>
</svg>
