<?xml version="1.0" encoding="utf-8"?>
<!-- Generator: Adobe Illustrator 16.0.0, SVG Export Plug-In . SVG Version: 6.00 Build 0)  -->
<!DOCTYPE svg PUBLIC "-//W3C//DTD SVG 1.1//EN" "http://www.w3.org/Graphics/SVG/1.1/DTD/svg11.dtd">
<svg version="1.1" id="Capa_1" xmlns="http://www.w3.org/2000/svg" xmlns:xlink="http://www.w3.org/1999/xlink" x="0px" y="0px"
	 width="512px" height="512px" viewBox="0 0 512 512" enable-background="new 0 0 512 512" xml:space="preserve">
<path d="M475.074,0H36.926C16.531,0,0,16.531,0,36.926v438.148C0,495.469,16.531,512,36.926,512h438.148
	C495.469,512,512,495.469,512,475.074V36.926C512,16.531,495.469,0,475.074,0z"/>
<path fill="#FFFFFF" d="M387.715,123.179c-34.947-34.988-81.424-54.266-130.938-54.286c-102.028,0-185.064,83.034-185.105,185.089
	c-0.013,32.625,8.509,64.47,24.708,92.541L70.12,442.44l98.127-25.739c27.038,14.748,57.478,22.521,88.456,22.53h0.077
	c102.018,0,185.063-83.041,185.102-185.101C441.9,204.669,422.666,158.165,387.715,123.179z M286.271,340.299
	c-6.719-2.131-15.332-4.975-26.367-9.744c-46.395-20.032-76.697-66.749-79.01-69.836c-2.312-3.086-18.885-25.079-18.885-47.844
	s11.947-33.953,16.186-38.584c4.24-4.632,9.252-5.789,12.334-5.789c3.086,0,6.17,0.027,8.865,0.162
	c2.841,0.142,6.65-1.076,10.408,7.939c3.853,9.264,13.103,32.029,14.256,34.343c1.158,2.314,1.932,5.016,0.388,8.103
	c-1.541,3.085-6.555,9.603-11.562,15.82c-2.052,2.544-4.724,4.806-2.029,9.438c2.699,4.629,11.981,19.774,25.729,32.039
	c17.667,15.756,32.569,20.643,37.195,22.956c4.626,2.316,7.32,1.929,10.021-1.158c2.699-3.084,11.561-13.504,14.647-18.132
	c3.079-4.629,6.166-3.86,10.402-2.317c4.24,1.546,26.98,12.732,31.604,15.049s7.709,3.473,8.862,5.4
	c1.158,1.932,1.158,11.19-2.694,21.996c-3.858,10.801-22.333,20.662-31.221,21.991C307.431,343.322,297.352,343.819,286.271,340.299
	z"/>
</svg>
